<svg width="50" height="17" viewBox="0 0 50 17" fill="none" xmlns="http://www.w3.org/2000/svg">
<path d="M39.5447 0.213682C39.3054 0.333899 38.9149 0.427399 38.7008 0.414042C38.1843 0.400684 37.4033 1.16205 37.4033 1.66963C37.4033 1.86999 37.2899 2.05699 37.1261 2.15049C36.4963 2.51114 36.0302 3.47286 36.0176 4.42123C36.0176 4.82195 36.005 5.28946 35.9924 5.47646C35.9798 5.69018 36.131 5.98404 36.3829 6.2779C36.6097 6.53169 36.8868 6.85226 37.0002 6.99919C37.5292 7.62699 37.9198 7.6537 39.9101 7.26634C40.225 7.19955 40.3761 7.22627 40.4895 7.38655C40.5651 7.49341 40.7918 7.61363 40.9934 7.64034C41.3587 7.68042 41.3713 7.70713 41.3713 8.375C41.3713 8.88257 41.4343 9.13636 41.6358 9.37679C42.2153 10.0447 42.4294 11.0064 42.1271 11.6075C41.8752 12.1418 41.8878 12.6627 42.1775 13.1703C42.3035 13.3973 42.4546 13.8515 42.505 14.1721C42.5554 14.4926 42.7318 15.0002 42.8955 15.3074C43.0593 15.6013 43.1978 15.9753 43.1978 16.1222C43.1978 16.2692 43.2734 16.4562 43.3616 16.5363C43.5506 16.6966 44.8102 16.5363 45.163 16.2959C45.5409 16.0421 46.2589 14.8533 46.1707 14.6262C46.1203 14.4926 46.2085 14.3591 46.4226 14.2656C46.7124 14.1186 46.7376 14.0519 46.6746 13.5576C46.599 13.0367 46.6116 13.01 47.2036 12.5425C47.7579 12.1017 47.8083 12.0082 47.7957 11.5407C47.7831 11.2468 47.7075 10.766 47.6193 10.4587C47.4934 9.97787 47.506 9.83094 47.6571 9.52372C47.9217 9.01615 48.2114 8.68221 48.7783 8.21471C49.2443 7.8407 50.0002 6.66526 50.0002 6.30461C50.0002 6.17104 49.8868 6.14433 49.6222 6.19775C49.4207 6.23783 49.0806 6.31797 48.8664 6.35804C48.5515 6.42483 48.4759 6.38476 48.3752 6.0909C48.2996 5.91725 48.0728 5.62339 47.8713 5.4631C47.6571 5.28946 47.4808 5.04903 47.4808 4.91545C47.4808 4.78188 47.4304 4.67502 47.3548 4.67502C47.2918 4.67502 47.191 4.51473 47.1533 4.30102C47.1029 4.10066 46.8509 3.48622 46.5864 2.95193C46.3219 2.40428 46.1329 1.92342 46.1707 1.88335C46.2085 1.84327 46.2841 1.8967 46.3471 2.00356C46.41 2.11042 46.4982 2.15049 46.5612 2.09706C46.6116 2.04363 46.5864 1.88335 46.5234 1.76313C46.4226 1.58948 46.1959 1.53606 45.6416 1.5227C45.2385 1.50934 44.6717 1.40248 44.4071 1.28227C43.8277 1.02848 43.5757 1.08191 43.5757 1.46927C43.5757 1.6162 43.5254 1.73641 43.4498 1.73641C43.2356 1.73641 42.631 1.41584 42.5302 1.2422C42.4798 1.14869 42.3161 1.06855 42.1775 1.06855C41.6736 1.06855 41.4343 0.828118 41.5225 0.400684L41.598 -3.43323e-05H40.7918C40.3384 0.0133228 39.7967 0.106823 39.5447 0.213682Z" fill="#05A41E"/>
<path d="M42.2358 13.1379L42.2354 13.1372C41.957 12.6495 41.9444 12.1518 42.1871 11.6366C42.3468 11.3184 42.3675 10.9113 42.2772 10.5028C42.1867 10.0932 41.9835 9.67591 41.6866 9.33354C41.5003 9.11114 41.438 8.87658 41.438 8.375C41.438 8.20861 41.4372 8.07922 41.4301 7.97937C41.4231 7.88076 41.4096 7.80208 41.3787 7.74182C41.3452 7.67659 41.2945 7.6385 41.2288 7.61526C41.1678 7.59372 41.0908 7.58397 41.0014 7.57416C40.9097 7.56189 40.8102 7.52798 40.7246 7.48416C40.6371 7.43937 40.5726 7.38861 40.5439 7.34806C40.4788 7.25593 40.3987 7.19809 40.2885 7.17594C40.1834 7.1548 40.0559 7.16729 39.8968 7.201C38.8994 7.3951 38.3143 7.48277 37.9131 7.44705C37.715 7.42941 37.5644 7.38177 37.4323 7.303C37.2996 7.22388 37.1818 7.11115 37.0521 6.95732C36.9365 6.80773 36.6587 6.4865 36.4326 6.23348L36.3829 6.2779M42.2358 13.1379L37.1593 2.20835L37.1261 2.15049L37.1592 2.20839C36.8594 2.38006 36.5934 2.69843 36.4004 3.09466C36.2077 3.49006 36.0905 3.95777 36.0843 4.42168M42.2358 13.1379C42.3661 13.3729 42.5195 13.8347 42.5709 14.1617C42.6199 14.4739 42.7935 14.9741 42.9541 15.2755M42.2358 13.1379L45.1258 16.2405M36.3829 6.2779L36.4335 6.23451C36.3102 6.09063 36.2129 5.94831 36.1482 5.81757C36.0832 5.68601 36.0537 5.57127 36.059 5.48066C36.0717 5.29138 36.0843 4.82271 36.0843 4.42168M36.3829 6.2779C36.131 5.98404 35.9798 5.69018 35.9924 5.47646L37.0002 6.99919C36.8868 6.85226 36.6097 6.53169 36.3829 6.2779ZM36.0843 4.42168C36.0843 4.42153 36.0843 4.42138 36.0843 4.42123H36.0176L36.0843 4.42212C36.0843 4.42197 36.0843 4.42183 36.0843 4.42168ZM45.1258 16.2405L45.1254 16.2408C45.0468 16.2944 44.9109 16.3472 44.7418 16.3931C44.5745 16.4385 44.3811 16.4755 44.1922 16.5003C44.0032 16.525 43.8206 16.5372 43.6748 16.5335C43.6019 16.5317 43.5399 16.5259 43.4917 16.5165C43.4422 16.5067 43.4161 16.4946 43.4054 16.4861C43.372 16.4552 43.3362 16.399 43.3086 16.3297C43.281 16.2604 43.2645 16.1854 43.2645 16.1222C43.2645 16.0355 43.2256 15.8951 43.1706 15.7468C43.1144 15.5954 43.0376 15.4255 42.9541 15.2755M45.1258 16.2405C45.2112 16.1831 45.3217 16.0682 45.4399 15.9185C45.557 15.7704 45.6779 15.5932 45.7845 15.4166C45.8913 15.2397 45.9828 15.065 46.042 14.9218C46.0716 14.85 46.0923 14.788 46.1031 14.7385C46.1146 14.6858 46.112 14.6592 46.1086 14.6503L46.1083 14.6497M45.1258 16.2405L46.1083 14.6497M42.9541 15.2755C42.954 15.2754 42.9539 15.2752 42.9538 15.275L42.8955 15.3074M42.9541 15.2755C42.9542 15.2757 42.9543 15.2759 42.9543 15.2761L42.8955 15.3074M42.8955 15.3074C43.0593 15.6013 43.1978 15.9753 43.1978 16.1222C43.1978 16.2692 43.2734 16.4562 43.3616 16.5363L42.505 14.1721C42.5554 14.4926 42.7318 15.0002 42.8955 15.3074ZM46.1083 14.6497C46.0749 14.561 46.0886 14.4715 46.1426 14.3931C46.1944 14.3177 46.2815 14.2547 46.3942 14.2053C46.5389 14.1317 46.5934 14.0884 46.6181 14.0194C46.6314 13.9821 46.6378 13.9322 46.6359 13.8578C46.634 13.7835 46.6242 13.6898 46.6085 13.5667C46.5716 13.3125 46.5501 13.1521 46.6296 12.9993C46.6687 12.924 46.7301 12.8543 46.8155 12.7759C46.9009 12.6976 47.0147 12.6067 47.1622 12.4902C47.4416 12.268 47.5819 12.1421 47.6547 12.0179C47.7245 11.8989 47.7353 11.776 47.7291 11.543C47.7166 11.2542 47.6419 10.779 47.5553 10.4771L47.5552 10.4771M46.1083 14.6497L47.5552 10.4771M47.5552 10.4771L47.5549 10.4756M47.5552 10.4771L47.5549 10.4756M47.5549 10.4756C47.4917 10.2347 47.4609 10.0692 47.4677 9.92301C47.4746 9.77426 47.5202 9.651 47.5973 9.49429L47.5973 9.49428M47.5549 10.4756L47.5973 9.49428M47.5973 9.49428L47.598 9.49291M47.5973 9.49428L47.598 9.49291M47.598 9.49291C47.8678 8.97526 48.1642 8.63469 48.7358 8.16327L48.7365 8.16271M47.598 9.49291L48.7365 8.16271M48.7365 8.16271C48.9609 7.98268 49.2616 7.60281 49.5079 7.21868C49.6304 7.02754 49.7378 6.83773 49.8144 6.67433C49.8527 6.59261 49.8828 6.51841 49.9033 6.45456C49.924 6.38981 49.9335 6.33961 49.9335 6.30461C49.9335 6.28029 49.9283 6.26873 49.9242 6.26307C49.9206 6.25796 49.9129 6.25081 49.8929 6.24539C49.8481 6.23322 49.7676 6.2364 49.6354 6.2631L49.6352 6.26314M48.7365 8.16271L49.6352 6.26314M49.6352 6.26314C49.5508 6.27993 49.4371 6.30489 49.3181 6.33102C49.1631 6.36502 48.9992 6.40099 48.8795 6.42342M49.6352 6.26314L47.8293 5.51488M47.8293 5.51488L47.8298 5.51528C47.9254 5.5913 48.0289 5.70076 48.1182 5.8134C48.207 5.92541 48.2781 6.03603 48.313 6.11514C48.3623 6.2585 48.4128 6.36636 48.5087 6.41832C48.6039 6.4699 48.7253 6.45607 48.8795 6.42342M47.8293 5.51488C47.7179 5.42455 47.6161 5.31677 47.5416 5.21318C47.5043 5.16137 47.4731 5.10949 47.4509 5.06038C47.4291 5.01215 47.4141 4.96218 47.4141 4.91545C47.4141 4.85596 47.4027 4.80691 47.3867 4.77533C47.37 4.74239 47.3565 4.74169 47.3548 4.74169C47.3125 4.74169 47.2783 4.71648 47.2556 4.69444C47.2307 4.67026 47.2074 4.63783 47.1866 4.60099C47.145 4.52747 47.1082 4.42757 47.088 4.31506C47.0382 4.11983 46.7901 3.51355 46.5267 2.98151L46.5264 2.98093M47.8293 5.51488L46.5264 2.98093M48.8795 6.42342C48.8797 6.42337 48.88 6.42331 48.8803 6.42326L48.8664 6.35804M48.8795 6.42342C48.8792 6.42347 48.879 6.42352 48.8787 6.42357L48.8664 6.35804M48.8664 6.35804C48.5515 6.42483 48.4759 6.38476 48.3752 6.0909L49.3006 6.26659C49.1474 6.30024 48.987 6.33549 48.8664 6.35804ZM46.5264 2.98093C46.3936 2.70603 46.2795 2.44726 46.2031 2.25153C46.165 2.15392 46.1357 2.07055 46.1183 2.00812C46.1097 1.97722 46.1033 1.94909 46.1006 1.92589C46.0993 1.91443 46.0986 1.90153 46.0999 1.88883C46.1011 1.87821 46.1048 1.8561 46.1222 1.83761C46.1463 1.8121 46.1782 1.80121 46.2105 1.80373C46.2399 1.80602 46.2661 1.81889 46.2873 1.83346C46.3297 1.86274 46.3703 1.91176 46.4045 1.96971C46.4317 2.01583 46.4602 2.04024 46.4811 2.04944C46.4959 2.05597 46.5053 2.05502 46.5138 2.04943C46.5153 2.04666 46.5178 2.04055 46.5195 2.02916C46.522 2.01262 46.5221 1.99035 46.5187 1.96357C46.5119 1.9104 46.4926 1.84845 46.465 1.79537C46.4262 1.72912 46.3622 1.68083 46.2355 1.64725C46.1052 1.61271 45.9169 1.59602 45.64 1.58935L45.6394 1.58933L46.5264 2.98093ZM42.4725 1.27567L42.4725 1.27566C42.5052 1.33194 42.5719 1.39141 42.6468 1.44641C42.7242 1.50318 42.8187 1.56118 42.916 1.61322C43.0134 1.66527 43.115 1.71211 43.2067 1.74612C43.2963 1.77934 43.3837 1.80308 43.4498 1.80308C43.5278 1.80308 43.5763 1.74148 43.6018 1.68556C43.6288 1.6261 43.6424 1.54927 43.6424 1.46927C43.6424 1.37839 43.6574 1.3159 43.6816 1.27476C43.7042 1.23638 43.7375 1.21175 43.7886 1.20042C43.8425 1.18846 43.9172 1.19133 44.0176 1.21485C44.1172 1.23819 44.2373 1.2807 44.38 1.34316C44.3801 1.34322 44.3803 1.34328 44.3804 1.34333L44.4071 1.28227L42.4725 1.27567ZM42.4725 1.27567L42.4715 1.27382M42.4725 1.27567L42.4715 1.27382M42.4715 1.27382C42.4556 1.24429 42.4159 1.20884 42.3575 1.18014C42.3005 1.15214 42.235 1.13522 42.1775 1.13522C41.9171 1.13522 41.7101 1.07339 41.5805 0.94168C41.4483 0.807475 41.4102 0.61527 41.457 0.387774C41.4571 0.387587 41.4571 0.387402 41.4572 0.387215L41.5176 0.0666332H40.7928C40.3444 0.079958 39.8144 0.172424 39.5727 0.27425M42.4715 1.27382L39.5727 0.27425M39.5727 0.27425C39.4474 0.336874 39.2857 0.391445 39.1287 0.428806C38.9723 0.466034 38.8144 0.487696 38.6979 0.480658L39.5727 0.27425Z" stroke="#D9D9D9" stroke-opacity="0.01" stroke-width="0.133333"/>
<path d="M31.4195 2.39079C30.6511 2.59115 29.8575 3.05865 29.3662 3.6063C27.6153 5.5164 27.716 8.82901 29.5804 10.5655C31.0416 11.9279 33.8381 11.9413 35.3875 10.5788L35.7025 10.3117L35.3497 9.96438C35.1608 9.77738 34.9718 9.61709 34.934 9.61709C34.9089 9.61709 34.6695 9.76402 34.405 9.93766C33.6996 10.4185 33.0445 10.5922 32.1879 10.5254C30.4244 10.3651 29.3536 9.18966 29.2403 7.27956C29.1773 6.11748 29.3536 5.38282 29.8827 4.66153C30.8275 3.36587 32.5784 3.01858 34.1278 3.83338C34.8963 4.2341 34.9466 4.24745 35.2238 4.03374C35.6395 3.71316 35.5387 3.45937 34.7703 2.97851C33.7751 2.35072 32.4777 2.12364 31.4195 2.39079Z" fill="white" fill-opacity="0.75"/>
<path d="M29.8289 4.62214C30.7955 3.29664 32.5838 2.94615 34.1588 3.77432C34.3511 3.87463 34.4969 3.94982 34.6123 4.0033C34.7283 4.05706 34.8091 4.08666 34.8723 4.09843C34.9326 4.10969 34.9759 4.10446 35.0187 4.08714C35.0648 4.06846 35.1134 4.0347 35.1831 3.98094C35.2839 3.9032 35.346 3.83484 35.3763 3.77217C35.4049 3.7133 35.4069 3.65657 35.3797 3.59222C35.3508 3.52411 35.288 3.44527 35.1801 3.3515C35.0728 3.25837 34.9258 3.15445 34.7349 3.03502L34.7347 3.03489C33.7538 2.41606 32.475 2.19315 31.4361 2.45536C30.6792 2.65278 29.8975 3.11388 29.4159 3.65082L29.4159 3.65082L29.4154 3.65135C27.6884 5.53527 27.7891 8.80593 29.6258 10.5167L29.6258 10.5167C30.3414 11.1839 31.3883 11.524 32.4511 11.5273C33.5137 11.5306 34.5834 11.1971 35.3435 10.5288L35.3435 10.5287L35.3444 10.528L35.6037 10.308L35.303 10.0119L35.3028 10.0118C35.2093 9.91921 35.1162 9.83368 35.0423 9.77167C35.0053 9.74055 34.974 9.71616 34.9505 9.69991C34.9438 9.69531 34.9382 9.69164 34.9335 9.68879C34.9271 9.69199 34.9193 9.69612 34.91 9.70124C34.8812 9.71701 34.8416 9.74019 34.7939 9.76921C34.6988 9.82706 34.5737 9.90664 34.442 9.99308C33.7242 10.4823 33.0542 10.6598 32.1827 10.5919L32.1819 10.5918C31.2862 10.5104 30.5611 10.1704 30.0459 9.60349C29.5311 9.03708 29.2311 8.25002 29.1737 7.28351L29.1737 7.28317C29.1101 6.11073 29.2882 5.35938 29.8289 4.62214ZM29.8289 4.62214C29.8289 4.62218 29.8289 4.62221 29.8288 4.62225L29.8827 4.66153L29.8289 4.6221C29.8289 4.62211 29.8289 4.62213 29.8289 4.62214ZM34.9488 9.68172C34.9488 9.68174 34.9486 9.68179 34.9485 9.68185C34.9491 9.68166 34.9495 9.68153 34.9494 9.68155C34.9493 9.68155 34.9492 9.68161 34.9488 9.68172Z" stroke="#D9D9D9" stroke-opacity="0.01" stroke-width="0.133333"/>
<path d="M3.65618 2.96517C3.53021 3.28574 2.68622 5.28934 1.76665 7.42651C0.85967 9.56368 0.116455 11.3669 0.116455 11.407C0.116455 11.4604 0.355796 11.4871 0.645524 11.4604C1.17459 11.4203 1.18719 11.407 1.61548 10.4453L2.05637 9.48353H4.48757H6.91877L7.10772 9.99111C7.599 11.3001 7.69977 11.4203 8.27923 11.4604C8.56896 11.4871 8.8083 11.4738 8.8083 11.4471C8.8083 11.3803 7.14551 7.42651 5.72206 4.10054L4.99144 2.40416H4.43718C3.90811 2.40416 3.88292 2.43088 3.65618 2.96517ZM5.40714 5.87706C5.91102 7.09258 6.33931 8.16116 6.3771 8.2413C6.42749 8.37488 5.99919 8.41495 4.47497 8.41495C3.39164 8.41495 2.50986 8.38823 2.50986 8.36152C2.50986 8.33481 2.93815 7.27958 3.45463 5.99728C3.9711 4.72833 4.39939 3.65975 4.39939 3.61968C4.39939 3.47275 4.55055 3.80668 5.40714 5.87706Z" fill="white" fill-opacity="0.75"/>
<path d="M0.639403 11.394L0.639402 11.394L0.640489 11.3939C0.90982 11.3735 1.0177 11.3596 1.12009 11.2524C1.17452 11.1954 1.22922 11.1095 1.29821 10.9738C1.36694 10.8385 1.44727 10.6591 1.55458 10.4181L1.55458 10.4181L1.55488 10.4175L1.99577 9.45575L2.0136 9.41687H2.05637H4.48757H6.91877H6.96508L6.98124 9.46027L7.17013 9.96769C7.17015 9.96774 7.17017 9.96779 7.17019 9.96784C7.29299 10.295 7.39075 10.5462 7.4774 10.7401C7.56426 10.9344 7.63828 11.0673 7.71245 11.16C7.78527 11.2509 7.85805 11.3029 7.94443 11.3357C8.03326 11.3693 8.13982 11.3839 8.28383 11.3939L8.28383 11.3939L8.28535 11.394C8.42781 11.4072 8.55724 11.4104 8.65009 11.4071C8.6786 11.4062 8.70294 11.4046 8.72276 11.4026C8.71063 11.3706 8.69368 11.3273 8.67214 11.2733C8.62404 11.1527 8.55365 10.9801 8.46461 10.7641C8.28657 10.3323 8.0343 9.72804 7.73751 9.02182C7.14396 7.60945 6.37247 5.78971 5.66082 4.12688C5.6608 4.12684 5.66079 4.12681 5.66077 4.12677L4.94757 2.47083H4.43718C4.30425 2.47083 4.20791 2.47259 4.13276 2.48275C4.05894 2.49273 4.01096 2.5102 3.97258 2.53818C3.93352 2.56665 3.89829 2.61043 3.85794 2.68413C3.81741 2.75814 3.77473 2.85647 3.7179 2.99039C3.59032 3.3148 2.74654 5.31781 1.82795 7.45271C1.37456 8.52107 0.962111 9.50593 0.663035 10.2286C0.513481 10.5901 0.392325 10.8858 0.308589 11.0936C0.266704 11.1975 0.234278 11.2792 0.212367 11.3361C0.205242 11.3546 0.199296 11.3702 0.194532 11.3831C0.214475 11.3885 0.242755 11.3936 0.279257 11.3974C0.369928 11.4069 0.497684 11.4071 0.639403 11.394ZM8.74281 11.4588L8.74281 11.4588C8.74298 11.4596 8.74312 11.4601 8.74314 11.4601C8.74316 11.4601 8.74307 11.4597 8.74281 11.4588ZM6.4374 8.21287L6.43759 8.21278L6.43948 8.21777C6.45244 8.25215 6.45121 8.29124 6.42669 8.32574C6.40574 8.35522 6.37289 8.37375 6.34005 8.38677C6.27345 8.41316 6.16851 8.43122 6.0226 8.4446C5.72776 8.47164 5.2366 8.48162 4.47497 8.48162C3.93284 8.48162 3.44092 8.47493 3.08429 8.46489C2.90609 8.45988 2.76112 8.45401 2.66038 8.44767C2.61023 8.44452 2.5699 8.44118 2.54157 8.43763C2.5278 8.43591 2.51466 8.43387 2.50402 8.43124C2.49923 8.43005 2.49122 8.42787 2.48308 8.42389C2.47919 8.42198 2.47153 8.41789 2.46396 8.4105C2.45638 8.40311 2.44319 8.38657 2.44319 8.36152C2.44319 8.35333 2.44475 8.34654 2.44512 8.34494L2.44516 8.34477L2.44713 8.33728C2.44837 8.33304 2.44998 8.32814 2.45174 8.32302C2.45531 8.31261 2.46042 8.29858 2.46685 8.28144C2.47976 8.24703 2.49866 8.19822 2.5228 8.13678C2.57112 8.01381 2.64088 7.83913 2.7267 7.6254C2.82922 7.37008 2.9548 7.05872 3.09432 6.71275C3.1884 6.4795 3.28881 6.23051 3.39279 5.97237L3.39288 5.97214C3.65109 5.33773 3.88721 4.75352 4.05875 4.32297C4.14454 4.10766 4.21409 3.93099 4.26216 3.80575C4.28622 3.74307 4.30475 3.69364 4.31721 3.65883C4.32347 3.64135 4.32799 3.62812 4.33088 3.61897L4.33282 3.6124C4.33309 3.60301 4.33401 3.59204 4.33673 3.58147C4.33845 3.5748 4.34196 3.56381 4.34989 3.55289C4.35869 3.54077 4.37435 3.5272 4.39749 3.52367C4.41883 3.52041 4.43579 3.52741 4.44512 3.53263C4.45462 3.53794 4.46178 3.54446 4.46654 3.5493C4.47612 3.55905 4.48479 3.57122 4.49252 3.58329C4.52327 3.63126 4.57093 3.72873 4.6429 3.88966C4.78824 4.21463 5.04058 4.81669 5.46874 5.85157C5.75789 6.54909 6.02131 7.19612 6.20063 7.6366C6.33458 7.96562 6.42161 8.17939 6.4374 8.21287Z" stroke="#D9D9D9" stroke-opacity="0.01" stroke-width="0.133333"/>
<path d="M10.1941 6.94558V11.4871H10.698H11.2018V6.94558V2.40409H10.698H10.1941V6.94558Z" fill="white" fill-opacity="0.75"/>
<path d="M10.2608 6.94558V11.4204H10.698H11.1352V6.94558V2.47076H10.698H10.2608V6.94558Z" stroke="#D9D9D9" stroke-opacity="0.01" stroke-width="0.133333"/>
<path d="M12.5872 2.93839V3.47268H14.0358H15.4844V7.47987V11.4871H15.9883H16.4922V7.47987V3.47268H17.9534H19.4021L19.3643 2.9651L19.3265 2.47088L15.9631 2.43081L12.5872 2.40409V2.93839Z" fill="white" fill-opacity="0.75"/>
<path d="M15.9623 2.49747L12.6538 2.47129V2.93839V3.40601H14.0358H15.4844H15.5511V3.47268V7.47987V11.4204H15.9883H16.4255V7.47987V3.47268V3.40601H16.4922H17.9534H19.3303L19.2978 2.97018L19.2978 2.97005L19.2647 2.53681L15.9626 2.49747L15.9623 2.49747Z" stroke="#D9D9D9" stroke-opacity="0.01" stroke-width="0.133333"/>
<path d="M20.7501 2.53767C20.7375 2.60445 20.7249 4.64812 20.7501 7.07915L20.7879 11.4871H23.7986H26.8218V10.9528V10.4185H24.3025H21.7831V8.88239V7.3463H24.1135H26.4439V6.812V6.27771H24.1135H21.7831V4.87519V3.47268H24.2521H26.7085L26.6707 2.9651L26.6329 2.47088L23.7104 2.43081C21.8209 2.41745 20.7879 2.44417 20.7501 2.53767Z" fill="white" fill-opacity="0.75"/>
<path d="M23.7986 11.4204H26.7552V10.9528V10.4851H24.3025H21.7831H21.7164V10.4185V8.88239V7.3463V7.27963H21.7831H24.1135H26.3773V6.812V6.34438H24.1135H21.7831H21.7164V6.27771V4.87519V3.47268V3.40601H21.7831H24.2521H26.6366L26.6042 2.97018L26.6042 2.97005L26.5711 2.5367L23.7099 2.49747C23.7099 2.49747 23.7098 2.49747 23.7097 2.49747C22.7652 2.4908 22.0358 2.49415 21.5381 2.51079C21.289 2.51913 21.0995 2.53075 20.9707 2.54586C20.9059 2.55345 20.8589 2.56166 20.8282 2.57002C20.8228 2.57147 20.8183 2.57284 20.8145 2.5741C20.8144 2.57461 20.8144 2.57513 20.8144 2.57566C20.8136 2.5943 20.8129 2.62041 20.8121 2.65377C20.8106 2.72041 20.8092 2.81491 20.8079 2.9343C20.8054 3.17301 20.8034 3.51049 20.8026 3.92194C20.8011 4.74483 20.8042 5.86323 20.8168 7.07846L20.8168 7.07858L20.854 11.4204H23.7986Z" stroke="#D9D9D9" stroke-opacity="0.01" stroke-width="0.133333"/>
<path d="M49.3701 11.8217C49.2694 12.0087 49.0678 12.1957 48.9041 12.2358C48.6773 12.3025 48.6143 12.4094 48.6269 12.7433C48.6269 12.9704 48.5891 13.3311 48.5513 13.5581C48.4506 14.0924 48.7151 14.5065 49.0174 14.2661C49.2568 14.0657 49.8488 12.0755 49.7732 11.7148C49.7103 11.3942 49.5717 11.4343 49.3701 11.8217Z" fill="white" fill-opacity="0.75"/>
<path d="M49.6441 11.5666L49.6435 11.5666L49.6411 11.5671C49.6289 11.5704 49.602 11.587 49.5615 11.638C49.5229 11.6865 49.4787 11.7574 49.4293 11.8525L49.4293 11.8525L49.4288 11.8533C49.3744 11.9543 49.2938 12.0537 49.2053 12.1334C49.1182 12.2118 49.0179 12.2761 48.9215 12.3001C48.816 12.3314 48.764 12.3675 48.7341 12.4217C48.7012 12.4811 48.6873 12.5748 48.6935 12.7408L48.6936 12.7408V12.7433C48.6936 12.9752 48.6553 13.3397 48.6171 13.5691L48.6171 13.5691L48.6169 13.5705C48.5686 13.8265 48.6099 14.0446 48.6891 14.1662C48.7283 14.2265 48.7731 14.2579 48.8162 14.2667C48.8577 14.2751 48.9111 14.2652 48.9752 14.2145C48.994 14.1984 49.0241 14.1564 49.0627 14.0828C49.1001 14.0113 49.1417 13.918 49.1852 13.8089C49.2722 13.5909 49.3657 13.3141 49.4495 13.0316C49.5334 12.7491 49.6072 12.4622 49.6553 12.2242C49.6794 12.1052 49.6969 11.9993 49.706 11.9128C49.7153 11.8242 49.7151 11.7626 49.708 11.7285L49.7078 11.7277C49.6926 11.6501 49.6743 11.6039 49.6576 11.5804C49.6498 11.5693 49.6449 11.5669 49.6443 11.5666C49.6442 11.5666 49.6442 11.5666 49.6442 11.5666M49.6441 11.5666C49.6441 11.5666 49.6441 11.5665 49.6442 11.5666M49.6441 11.5666L49.6442 11.5666M49.6441 11.5666L49.6442 11.5666" stroke="#D9D9D9" stroke-opacity="0.01" stroke-width="0.133333"/>
<path d="M0.368324 14.7734C-0.0221795 15.7084 -0.122954 16.1225 0.166774 15.7218C0.280145 15.5748 0.506889 15.4947 0.872198 15.4947C1.23751 15.4947 1.46425 15.5748 1.57762 15.7218C1.86735 16.1358 1.77917 15.6683 1.38867 14.76C1.17452 14.2792 0.960377 13.8918 0.884795 13.8918C0.809214 13.8918 0.58247 14.2925 0.368324 14.7734ZM1.09894 14.6265C1.32569 15.1341 1.2879 15.2276 0.872198 15.2276C0.670648 15.2276 0.494292 15.2008 0.494292 15.1741C0.494292 15.0005 0.78402 14.2925 0.859602 14.2925C0.909989 14.2925 1.02336 14.4395 1.09894 14.6265Z" fill="white" fill-opacity="0.75"/>
<path d="M0.112749 15.6827L0.112723 15.6827L0.113993 15.681C0.247159 15.5085 0.501823 15.428 0.872198 15.428C1.24257 15.428 1.49724 15.5085 1.6304 15.681L1.63046 15.681L1.63225 15.6836C1.64589 15.7031 1.65843 15.7202 1.66988 15.7351C1.63319 15.56 1.51733 15.2281 1.32759 14.7868C1.22108 14.5476 1.11509 14.3329 1.0269 14.1787C0.982616 14.1013 0.943874 14.0409 0.912652 14.0008C0.90164 13.9866 0.89235 13.9759 0.884819 13.9683C0.87675 13.9764 0.866745 13.9878 0.854853 14.003C0.822382 14.0445 0.782037 14.1066 0.7362 14.1857C0.644934 14.3432 0.535898 14.561 0.429541 14.7998C0.251921 15.2251 0.136331 15.538 0.0895183 15.7142C0.0968742 15.7044 0.104616 15.694 0.112749 15.6827ZM1.1603 14.6004C1.21697 14.7273 1.25874 14.8319 1.28195 14.917C1.30468 15.0004 1.31316 15.0771 1.28879 15.1411C1.26212 15.2111 1.20341 15.2491 1.13319 15.2691C1.06516 15.2885 0.976851 15.2942 0.872198 15.2942C0.768864 15.2942 0.671136 15.2874 0.598124 15.2768C0.56205 15.2716 0.529565 15.2652 0.504788 15.2573C0.492875 15.2535 0.478975 15.2482 0.466719 15.2405C0.459386 15.2359 0.427626 15.2152 0.427626 15.1741C0.427626 15.1192 0.449034 15.0332 0.477106 14.9433C0.506146 14.8502 0.545437 14.7436 0.586966 14.6428C0.628415 14.5422 0.672757 14.4459 0.712149 14.3739C0.731677 14.3382 0.751117 14.3064 0.769368 14.2826C0.778373 14.2709 0.788771 14.259 0.800368 14.2493C0.809871 14.2414 0.830789 14.2259 0.859602 14.2259C0.881292 14.2259 0.899851 14.2335 0.91307 14.2406C0.926934 14.2482 0.939939 14.258 0.951771 14.2685C0.975457 14.2894 0.999878 14.3176 1.02358 14.35C1.07105 14.4147 1.1207 14.5027 1.1603 14.6004Z" stroke="#D9D9D9" stroke-opacity="0.01" stroke-width="0.133333"/>
<path d="M2.13184 14.8933C2.13184 15.4677 2.18222 15.8951 2.2578 15.8951C2.33339 15.8951 2.38377 15.4677 2.38377 14.8933C2.38377 14.319 2.33339 13.8915 2.2578 13.8915C2.18222 13.8915 2.13184 14.319 2.13184 14.8933Z" fill="white" fill-opacity="0.75"/>
<path d="M2.1985 14.8933C2.1985 15.179 2.21105 15.4265 2.23264 15.6015C2.24022 15.6629 2.24874 15.7139 2.2578 15.7538C2.26687 15.7139 2.27539 15.6629 2.28297 15.6015C2.30455 15.4265 2.31711 15.179 2.31711 14.8933C2.31711 14.6077 2.30455 14.3602 2.28297 14.1852C2.27539 14.1238 2.26687 14.0728 2.2578 14.0329C2.24874 14.0728 2.24022 14.1238 2.23264 14.1852C2.21105 14.3602 2.1985 14.6077 2.1985 14.8933ZM2.28735 15.8402C2.28735 15.8402 2.28715 15.8399 2.28674 15.8395L2.28735 15.8402ZM2.22826 13.9464C2.22826 13.9465 2.22846 13.9467 2.22886 13.9472L2.22826 13.9464Z" stroke="#D9D9D9" stroke-opacity="0.01" stroke-width="0.133333"/>
<path d="M3.3916 14.0251C3.3916 14.0919 3.53017 14.1587 3.70652 14.1587C4.00885 14.1587 4.02145 14.1854 4.02145 15.0269C4.02145 15.5211 4.07183 15.8951 4.14741 15.8951C4.223 15.8951 4.27338 15.5211 4.27338 15.0269C4.27338 14.2522 4.29858 14.1587 4.51272 14.1587C4.65129 14.1587 4.80245 14.0919 4.84024 14.0251C4.89063 13.945 4.62609 13.8915 4.16001 13.8915C3.73172 13.8915 3.3916 13.945 3.3916 14.0251Z" fill="white" fill-opacity="0.75"/>
<path d="M4.68853 14.0555C4.72104 14.0418 4.74476 14.0274 4.76044 14.0149C4.7426 14.0082 4.71661 14.0008 4.68086 13.9937C4.56912 13.9716 4.39155 13.9582 4.16001 13.9582C3.94805 13.9582 3.75994 13.9715 3.62629 13.994C3.55888 14.0054 3.50889 14.0186 3.47736 14.0319C3.47533 14.0327 3.47345 14.0335 3.4717 14.0343C3.48046 14.041 3.49299 14.0485 3.50987 14.056C3.55671 14.0767 3.62601 14.092 3.70652 14.092C3.77941 14.092 3.84915 14.093 3.90576 14.1133C3.97079 14.1365 4.01375 14.1827 4.03996 14.2543C4.06421 14.3206 4.07542 14.4117 4.08134 14.533C4.08734 14.6558 4.08811 14.8169 4.08811 15.0269C4.08811 15.2723 4.10065 15.4859 4.12209 15.637C4.12977 15.6911 4.13838 15.7355 4.14741 15.7698C4.15645 15.7355 4.16505 15.6911 4.17274 15.637C4.19418 15.4859 4.20672 15.2723 4.20672 15.0269C4.20672 14.8332 4.20828 14.6807 4.21408 14.5612C4.21983 14.4426 4.22989 14.3521 4.24847 14.2846C4.26727 14.2163 4.2972 14.1626 4.34894 14.1293C4.39841 14.0975 4.45671 14.092 4.51272 14.092C4.57212 14.092 4.63582 14.0775 4.68853 14.0555Z" stroke="#D9D9D9" stroke-opacity="0.01" stroke-width="0.133333"/>
<path d="M5.15527 14.8933V15.8951H5.8481C6.22601 15.8951 6.54093 15.8284 6.54093 15.7616C6.54093 15.6814 6.28899 15.628 5.97407 15.628C5.4576 15.628 5.40721 15.6013 5.40721 15.2941C5.40721 14.9868 5.4576 14.9601 5.91109 14.9601C6.18822 14.9601 6.41496 14.8933 6.41496 14.8266C6.41496 14.7464 6.18822 14.693 5.91109 14.693C5.49539 14.693 5.40721 14.6529 5.40721 14.4258C5.40721 14.1988 5.49539 14.1587 5.89849 14.1587C6.17562 14.1587 6.44015 14.0919 6.47794 14.0251C6.52833 13.945 6.28899 13.8915 5.8607 13.8915H5.15527V14.8933Z" fill="white" fill-opacity="0.75"/>
<path d="M5.8607 13.9582H5.22194V14.8933V15.8285H5.8481C6.03363 15.8285 6.20237 15.812 6.32323 15.788C6.37495 15.7777 6.41574 15.7665 6.44461 15.7555C6.42428 15.7467 6.39642 15.7379 6.36075 15.7297C6.26488 15.7078 6.12852 15.6947 5.97407 15.6947C5.84513 15.6947 5.74222 15.693 5.66134 15.6854C5.58157 15.6779 5.51486 15.6639 5.46333 15.6338C5.40747 15.6012 5.37563 15.5534 5.35895 15.4938C5.34343 15.4383 5.34054 15.3707 5.34054 15.2941C5.34054 15.2172 5.34349 15.1503 5.35762 15.0956C5.37259 15.0377 5.40106 14.9896 5.45273 14.956C5.5008 14.9247 5.56241 14.9104 5.63397 14.9028C5.70643 14.8951 5.7979 14.8935 5.91109 14.8935C6.04493 14.8935 6.16481 14.8773 6.24932 14.8541C6.28583 14.8441 6.31329 14.8334 6.33177 14.8236C6.31413 14.814 6.28724 14.8037 6.25042 14.7943C6.16621 14.7727 6.04619 14.7597 5.91109 14.7597C5.80661 14.7597 5.7202 14.7572 5.64973 14.7494C5.57989 14.7418 5.52034 14.7285 5.47256 14.7037C5.42212 14.6776 5.38687 14.6396 5.36588 14.5889C5.34611 14.5411 5.34054 14.4856 5.34054 14.4258C5.34054 14.3661 5.34613 14.3107 5.36556 14.2631C5.38617 14.2126 5.42078 14.1746 5.47046 14.1482C5.51754 14.1233 5.57603 14.1099 5.64422 14.1023C5.71301 14.0945 5.79714 14.092 5.89849 14.092C6.03219 14.092 6.16242 14.0759 6.26257 14.0521C6.31279 14.0402 6.35362 14.0268 6.38285 14.0135C6.38607 14.012 6.38908 14.0106 6.39189 14.0092C6.37772 14.0041 6.35891 13.9987 6.33461 13.9934C6.23453 13.9716 6.07325 13.9582 5.8607 13.9582Z" stroke="#D9D9D9" stroke-opacity="0.01" stroke-width="0.133333"/>
<path d="M7.04468 14.2524C6.40223 15.1206 7.24623 16.2159 8.22878 15.8152C8.60669 15.6549 8.43033 15.5213 7.93905 15.5881C7.51076 15.6549 7.42258 15.6148 7.23363 15.3076C7.04468 15.0137 7.03208 14.8802 7.15805 14.613C7.32181 14.2123 7.77529 14.0119 8.09022 14.1856C8.35475 14.3325 8.49332 14.2524 8.36735 14.0387C8.32956 13.9585 8.06502 13.8917 7.80049 13.8917C7.42258 13.8917 7.25882 13.9719 7.04468 14.2524Z" fill="white" fill-opacity="0.75"/>
<path d="M8.09022 14.1856C8.35475 14.3325 8.49332 14.2524 8.36735 14.0387L7.04468 14.2524C6.40223 15.1206 7.24623 16.2159 8.22878 15.8152C8.60669 15.6549 8.43033 15.5213 7.93905 15.5881C7.51076 15.6549 7.42258 15.6148 7.23363 15.3076C7.04468 15.0137 7.03208 14.8802 7.15805 14.613C7.32181 14.2123 7.77529 14.0119 8.09022 14.1856ZM7.09797 14.2924C6.49456 15.1086 7.28602 16.1273 8.20318 15.7536C8.29075 15.7164 8.33795 15.6845 8.35821 15.6629C8.33939 15.654 8.30214 15.6438 8.24002 15.6394C8.16626 15.6342 8.06811 15.6379 7.94867 15.6541C7.73708 15.687 7.59016 15.6978 7.47162 15.6499C7.35014 15.6009 7.2711 15.4957 7.17719 15.3431C7.08189 15.1948 7.02419 15.077 7.01145 14.9574C6.99854 14.8361 7.03269 14.7229 7.09701 14.5862C7.18568 14.3704 7.35213 14.2083 7.53993 14.1232C7.72792 14.038 7.94269 14.0281 8.12241 14.1272L8.12259 14.1273C8.18479 14.1619 8.23653 14.1813 8.27612 14.1893C8.31736 14.1977 8.33711 14.1922 8.34326 14.1889C8.34331 14.1888 8.34338 14.1888 8.34347 14.1888C8.34448 14.1884 8.34796 14.1873 8.34773 14.1736C8.34741 14.1546 8.33861 14.1212 8.30991 14.0725L8.30967 14.0727L8.30705 14.0671C8.30709 14.0672 8.30705 14.0671 8.30689 14.0669C8.30563 14.0654 8.29737 14.0554 8.26965 14.0412C8.24128 14.0267 8.20148 14.0123 8.15235 13.9997C8.05438 13.9745 7.92774 13.9584 7.80049 13.9584C7.61539 13.9584 7.4917 13.9782 7.38999 14.027C7.28882 14.0755 7.2021 14.1561 7.09797 14.2924ZM8.36682 15.6515C8.36682 15.6515 8.36679 15.6516 8.36675 15.6517L8.36682 15.6515Z" stroke="#D9D9D9" stroke-opacity="0.01" stroke-width="0.133333"/>
<path d="M8.80811 14.8132C8.80811 15.3341 8.87109 15.7883 8.93407 15.8284C9.00966 15.8818 9.06004 15.7215 9.06004 15.441C9.06004 14.9601 9.06004 14.9601 9.6269 14.9601C10.1938 14.9601 10.1938 14.9601 10.1938 15.4276C10.1938 15.6814 10.2567 15.8951 10.3197 15.8951C10.3953 15.8951 10.4457 15.4677 10.4457 14.8933C10.4457 14.319 10.3953 13.8915 10.3197 13.8915C10.2567 13.8915 10.1938 14.0652 10.1938 14.2923C10.1938 14.6796 10.1686 14.693 9.6269 14.693C9.08524 14.693 9.06004 14.6796 9.06004 14.2923C9.06004 14.0652 9.00966 13.8915 8.93407 13.8915C8.85849 13.8915 8.80811 14.2923 8.80811 14.8132Z" fill="white" fill-opacity="0.75"/>
<path d="M8.95231 15.7092C8.95547 15.7212 8.95854 15.7318 8.96149 15.7409C8.96164 15.7404 8.96179 15.7399 8.96194 15.7395C8.98078 15.681 8.99338 15.5791 8.99338 15.441L8.99338 15.4361C8.99337 15.32 8.99337 15.2263 9.0028 15.1543C9.01245 15.0806 9.03354 15.0154 9.08777 14.9694C9.13969 14.9254 9.21065 14.909 9.29293 14.9013C9.37578 14.8935 9.48461 14.8935 9.62315 14.8935H9.6269H9.63055C9.76918 14.8935 9.87794 14.8935 9.9607 14.901C10.0428 14.9086 10.1135 14.9244 10.1653 14.9671C10.2199 15.0122 10.2412 15.0762 10.251 15.1485C10.2604 15.2187 10.2604 15.31 10.2604 15.4226V15.4276C10.2604 15.5497 10.2756 15.6604 10.2974 15.7387C10.3022 15.7562 10.3072 15.7714 10.3121 15.7843C10.324 15.7412 10.3352 15.6798 10.3449 15.6015C10.3665 15.4265 10.379 15.179 10.379 14.8933C10.379 14.6077 10.3665 14.3602 10.3449 14.1852C10.3345 14.1012 10.3224 14.0367 10.3095 13.9933C10.3052 14.003 10.3008 14.0144 10.2965 14.0276C10.2755 14.0913 10.2604 14.1842 10.2604 14.2923C10.2604 14.3878 10.2591 14.4679 10.2468 14.531C10.234 14.5969 10.2077 14.6534 10.1517 14.6925C10.0998 14.7288 10.0311 14.7437 9.95016 14.7512C9.86796 14.7589 9.76155 14.7597 9.6269 14.7597C9.49225 14.7597 9.38585 14.7589 9.30364 14.7512C9.22274 14.7437 9.15405 14.7288 9.10214 14.6925C9.04614 14.6534 9.0198 14.5969 9.007 14.531C8.99474 14.4679 8.99338 14.3878 8.99338 14.2923C8.99338 14.1827 8.98112 14.0897 8.96167 14.0263C8.95633 14.0089 8.9508 13.995 8.94551 13.9841C8.93225 14.0238 8.91961 14.085 8.90883 14.1658C8.88731 14.3272 8.87477 14.5544 8.87477 14.8132C8.87477 15.0713 8.89039 15.3122 8.91359 15.4926C8.92522 15.583 8.93856 15.6567 8.95231 15.7092ZM10.2902 13.9464C10.2902 13.9465 10.2904 13.9467 10.2908 13.9472L10.2902 13.9464ZM10.3329 13.9551C10.3334 13.9548 10.3336 13.9546 10.3336 13.9546L10.3329 13.9551Z" stroke="#D9D9D9" stroke-opacity="0.01" stroke-width="0.133333"/>
<path d="M10.9497 14.8533C10.9497 16.0154 11.1639 16.2825 11.2268 15.2006L11.2646 14.4926L11.7685 15.1872C12.0456 15.5746 12.3102 15.8818 12.3732 15.8951C12.4235 15.8951 12.4613 15.441 12.4613 14.8933C12.4613 14.319 12.4109 13.8915 12.3354 13.8915C12.2724 13.8915 12.2094 14.2388 12.2094 14.6529L12.1968 15.4276L11.9197 15.0269C11.7685 14.8132 11.4914 14.4526 11.3024 14.2255L10.9623 13.8248L10.9497 14.8533Z" fill="white" fill-opacity="0.75"/>
<path d="M12.3374 15.7854C12.34 15.7879 12.3424 15.7903 12.3448 15.7925C12.3539 15.7455 12.3624 15.6781 12.3697 15.5939C12.3853 15.4143 12.3947 15.1659 12.3947 14.8933C12.3947 14.6077 12.3821 14.3602 12.3605 14.1852C12.3528 14.1225 12.3441 14.0706 12.3348 14.0303C12.3278 14.0577 12.3209 14.0904 12.3145 14.1282C12.2916 14.2623 12.2761 14.4488 12.2761 14.6529L12.2761 14.654L12.2635 15.4287L12.2601 15.6363L12.142 15.4656L11.865 15.0651C11.7149 14.853 11.4392 14.4941 11.2514 14.2684C11.2513 14.2683 11.2512 14.2682 11.2512 14.2681L11.0268 14.0038L11.0164 14.8537C11.0164 15.1422 11.0297 15.3738 11.0503 15.5418C11.0607 15.626 11.0727 15.6929 11.0854 15.7426C11.0869 15.7484 11.0883 15.7539 11.0898 15.7591C11.0907 15.7558 11.0916 15.7525 11.0925 15.749C11.1197 15.6468 11.1446 15.4662 11.1603 15.1968C11.1603 15.1968 11.1603 15.1967 11.1603 15.1967L11.1981 14.4891L11.2081 14.3012L11.3186 14.4535L11.8225 15.1481L11.8225 15.1481L11.8227 15.1484C11.9604 15.3409 12.0946 15.5129 12.2018 15.6381C12.2554 15.7007 12.3016 15.7508 12.3374 15.7854ZM12.3058 13.9464C12.3058 13.9465 12.306 13.9467 12.3064 13.9472L12.3058 13.9464ZM12.3654 13.947C12.3658 13.9466 12.366 13.9463 12.366 13.9463C12.366 13.9463 12.3658 13.9465 12.3654 13.947Z" stroke="#D9D9D9" stroke-opacity="0.01" stroke-width="0.133333"/>
<path d="M13.1039 14.2388C12.9527 14.4392 12.8394 14.7331 12.8394 14.8933C12.8394 15.4009 13.3054 15.8951 13.7967 15.8951C14.3636 15.8951 14.7289 15.5078 14.7289 14.8933C14.7289 13.9316 13.6456 13.5042 13.1039 14.2388ZM14.1998 14.2388C14.3888 14.3724 14.4769 14.5728 14.4769 14.88C14.4769 15.4143 14.288 15.628 13.8093 15.628C13.1417 15.628 12.852 14.8132 13.3432 14.2923C13.6456 13.9717 13.8219 13.9583 14.1998 14.2388Z" fill="white" fill-opacity="0.75"/>
<path d="M13.1575 14.2784L13.1576 14.2784L13.1571 14.279C13.0857 14.3736 13.0223 14.4917 12.9769 14.6058C12.9309 14.7212 12.906 14.8256 12.906 14.8933C12.906 15.1272 13.0138 15.3618 13.1821 15.5386C13.3505 15.7156 13.5733 15.8285 13.7967 15.8285C14.0643 15.8285 14.2788 15.7375 14.4267 15.5792C14.575 15.4204 14.6622 15.1875 14.6622 14.8933C14.6622 14.4393 14.4076 14.1168 14.0948 13.9919C13.7831 13.8673 13.4095 13.9366 13.1575 14.2784ZM14.2389 14.1849C14.4503 14.3346 14.5436 14.5587 14.5436 14.88C14.5436 15.1521 14.4961 15.3598 14.3724 15.4987C14.247 15.6395 14.0569 15.6947 13.8093 15.6947C13.4446 15.6947 13.1818 15.4706 13.0788 15.1776C12.9761 14.8854 13.0319 14.5253 13.2947 14.2465C13.4472 14.0848 13.5824 13.9837 13.7389 13.9736C13.8938 13.9636 14.0495 14.0443 14.2389 14.1849Z" stroke="#D9D9D9" stroke-opacity="0.01" stroke-width="0.133333"/>
<path d="M15.1064 14.8933V15.8951H15.7363C16.089 15.8951 16.3661 15.8284 16.3661 15.7616C16.3661 15.6814 16.1394 15.628 15.8623 15.628H15.3584V14.7598C15.3584 14.2656 15.308 13.8915 15.2324 13.8915C15.1568 13.8915 15.1064 14.319 15.1064 14.8933Z" fill="white" fill-opacity="0.75"/>
<path d="M15.1731 14.8933V15.8285H15.7363C15.909 15.8285 16.0615 15.8121 16.1691 15.7883C16.2164 15.7779 16.2526 15.7665 16.2773 15.7557C16.2598 15.747 16.2347 15.7378 16.2016 15.7293C16.1174 15.7078 15.9974 15.6947 15.8623 15.6947H15.3584H15.2917V15.628V14.7598C15.2917 14.5144 15.2792 14.3008 15.2577 14.1497C15.2506 14.0995 15.2427 14.0576 15.2344 14.0245C15.2246 14.0656 15.2154 14.1194 15.2073 14.1852C15.1857 14.3602 15.1731 14.6077 15.1731 14.8933Z" stroke="#D9D9D9" stroke-opacity="0.01" stroke-width="0.133333"/>
<path d="M16.8701 14.1587C16.7189 14.319 16.6182 14.5995 16.6182 14.8933C16.6182 15.5078 16.9835 15.8951 17.5503 15.8951C18.0416 15.8951 18.5077 15.4009 18.5077 14.8933C18.5077 14.7331 18.3943 14.4392 18.2432 14.2388C17.9156 13.798 17.248 13.758 16.8701 14.1587ZM18.0038 14.2923C18.4951 14.8132 18.2054 15.628 17.5125 15.628C17.0591 15.628 16.8701 15.4009 16.8701 14.88C16.8701 14.5728 16.9583 14.3724 17.1472 14.2388C17.5251 13.9583 17.7015 13.9717 18.0038 14.2923Z" fill="white" fill-opacity="0.75"/>
<path d="M18.1899 14.279L18.1896 14.2786C17.8868 13.8711 17.268 13.8339 16.9186 14.2044C16.7818 14.3495 16.6848 14.6121 16.6848 14.8933C16.6848 15.1875 16.7721 15.4204 16.9204 15.5792C17.0683 15.7375 17.2827 15.8285 17.5503 15.8285C17.7737 15.8285 17.9966 15.7156 18.1649 15.5386C18.3332 15.3618 18.441 15.1272 18.441 14.8933C18.441 14.8256 18.4162 14.7212 18.3702 14.6058C18.3247 14.4917 18.2613 14.3736 18.1899 14.279ZM18.0523 14.2465C18.3152 14.5252 18.3711 14.8856 18.2649 15.1782C18.1582 15.4719 17.8886 15.6947 17.5125 15.6947C17.2754 15.6947 17.0921 15.6351 16.9705 15.4926C16.8512 15.3526 16.8034 15.146 16.8034 14.88C16.8034 14.5587 16.8967 14.3346 17.1081 14.1849C17.2976 14.0443 17.4532 13.9636 17.6082 13.9736C17.7647 13.9837 17.8998 14.0848 18.0523 14.2465Z" stroke="#D9D9D9" stroke-opacity="0.01" stroke-width="0.133333"/>
<path d="M19.1881 13.9984C18.9865 14.132 18.7598 14.6396 18.7598 14.9334C18.7598 15.0803 18.8731 15.3475 19.0243 15.5478C19.503 16.189 20.5233 15.9219 20.5233 15.1471C20.5233 14.8666 20.4729 14.8266 20.0572 14.8399C19.6541 14.8666 19.6415 14.88 19.9313 14.9201C20.2084 14.9735 20.284 15.0403 20.2462 15.2673C20.221 15.4811 20.1076 15.5746 19.8179 15.6013C19.3518 15.6547 19.0117 15.3475 19.0117 14.9067C19.0117 14.2789 19.4652 13.985 20.1202 14.2121C20.4351 14.319 20.5107 14.1053 20.1958 13.9717C19.9313 13.8648 19.3518 13.8782 19.1881 13.9984Z" fill="white" fill-opacity="0.75"/>
<path d="M19.2275 14.0521L19.2276 14.0522L19.2249 14.054C19.1845 14.0807 19.1382 14.1298 19.0908 14.1977C19.0439 14.2647 18.9986 14.3462 18.959 14.4334C18.879 14.6095 18.8264 14.7999 18.8264 14.9334C18.8264 14.9934 18.8506 15.087 18.8966 15.1943C18.9419 15.3 19.0054 15.4121 19.0775 15.5077L19.0775 15.5077L19.0777 15.508C19.2995 15.805 19.6454 15.8911 19.9362 15.814C20.2262 15.7371 20.4567 15.5001 20.4567 15.1471C20.4567 15.0774 20.4533 15.0298 20.4445 14.9957C20.4363 14.9645 20.4247 14.9492 20.409 14.9386C20.3903 14.9261 20.3581 14.915 20.2989 14.9092C20.2549 14.9048 20.2003 14.9036 20.1319 14.9047C20.182 14.9245 20.2238 14.9494 20.2553 14.9828C20.3263 15.0581 20.3316 15.159 20.3122 15.2767C20.2982 15.3937 20.2583 15.4891 20.1725 15.5568C20.0897 15.6222 19.9734 15.6538 19.8248 15.6676C19.5754 15.696 19.3549 15.6282 19.1962 15.4895C19.0372 15.3506 18.945 15.1448 18.945 14.9067C18.945 14.5768 19.0649 14.3215 19.2847 14.1825C19.5028 14.0445 19.8028 14.0316 20.1419 14.1491C20.2143 14.1736 20.2667 14.1775 20.2991 14.1725C20.3212 14.1691 20.3287 14.1631 20.3308 14.1608C20.3308 14.1576 20.3294 14.1457 20.3108 14.1244C20.2873 14.0973 20.2428 14.0641 20.1703 14.0333C20.0504 13.985 19.8503 13.9616 19.6558 13.9665C19.5595 13.969 19.4675 13.9783 19.3906 13.9938C19.3117 14.0098 19.2565 14.0309 19.2275 14.0521Z" stroke="#D9D9D9" stroke-opacity="0.01" stroke-width="0.133333"/>
<path d="M20.9011 14.8933C20.9011 15.4677 20.9515 15.8951 21.0271 15.8951C21.1027 15.8951 21.1531 15.4677 21.1531 14.8933C21.1531 14.319 21.1027 13.8915 21.0271 13.8915C20.9515 13.8915 20.9011 14.319 20.9011 14.8933Z" fill="white" fill-opacity="0.75"/>
<path d="M20.9678 14.8933C20.9678 15.179 20.9803 15.4265 21.0019 15.6015C21.0095 15.6629 21.018 15.7139 21.0271 15.7538C21.0362 15.7139 21.0447 15.6629 21.0523 15.6015C21.0738 15.4265 21.0864 15.179 21.0864 14.8933C21.0864 14.6077 21.0738 14.3602 21.0523 14.1852C21.0447 14.1238 21.0362 14.0728 21.0271 14.0329C21.018 14.0728 21.0095 14.1238 21.0019 14.1852C20.9803 14.3602 20.9678 14.6077 20.9678 14.8933ZM21.0566 15.8402C21.0566 15.8402 21.0564 15.8399 21.056 15.8395L21.0566 15.8402ZM20.9975 13.9464C20.9975 13.9465 20.9977 13.9467 20.9982 13.9472L20.9975 13.9464Z" stroke="#D9D9D9" stroke-opacity="0.01" stroke-width="0.133333"/>
<path d="M21.657 14.8933V15.8951H22.3498C22.7277 15.8951 23.0426 15.8284 23.0426 15.7616C23.0426 15.6814 22.7907 15.628 22.4758 15.628C21.9593 15.628 21.9089 15.6013 21.9089 15.2941C21.9089 14.9868 21.9593 14.9601 22.4128 14.9601C22.6899 14.9601 22.9167 14.8933 22.9167 14.8266C22.9167 14.7464 22.6899 14.693 22.4128 14.693C21.9971 14.693 21.9089 14.6529 21.9089 14.4258C21.9089 14.1988 21.9971 14.1587 22.4128 14.1587C22.6899 14.1587 22.9167 14.0919 22.9167 14.0251C22.9167 13.945 22.6395 13.8915 22.2868 13.8915H21.657V14.8933Z" fill="white" fill-opacity="0.75"/>
<path d="M21.7236 14.8933V15.8285H22.3498C22.5353 15.8285 22.7041 15.812 22.8249 15.788C22.8767 15.7777 22.9174 15.7665 22.9463 15.7555C22.926 15.7467 22.8981 15.7379 22.8625 15.7297C22.7666 15.7078 22.6302 15.6947 22.4758 15.6947C22.3468 15.6947 22.2439 15.693 22.1631 15.6854C22.0833 15.6779 22.0166 15.6639 21.965 15.6338C21.9092 15.6012 21.8773 15.5534 21.8607 15.4938C21.8451 15.4383 21.8423 15.3707 21.8423 15.2941C21.8423 15.2172 21.8452 15.1503 21.8593 15.0956C21.8743 15.0377 21.9028 14.9896 21.9544 14.956C22.0025 14.9247 22.0641 14.9104 22.1357 14.9028C22.2081 14.8951 22.2996 14.8935 22.4128 14.8935C22.5466 14.8935 22.6665 14.8773 22.751 14.8541C22.7875 14.8441 22.815 14.8334 22.8335 14.8236C22.8158 14.814 22.7889 14.8037 22.7521 14.7943C22.6679 14.7727 22.5479 14.7597 22.4128 14.7597C22.3083 14.7597 22.2219 14.7572 22.1514 14.7494C22.0816 14.7418 22.022 14.7285 21.9743 14.7037C21.9238 14.6776 21.8886 14.6396 21.8676 14.5889C21.8478 14.5411 21.8423 14.4856 21.8423 14.4258C21.8423 14.3661 21.8478 14.3106 21.8676 14.2628C21.8886 14.2121 21.9238 14.1741 21.9743 14.1479C22.022 14.1231 22.0816 14.1099 22.1514 14.1022C22.2219 14.0945 22.3083 14.092 22.4128 14.092C22.5466 14.092 22.6665 14.0758 22.751 14.0527C22.784 14.0436 22.8095 14.0341 22.8278 14.0251C22.8038 14.0143 22.7681 14.0034 22.7206 13.9936C22.6131 13.9714 22.4605 13.9582 22.2868 13.9582H21.7236V14.8933Z" stroke="#D9D9D9" stroke-opacity="0.01" stroke-width="0.133333"/>
<path d="M23.408 14.1053C23.1687 14.4125 23.408 14.7197 24.0379 14.9468C24.4158 15.067 24.5544 15.1872 24.5292 15.3475C24.4788 15.6146 23.8489 15.7081 23.597 15.4811C23.4962 15.4009 23.3702 15.3608 23.3199 15.4143C23.1687 15.5746 23.6978 15.8951 24.1135 15.8951C24.5418 15.8951 24.8063 15.6948 24.8063 15.3475C24.8063 15.0536 24.5166 14.8132 24.0253 14.7063C23.5466 14.5995 23.4332 14.3591 23.7859 14.1587C23.9749 14.0518 24.1261 14.0518 24.315 14.1587C24.6047 14.3323 24.7559 14.2656 24.6173 14.0385C24.4914 13.8114 23.597 13.8648 23.408 14.1053Z" fill="white" fill-opacity="0.75"/>
<path d="M24.595 15.3578L24.595 15.3578L24.5947 15.3598C24.5773 15.452 24.5115 15.5216 24.4324 15.5699C24.3528 15.6185 24.2523 15.6505 24.1482 15.6656C23.9446 15.6952 23.7013 15.6634 23.554 15.5321C23.5096 15.497 23.4617 15.4724 23.4224 15.462C23.4026 15.4568 23.3879 15.4559 23.3783 15.4571C23.3738 15.4576 23.3711 15.4586 23.3698 15.4592L23.3686 15.4598L23.3684 15.46C23.3611 15.4677 23.36 15.4732 23.3601 15.4787C23.3604 15.4864 23.3639 15.5002 23.3772 15.5202C23.4042 15.561 23.4596 15.6099 23.5386 15.6578C23.6957 15.753 23.9201 15.8285 24.1135 15.8285C24.3182 15.8285 24.4752 15.7805 24.5794 15.699C24.6816 15.6192 24.7396 15.5024 24.7396 15.3475C24.7396 15.2249 24.6799 15.1089 24.5576 15.0083C24.4345 14.9069 24.2501 14.8235 24.0111 14.7715L24.0111 14.7715L24.0108 14.7714C23.8869 14.7438 23.7835 14.7068 23.7037 14.662C23.6248 14.6177 23.5632 14.5622 23.533 14.4948C23.5011 14.4235 23.5086 14.3484 23.5501 14.2794C23.5898 14.2133 23.6597 14.1537 23.753 14.1007L23.7531 14.1007C23.8542 14.0435 23.9506 14.0119 24.0505 14.0119C24.1504 14.0119 24.2467 14.0435 24.3478 14.1007L24.3478 14.1006L24.3493 14.1015C24.4183 14.1429 24.4765 14.1683 24.5218 14.1808C24.5692 14.194 24.5934 14.1905 24.6014 14.1872C24.6016 14.1871 24.6018 14.187 24.602 14.1869C24.6023 14.1856 24.6027 14.1831 24.6027 14.179C24.6022 14.1607 24.5926 14.126 24.5604 14.0732L24.5604 14.0732L24.559 14.0708C24.5516 14.0574 24.5356 14.0412 24.5054 14.025C24.4756 14.009 24.4358 13.9951 24.3874 13.9844C24.2905 13.9629 24.1674 13.9558 24.0401 13.9631C23.913 13.9704 23.7851 13.9917 23.679 14.0251C23.57 14.0593 23.495 14.1026 23.4605 14.1464C23.4074 14.2146 23.3846 14.2778 23.3836 14.3356C23.3825 14.3933 23.4029 14.4534 23.4502 14.5158C23.5468 14.6435 23.7486 14.7715 24.0593 14.8836C24.2495 14.9442 24.3884 15.0073 24.4772 15.0807C24.5225 15.1182 24.5569 15.1601 24.5774 15.2078C24.5982 15.2562 24.6031 15.3066 24.595 15.3578Z" stroke="#D9D9D9" stroke-opacity="0.01" stroke-width="0.133333"/>
<path d="M25.9276 13.9185C25.852 14.0922 25.8772 15.7885 25.9654 15.842C26.0157 15.8821 26.0661 15.7218 26.0661 15.508C26.0661 15.1207 26.0913 15.094 26.57 15.094C27.2124 15.094 27.2376 14.8535 26.6078 14.8001C26.2173 14.7734 26.1165 14.7066 26.0913 14.4528C26.0535 14.1857 26.1039 14.159 26.5574 14.159C26.8345 14.159 27.0991 14.0922 27.1369 14.0254C27.1873 13.9452 26.9731 13.8918 26.5826 13.8918C26.2299 13.8918 25.9276 13.9052 25.9276 13.9185Z" fill="white" fill-opacity="0.75"/>
<path d="M25.9865 13.9751C25.9846 13.9753 25.9827 13.9755 25.981 13.9756C25.9807 13.977 25.9805 13.9784 25.9802 13.9799C25.9766 13.9996 25.9733 14.0249 25.9702 14.0555C25.964 14.1167 25.9592 14.1958 25.9558 14.2873C25.949 14.4701 25.9478 14.6988 25.9517 14.9242C25.9556 15.1496 25.9646 15.3706 25.9781 15.538C25.9817 15.5831 25.9856 15.6239 25.9898 15.6596C25.9958 15.6158 25.9995 15.5644 25.9995 15.508C25.9995 15.4121 26.0009 15.3321 26.0119 15.2686C26.0231 15.2036 26.0458 15.1462 26.0959 15.1045C26.1439 15.0645 26.2076 15.0471 26.2812 15.038C26.3555 15.0289 26.4508 15.0273 26.57 15.0273C26.7273 15.0273 26.8426 15.0125 26.9174 14.9914C26.954 14.9811 26.9777 14.9701 26.9914 14.961C26.9806 14.9526 26.9623 14.9419 26.9335 14.9306C26.8658 14.9039 26.7566 14.8797 26.6027 14.8666C26.4091 14.8533 26.2692 14.8299 26.1754 14.767C26.0738 14.6988 26.0385 14.5941 26.0251 14.4608C26.0158 14.3945 26.0104 14.3342 26.0186 14.2835C26.0277 14.2276 26.0538 14.1809 26.105 14.1491C26.1509 14.1206 26.2114 14.1078 26.2814 14.101C26.353 14.0939 26.4441 14.0923 26.5574 14.0923C26.6911 14.0923 26.8213 14.0761 26.9215 14.0524C26.9717 14.0404 27.0125 14.027 27.0418 14.0137C27.0468 14.0115 27.0513 14.0093 27.0553 14.0072C27.0439 14.0028 27.0288 13.9981 27.0093 13.9933C26.921 13.9718 26.7762 13.9585 26.5826 13.9585C26.407 13.9585 26.2442 13.9618 26.1256 13.9668C26.0662 13.9693 26.0187 13.9721 25.9865 13.9751Z" stroke="#D9D9D9" stroke-opacity="0.01" stroke-width="0.133333"/>
<path d="M27.88 13.9984C27.6784 14.132 27.4517 14.6396 27.4517 14.9334C27.4517 15.4009 27.9303 15.8951 28.3964 15.8951C29.2278 15.8951 29.6687 14.7731 29.0893 14.1587C28.8373 13.8915 28.1571 13.798 27.88 13.9984ZM28.8121 14.2388C29.0011 14.3724 29.0893 14.5728 29.0893 14.88C29.0893 15.4009 28.9003 15.628 28.4468 15.628C27.754 15.628 27.4643 14.8132 27.9555 14.2923C28.2579 13.9717 28.4342 13.9583 28.8121 14.2388Z" fill="white" fill-opacity="0.75"/>
<path d="M27.919 14.0524L27.919 14.0525L27.9168 14.054C27.8764 14.0807 27.8301 14.1298 27.7826 14.1977C27.7358 14.2647 27.6905 14.3462 27.6509 14.4334C27.5709 14.6095 27.5183 14.7999 27.5183 14.9334C27.5183 15.1454 27.6277 15.3699 27.7969 15.543C27.9662 15.7161 28.1862 15.8285 28.3964 15.8285C28.7787 15.8285 29.0759 15.5708 29.2099 15.2328C29.3441 14.8946 29.3094 14.4892 29.0408 14.2044C28.9298 14.0868 28.7144 14.0001 28.4852 13.9693C28.2547 13.9384 28.0367 13.9673 27.919 14.0524ZM28.8512 14.1849C29.0626 14.3346 29.1559 14.5587 29.1559 14.88C29.1559 15.146 29.1082 15.3526 28.9888 15.4926C28.8673 15.6351 28.6839 15.6947 28.4468 15.6947C28.0708 15.6947 27.8011 15.4719 27.6945 15.1782C27.5882 14.8856 27.6442 14.5252 27.907 14.2465C28.0595 14.0848 28.1947 13.9837 28.3512 13.9736C28.5061 13.9636 28.6618 14.0443 28.8512 14.1849Z" stroke="#D9D9D9" stroke-opacity="0.01" stroke-width="0.133333"/>
<path d="M29.7192 14.8933C29.7192 15.8416 29.9082 16.2958 29.9964 15.5344C30.0468 15.0269 30.2735 15.0135 30.7144 15.5211C30.9159 15.7615 31.1301 15.9084 31.1805 15.855C31.2309 15.8016 31.1553 15.6279 31.0041 15.4543C30.7396 15.1604 30.7396 15.1471 30.9789 14.9868C31.3064 14.7731 31.3064 14.2121 30.9915 14.0251C30.853 13.9583 30.5128 13.8915 30.2357 13.8915H29.7192V14.8933ZM30.9537 14.4792C31.0167 14.7864 30.7774 14.9601 30.3239 14.9601C30.009 14.9601 29.9712 14.9066 29.9712 14.546C29.9712 14.1586 29.9964 14.1453 30.4373 14.1853C30.79 14.2121 30.9285 14.2922 30.9537 14.4792Z" fill="white" fill-opacity="0.75"/>
<path d="M30.7647 15.4774L30.7647 15.4773L30.7655 15.4782C30.8635 15.5952 30.9633 15.6878 31.0426 15.7438C31.0783 15.769 31.1072 15.785 31.1282 15.7932C31.1257 15.7769 31.1191 15.7545 31.1068 15.7265C31.0788 15.6626 31.0265 15.5816 30.9542 15.4985C30.8888 15.4258 30.837 15.3676 30.8014 15.3195C30.767 15.2732 30.7387 15.2252 30.736 15.1739C30.733 15.1162 30.7625 15.0727 30.7985 15.0381C30.8331 15.0048 30.8834 14.9705 30.9418 14.9314L30.9418 14.9314L30.9425 14.931C31.0834 14.839 31.158 14.6689 31.1595 14.4953C31.1609 14.3224 31.0898 14.1624 30.96 14.0839C30.8983 14.0548 30.787 14.0232 30.6536 13.9988C30.5197 13.9743 30.3695 13.9581 30.2357 13.9581H29.7859V14.8933C29.7859 15.1283 29.7976 15.3319 29.8164 15.4929C29.8333 15.6387 29.8556 15.7452 29.8781 15.8084C29.8833 15.7926 29.8887 15.773 29.8942 15.7493C29.907 15.6941 29.9192 15.6207 29.9301 15.5273C29.943 15.3975 29.9677 15.2912 30.0093 15.2149C30.0524 15.1357 30.1179 15.083 30.2071 15.0804C30.2887 15.0781 30.3751 15.119 30.4629 15.1841C30.5525 15.2504 30.653 15.3487 30.7647 15.4774ZM31.1511 15.7994C31.1511 15.7993 31.1505 15.7992 31.1494 15.7994C31.1507 15.7995 31.1512 15.7994 31.1511 15.7994ZM31.0195 14.468C31.0367 14.5534 31.0337 14.6336 31.0086 14.7058C30.9832 14.7791 30.9364 14.8401 30.8726 14.8881C30.7471 14.9826 30.5567 15.0267 30.3239 15.0267C30.2445 15.0267 30.1769 15.0235 30.1214 15.0112C30.0645 14.9985 30.0151 14.975 29.9783 14.931C29.9426 14.8883 29.9254 14.8339 29.9161 14.7728C29.9068 14.7117 29.9045 14.6364 29.9045 14.546C29.9045 14.4501 29.9059 14.371 29.9163 14.3095C29.9267 14.2473 29.9482 14.1906 29.9985 14.1523C30.0465 14.1158 30.1089 14.1054 30.1767 14.1037C30.2456 14.1019 30.3337 14.109 30.4428 14.1189C30.6208 14.1324 30.756 14.1598 30.8514 14.2143C30.9523 14.2719 31.004 14.3571 31.0195 14.468Z" stroke="#D9D9D9" stroke-opacity="0.01" stroke-width="0.133333"/>
<path d="M32.8303 14.3191C32.2635 15.6147 32.1249 16.1624 32.4902 15.6949C32.717 15.4144 33.6114 15.4277 33.8255 15.7216C33.9137 15.8552 34.0145 15.922 34.0648 15.8819C34.1656 15.7617 33.2838 13.8916 33.1327 13.8916C33.0697 13.8916 32.9311 14.092 32.8303 14.3191ZM33.3468 14.6263C33.5736 15.1472 33.5358 15.2274 33.1075 15.2274C32.78 15.2274 32.7296 15.1873 32.8052 14.9869C32.8555 14.8667 32.9311 14.653 32.9563 14.5194C33.0445 14.1989 33.1831 14.2389 33.3468 14.6263Z" fill="white" fill-opacity="0.75"/>
<path d="M32.8914 14.346C32.6078 14.9942 32.4337 15.4501 32.3754 15.6843C32.3698 15.7067 32.3655 15.7264 32.3623 15.7435C32.3834 15.7209 32.4084 15.6913 32.4377 15.6538L32.4377 15.6538L32.4384 15.653C32.5076 15.5673 32.6215 15.5104 32.7463 15.4752C32.8728 15.4395 33.0192 15.4236 33.1638 15.4262C33.3084 15.4288 33.454 15.45 33.579 15.4906C33.7024 15.5307 33.8139 15.5925 33.8794 15.6823L33.8794 15.6823L33.8811 15.6849C33.9222 15.7471 33.9637 15.7896 33.9964 15.8114C33.9987 15.813 34.0008 15.8143 34.0029 15.8156C34.0011 15.8047 33.9985 15.7919 33.995 15.7771C33.9812 15.7184 33.9555 15.6384 33.9204 15.5433C33.8504 15.3534 33.7458 15.1103 33.6329 14.87C33.52 14.6298 33.3996 14.3941 33.2985 14.2191C33.2478 14.1313 33.2029 14.0604 33.1669 14.0121C33.1513 13.9913 33.1385 13.9763 33.1286 13.9662C33.1258 13.9685 33.1226 13.9714 33.119 13.9747C33.1 13.9929 33.0765 14.0211 33.0502 14.0585C32.9981 14.1328 32.9403 14.2357 32.8914 14.346ZM34.0301 15.8265C34.03 15.8264 34.0296 15.8264 34.0288 15.8266C34.0297 15.8267 34.0301 15.8266 34.0301 15.8265ZM32.7428 14.9634L32.7427 14.9634L32.7437 14.9612C32.7934 14.8425 32.8669 14.6338 32.8908 14.5071L32.8906 14.507L32.892 14.5018C32.9148 14.4189 32.9429 14.3509 32.9793 14.305C32.9979 14.2815 33.0209 14.261 33.0494 14.2489C33.0791 14.2363 33.1105 14.2347 33.1411 14.2432C33.1974 14.2588 33.2443 14.3067 33.2837 14.3628C33.3248 14.4214 33.3663 14.5012 33.4081 14.6C33.4648 14.7304 33.5067 14.8369 33.5297 14.9227C33.5521 15.0064 33.5605 15.0835 33.5345 15.1473C33.5061 15.2171 33.4451 15.2528 33.3742 15.2712C33.305 15.2892 33.2148 15.294 33.1075 15.294C33.025 15.294 32.9566 15.2916 32.9023 15.284C32.8496 15.2767 32.8001 15.2635 32.7637 15.2345C32.7219 15.2013 32.7066 15.1556 32.7078 15.1074C32.7089 15.0636 32.7235 15.0147 32.7428 14.9634Z" stroke="#D9D9D9" stroke-opacity="0.01" stroke-width="0.133333"/>
<path d="M34.3796 14.8933C34.3796 15.4677 34.43 15.8951 34.5056 15.8951C34.5812 15.8951 34.6316 15.7081 34.6316 15.4944C34.6316 15.1204 34.6568 15.0937 35.1355 15.0937C35.4126 15.0937 35.6393 15.0269 35.6393 14.9601C35.6393 14.88 35.4126 14.8266 35.1355 14.8266C34.682 14.8266 34.6316 14.7865 34.6316 14.4926C34.6316 14.1988 34.682 14.1587 35.1229 14.1587C35.4 14.1587 35.6645 14.0919 35.7023 14.0251C35.7527 13.945 35.5134 13.8915 35.0851 13.8915H34.3796V14.8933Z" fill="white" fill-opacity="0.75"/>
<path d="M35.6072 14.0135C35.6104 14.012 35.6134 14.0106 35.6163 14.0092C35.6021 14.0041 35.5833 13.9987 35.559 13.9934C35.4589 13.9716 35.2976 13.9582 35.0851 13.9582H34.4463V14.8933C34.4463 15.179 34.4589 15.4265 34.4804 15.6015C34.4912 15.6888 34.5039 15.7552 34.5174 15.7985C34.5226 15.7871 34.5279 15.773 34.5331 15.7558C34.5527 15.6903 34.5649 15.5969 34.5649 15.4944C34.5649 15.4019 34.5663 15.3242 34.5774 15.2623C34.5887 15.1987 34.6118 15.1426 34.6621 15.102C34.71 15.0632 34.7734 15.0463 34.8468 15.0375C34.9211 15.0286 35.0162 15.027 35.1355 15.027C35.2693 15.027 35.3892 15.0108 35.4737 14.9877C35.5102 14.9777 35.5377 14.967 35.5561 14.9572C35.5385 14.9476 35.5116 14.9373 35.4748 14.9279C35.3906 14.9063 35.2706 14.8932 35.1355 14.8932C35.0219 14.8932 34.9302 14.8908 34.8573 14.8819C34.7852 14.8731 34.7239 14.8573 34.6762 14.8251C34.6253 14.7907 34.597 14.7428 34.582 14.6857C34.5679 14.6315 34.5649 14.5663 34.5649 14.4926C34.5649 14.4189 34.5679 14.3538 34.5818 14.2998C34.5964 14.243 34.624 14.1951 34.674 14.1606C34.721 14.1281 34.7813 14.1122 34.8518 14.1034C34.923 14.0945 35.0124 14.092 35.1229 14.092C35.2566 14.092 35.3868 14.0759 35.4869 14.0521C35.5372 14.0402 35.578 14.0268 35.6072 14.0135ZM34.5352 15.8402C34.5352 15.8402 34.535 15.8399 34.5345 15.8395L34.5352 15.8402Z" stroke="#D9D9D9" stroke-opacity="0.01" stroke-width="0.133333"/>
<path d="M36.1433 14.9067C36.1433 15.5345 36.1937 15.8818 36.2693 15.8284C36.3449 15.7883 36.3952 15.6013 36.3952 15.4143C36.3952 14.9868 36.6472 15.0136 37.0881 15.4944C37.2896 15.7081 37.5038 15.8951 37.5794 15.8951C37.6423 15.8951 37.5668 15.7482 37.4156 15.5746L37.1259 15.254L37.3904 14.9735C37.7053 14.6396 37.7179 14.5728 37.4534 14.1854C37.3022 13.9583 37.1385 13.8915 36.6976 13.8915H36.1433V14.9067ZM37.3526 14.3591C37.466 14.6663 37.1637 14.9601 36.7606 14.9601C36.433 14.9601 36.3952 14.9067 36.3952 14.5594C36.3952 14.1854 36.433 14.1587 36.8361 14.1587C37.1259 14.1587 37.3148 14.2388 37.3526 14.3591Z" fill="white" fill-opacity="0.75"/>
<path d="M36.244 15.6138C36.2512 15.6655 36.259 15.7049 36.2668 15.7332C36.2774 15.7139 36.2876 15.6884 36.2966 15.6576C36.3166 15.5895 36.3286 15.5024 36.3286 15.4143C36.3286 15.3034 36.3445 15.21 36.3846 15.1442C36.4054 15.11 36.4333 15.0823 36.4693 15.065C36.5051 15.0477 36.5442 15.043 36.5838 15.0475C36.6604 15.0562 36.7448 15.0996 36.8335 15.1654C36.9237 15.2322 37.0252 15.3272 37.1369 15.449C37.2364 15.5545 37.3382 15.6525 37.4236 15.7237C37.4449 15.7414 37.4648 15.7572 37.4831 15.7708C37.4542 15.727 37.4146 15.6749 37.3657 15.6188L37.0764 15.2987L37.0351 15.253L37.0774 15.2083L37.3419 14.9277C37.4208 14.8441 37.4774 14.7806 37.5156 14.7258C37.5533 14.6717 37.5695 14.6311 37.5728 14.5936C37.5761 14.5562 37.5674 14.5134 37.5391 14.4534C37.5105 14.3927 37.4644 14.3198 37.3983 14.223L37.3983 14.223L37.3979 14.2223C37.3276 14.1167 37.2586 14.0542 37.1598 14.0154C37.0571 13.9751 36.9165 13.9582 36.6976 13.9582H36.21V14.9067C36.21 15.2196 36.2226 15.4597 36.244 15.6138ZM37.4157 14.3374C37.482 14.519 37.424 14.6953 37.2974 14.8219C37.1716 14.9478 36.9776 15.0268 36.7606 15.0268C36.678 15.0268 36.6084 15.0235 36.5516 15.0116C36.4936 14.9994 36.4431 14.977 36.4052 14.9343C36.3681 14.8924 36.3501 14.8389 36.3404 14.7791C36.3309 14.7195 36.3286 14.6464 36.3286 14.5594C36.3286 14.4662 36.3308 14.3889 36.3418 14.3273C36.353 14.2647 36.3746 14.2097 36.4201 14.1691C36.4646 14.1294 36.5227 14.1117 36.588 14.1027C36.6535 14.0936 36.7358 14.092 36.8361 14.092C36.9864 14.092 37.115 14.1127 37.2135 14.1518C37.3099 14.1902 37.3877 14.2509 37.4157 14.3374Z" stroke="#D9D9D9" stroke-opacity="0.01" stroke-width="0.133333"/>
<path d="M38.033 14.8933C38.033 15.4677 38.0833 15.8951 38.1589 15.8951C38.2345 15.8951 38.2849 15.4677 38.2849 14.8933C38.2849 14.319 38.2345 13.8915 38.1589 13.8915C38.0833 13.8915 38.033 14.319 38.033 14.8933Z" fill="white" fill-opacity="0.75"/>
<path d="M38.0996 14.8933C38.0996 15.179 38.1122 15.4265 38.1338 15.6015C38.1413 15.6629 38.1499 15.7139 38.1589 15.7538C38.168 15.7139 38.1765 15.6629 38.1841 15.6015C38.2057 15.4265 38.2182 15.179 38.2182 14.8933C38.2182 14.6077 38.2057 14.3602 38.1841 14.1852C38.1765 14.1238 38.168 14.0728 38.1589 14.0329C38.1499 14.0728 38.1413 14.1238 38.1338 14.1852C38.1122 14.3602 38.0996 14.6077 38.0996 14.8933ZM38.1885 15.8402C38.1885 15.8402 38.1883 15.8399 38.1879 15.8395L38.1885 15.8402ZM38.1294 13.9464C38.1294 13.9465 38.1296 13.9467 38.13 13.9472L38.1294 13.9464Z" stroke="#D9D9D9" stroke-opacity="0.01" stroke-width="0.133333"/>
<path d="M38.9147 14.1587C38.3857 14.7197 38.814 15.8951 39.5446 15.8951C39.9603 15.8951 40.3004 15.7749 40.3004 15.628C40.3004 15.5612 40.0863 15.5479 39.8217 15.5879C39.1037 15.6948 38.7384 15.2006 38.9903 14.4926C39.1037 14.1854 39.6328 13.9984 39.9225 14.1587C40.0611 14.2388 40.187 14.2388 40.2248 14.172C40.439 13.8114 39.2549 13.798 38.9147 14.1587Z" fill="white" fill-opacity="0.75"/>
<path d="M39.8317 15.6538L39.8315 15.6539C39.4567 15.7096 39.1578 15.6101 38.989 15.3859C38.8214 15.1632 38.797 14.8369 38.9275 14.4703L38.9275 14.4703L38.9278 14.4695C38.994 14.2902 39.1753 14.1562 39.3679 14.0875C39.5607 14.0188 39.787 14.0075 39.9548 14.1004L39.9548 14.1003L39.9559 14.101C40.0184 14.1371 40.0738 14.1526 40.1135 14.1538C40.1551 14.1551 40.1653 14.1418 40.1668 14.1392L40.1668 14.1392L40.1675 14.138C40.1871 14.1049 40.1851 14.0864 40.1814 14.0761C40.1767 14.0633 40.1623 14.045 40.1267 14.0258C40.0547 13.9871 39.9291 13.9632 39.7769 13.9615C39.6269 13.9599 39.4601 13.9801 39.3111 14.0221C39.1607 14.0645 39.0363 14.127 38.9632 14.2044C38.7216 14.4607 38.6931 14.8655 38.8199 15.2145C38.9471 15.5645 39.2185 15.8285 39.5446 15.8285C39.7469 15.8285 39.928 15.7991 40.0562 15.7538C40.1206 15.731 40.168 15.7055 40.1981 15.6805C40.2144 15.6669 40.2235 15.6554 40.2284 15.6463C40.2127 15.6414 40.1886 15.6369 40.1551 15.6344C40.0753 15.6282 39.9611 15.6342 39.8317 15.6538ZM40.2447 15.6532C40.2447 15.6532 40.2444 15.653 40.2436 15.6525L40.2447 15.6532Z" stroke="#D9D9D9" stroke-opacity="0.01" stroke-width="0.133333"/>
<path d="M41.0058 14.6128C40.5775 15.6146 40.5145 15.8951 40.6657 15.8951C40.7413 15.8951 40.8043 15.8016 40.8043 15.6948C40.8043 15.3876 41.9128 15.4143 42.1395 15.7215C42.4293 16.1356 42.3411 15.6681 41.9506 14.7598C41.7364 14.2789 41.5097 13.8915 41.4467 13.8915C41.3711 13.8915 41.1696 14.2121 41.0058 14.6128ZM41.6608 14.6262C41.8876 15.1338 41.8498 15.2273 41.4341 15.2273C41.2325 15.2273 41.0562 15.2006 41.0562 15.1738C41.0562 15.0002 41.3459 14.2923 41.4215 14.2923C41.4719 14.2923 41.5853 14.4392 41.6608 14.6262Z" fill="white" fill-opacity="0.75"/>
<path d="M41.0675 14.6381L41.0675 14.6381L41.0671 14.639C40.8527 15.1405 40.7319 15.4566 40.683 15.6463C40.658 15.7434 40.6548 15.7966 40.6601 15.8222C40.6607 15.8249 40.6613 15.8269 40.6618 15.8283C40.6628 15.8284 40.6641 15.8285 40.6657 15.8285C40.6742 15.8285 40.6908 15.8229 40.7083 15.7973C40.7253 15.7725 40.7376 15.7358 40.7376 15.6948C40.7376 15.6338 40.7659 15.5837 40.8074 15.5459C40.8476 15.5092 40.9013 15.4825 40.9599 15.4629C41.0773 15.4237 41.2313 15.4076 41.3883 15.4111C41.546 15.4145 41.7119 15.4378 41.8545 15.4807C41.9941 15.5227 42.1233 15.5873 42.1932 15.6819L42.1932 15.6819L42.1941 15.6833C42.2078 15.7028 42.2203 15.7199 42.2318 15.7348C42.1951 15.5597 42.0792 15.2278 41.8895 14.7865C41.7832 14.5479 41.6741 14.3332 41.5843 14.1789C41.5393 14.1014 41.4999 14.0407 41.4689 14C41.4584 13.9863 41.4496 13.9758 41.4423 13.968C41.4359 13.9738 41.428 13.9817 41.4189 13.992C41.3904 14.0243 41.3552 14.0734 41.3161 14.1369C41.238 14.2635 41.1483 14.4404 41.0675 14.6381ZM41.7222 14.6001C41.7789 14.727 41.8206 14.8316 41.8438 14.9167C41.8666 15.0001 41.8751 15.0768 41.8507 15.1408C41.824 15.2108 41.7653 15.2488 41.6951 15.2688C41.6271 15.2883 41.5388 15.2939 41.4341 15.2939C41.3308 15.2939 41.233 15.2871 41.16 15.2766C41.124 15.2713 41.0915 15.2649 41.0667 15.257C41.0548 15.2532 41.0409 15.2479 41.0286 15.2402C41.0213 15.2356 40.9895 15.2149 40.9895 15.1738C40.9895 15.1189 41.0109 15.0329 41.039 14.943C41.068 14.85 41.1073 14.7433 41.1489 14.6425C41.1903 14.542 41.2347 14.4456 41.2741 14.3736C41.2936 14.3379 41.313 14.3061 41.3313 14.2824C41.3403 14.2707 41.3507 14.2587 41.3623 14.249C41.3718 14.2411 41.3927 14.2256 41.4215 14.2256C41.4432 14.2256 41.4618 14.2332 41.475 14.2404C41.4888 14.2479 41.5018 14.2577 41.5137 14.2682C41.5374 14.2891 41.5618 14.3174 41.5855 14.3497C41.6329 14.4144 41.6826 14.5024 41.7222 14.6001Z" stroke="#D9D9D9" stroke-opacity="0.01" stroke-width="0.133333"/>
</svg>
