<svg width="151" height="50" viewBox="0 0 151 50" fill="none" xmlns="http://www.w3.org/2000/svg">
<path d="M119.104 0.643692C118.383 1.00577 117.207 1.28738 116.562 1.24715C115.006 1.20692 112.654 3.50007 112.654 5.02884C112.654 5.63231 112.313 6.19553 111.819 6.47715C109.922 7.56338 108.519 10.46 108.481 13.3164C108.481 14.5233 108.443 15.9314 108.405 16.4946C108.367 17.1383 108.822 18.0234 109.581 18.9085C110.264 19.6728 111.099 20.6384 111.44 21.0809C113.034 22.9718 114.21 23.0522 120.204 21.8855C121.153 21.6844 121.608 21.7648 121.95 22.2476C122.177 22.5694 122.86 22.9315 123.467 23.012C124.567 23.1327 124.605 23.2131 124.605 25.2247C124.605 26.7534 124.795 27.5178 125.402 28.242C127.147 30.2535 127.792 33.1501 126.882 34.9605C126.123 36.5698 126.161 38.1388 127.034 39.6675C127.413 40.3514 127.868 41.7193 128.02 42.6848C128.172 43.6504 128.703 45.1791 129.196 46.1044C129.689 46.9895 130.107 48.116 130.107 48.5585C130.107 49.0011 130.334 49.5643 130.6 49.8057C131.169 50.2884 134.963 49.8057 136.025 49.0815C137.164 48.3171 139.326 44.7366 139.061 44.0527C138.909 43.6504 139.174 43.2481 139.819 42.9664C140.692 42.5239 140.768 42.3228 140.578 40.8342C140.351 39.2652 140.389 39.1848 142.172 37.7767C143.841 36.4491 143.993 36.1674 143.955 34.7594C143.917 33.8743 143.689 32.426 143.424 31.5007C143.044 30.0524 143.082 29.6098 143.538 28.6845C144.334 27.1558 145.207 26.15 146.914 24.7419C148.318 23.6154 150.595 20.0751 150.595 18.9889C150.595 18.5866 150.253 18.5061 149.456 18.6671C148.849 18.7878 147.825 19.0291 147.18 19.1498C146.231 19.351 146.004 19.2303 145.7 18.3452C145.473 17.8222 144.79 16.9371 144.183 16.4544C143.538 15.9314 143.006 15.2072 143.006 14.8049C143.006 14.4026 142.855 14.0808 142.627 14.0808C142.437 14.0808 142.134 13.598 142.02 12.9543C141.868 12.3508 141.109 10.5002 140.313 8.89099C139.516 7.24153 138.947 5.79323 139.061 5.67253C139.174 5.55184 139.402 5.71276 139.592 6.03461C139.782 6.35646 140.047 6.47715 140.237 6.31623C140.389 6.1553 140.313 5.67253 140.123 5.31046C139.819 4.78746 139.137 4.62653 137.467 4.5863C136.253 4.54607 134.546 4.22423 133.749 3.86215C132.004 3.09777 131.245 3.25869 131.245 4.42538C131.245 4.86792 131.093 5.23 130.866 5.23C130.221 5.23 128.399 4.26446 128.096 3.74146C127.944 3.45984 127.451 3.21846 127.034 3.21846C125.516 3.21846 124.795 2.4943 125.061 1.20692L125.288 0H122.86C121.494 0.0402298 119.863 0.321846 119.104 0.643692Z" fill="#D9D9D9" fill-opacity="0.8"/>
<path d="M94.6324 7.20086C92.3181 7.80432 89.9278 9.2124 88.4482 10.8619C83.1744 16.6149 83.478 26.5921 89.0931 31.8221C93.4942 35.9256 101.917 35.9658 106.584 31.8623L107.532 31.0577L106.47 30.0117C105.901 29.4485 105.332 28.9657 105.218 28.9657C105.142 28.9657 104.421 29.4082 103.624 29.9312C101.5 31.3795 99.5268 31.9025 96.9468 31.7014C91.6351 31.2186 88.4102 27.6783 88.0687 21.9253C87.879 18.4252 88.4102 16.2125 90.0037 14.0401C92.8492 10.1377 98.123 9.09171 102.79 11.5458C105.104 12.7527 105.256 12.7929 106.09 12.1492C107.342 11.1837 107.039 10.4193 104.725 8.97101C101.727 7.08017 97.8194 6.39625 94.6324 7.20086Z" fill="#D9D9D9" fill-opacity="0.8"/>
<path d="M11.0118 8.93091C10.6324 9.89645 8.09043 15.9311 5.32078 22.368C2.58907 28.8049 0.350586 34.236 0.350586 34.3567C0.350586 34.5177 1.07145 34.5981 1.94408 34.5177C3.53758 34.397 3.57552 34.3567 4.86549 31.4601L6.19341 28.5635H13.5159H20.8384L21.4075 30.0923C22.8872 34.0349 23.1907 34.397 24.936 34.5177C25.8086 34.5981 26.5295 34.5579 26.5295 34.4774C26.5295 34.2763 21.5213 22.368 17.2341 12.3505L15.0335 7.24122H13.3641C11.7706 7.24122 11.6948 7.32168 11.0118 8.93091ZM16.2856 17.7012C17.8032 21.3622 19.0931 24.5807 19.207 24.8221C19.3587 25.2244 18.0688 25.3451 13.478 25.3451C10.2151 25.3451 7.55926 25.2646 7.55926 25.1841C7.55926 25.1037 8.84924 21.9254 10.4048 18.0633C11.9604 14.2414 13.2503 11.0229 13.2503 10.9022C13.2503 10.4597 13.7056 11.4654 16.2856 17.7012Z" fill="#D9D9D9" fill-opacity="0.8"/>
<path d="M30.7029 20.9197V34.5981H32.2205H33.7381V20.9197V7.24123H32.2205H30.7029V20.9197Z" fill="#D9D9D9" fill-opacity="0.8"/>
<path d="M37.9116 8.85046V10.4597H42.2748H46.6379V22.5289V34.5981H48.1555H49.6731V22.5289V10.4597H54.0742H58.4374L58.3236 8.93092L58.2097 7.44238L48.0797 7.32169L37.9116 7.24123V8.85046Z" fill="#D9D9D9" fill-opacity="0.8"/>
<path d="M62.4969 7.64354C62.459 7.8447 62.4211 14 62.4969 21.322L62.6108 34.5981H71.6785H80.7842V32.9889V31.3797H73.1961H65.608V26.7531V22.1266H72.627H79.646V20.5174V18.9082H72.627H65.608V14.6839V10.4597H73.0444H80.4427L80.3289 8.93093L80.2151 7.44239L71.4129 7.3217C65.7219 7.28147 62.6108 7.36193 62.4969 7.64354Z" fill="#D9D9D9" fill-opacity="0.8"/>
<path d="M148.698 35.6054C148.394 36.1687 147.787 36.7319 147.294 36.8526C146.611 37.0537 146.421 37.3756 146.459 38.3814C146.459 39.0653 146.345 40.1515 146.231 40.8354C145.928 42.4447 146.725 43.6918 147.635 42.9677C148.356 42.3642 150.139 36.3698 149.912 35.2836C149.722 34.318 149.305 34.4387 148.698 35.6054Z" fill="#D9D9D9" fill-opacity="0.8"/>
<path d="M1.10935 44.4958C-0.0668021 47.312 -0.370325 48.5591 0.502304 47.3522C0.843768 46.9097 1.5267 46.6683 2.62697 46.6683C3.72724 46.6683 4.41017 46.9097 4.75163 47.3522C5.62426 48.5994 5.35868 47.1913 4.18252 44.4556C3.53754 43.0073 2.89255 41.8406 2.66491 41.8406C2.43727 41.8406 1.75434 43.0475 1.10935 44.4958ZM3.30989 44.0533C3.99282 45.5821 3.879 45.8637 2.62697 45.8637C2.01992 45.8637 1.48875 45.7832 1.48875 45.7028C1.48875 45.1798 2.36138 43.0475 2.58903 43.0475C2.74079 43.0475 3.08225 43.4901 3.30989 44.0533Z" fill="#D9D9D9" fill-opacity="0.8"/>
<path d="M6.42102 44.8574C6.42102 46.5874 6.57278 47.8748 6.80042 47.8748C7.02807 47.8748 7.17983 46.5874 7.17983 44.8574C7.17983 43.1275 7.02807 41.8401 6.80042 41.8401C6.57278 41.8401 6.42102 43.1275 6.42102 44.8574Z" fill="#D9D9D9" fill-opacity="0.8"/>
<path d="M10.2151 42.2425C10.2151 42.4436 10.6324 42.6448 11.1636 42.6448C12.0742 42.6448 12.1121 42.7252 12.1121 45.2598C12.1121 46.7483 12.2639 47.8748 12.4915 47.8748C12.7192 47.8748 12.8709 46.7483 12.8709 45.2598C12.8709 42.9264 12.9468 42.6448 13.5918 42.6448C14.0091 42.6448 14.4644 42.4436 14.5782 42.2425C14.73 42.0011 13.9332 41.8401 12.5295 41.8401C11.2395 41.8401 10.2151 42.0011 10.2151 42.2425Z" fill="#D9D9D9" fill-opacity="0.8"/>
<path d="M15.5266 44.8574V47.8748H17.6133C18.7515 47.8748 19.7001 47.6736 19.7001 47.4724C19.7001 47.2311 18.9412 47.0701 17.9927 47.0701C16.4372 47.0701 16.2854 46.9897 16.2854 46.0644C16.2854 45.1391 16.4372 45.0586 17.803 45.0586C18.6377 45.0586 19.3207 44.8574 19.3207 44.6563C19.3207 44.4149 18.6377 44.254 17.803 44.254C16.551 44.254 16.2854 44.1333 16.2854 43.4494C16.2854 42.7655 16.551 42.6448 17.7651 42.6448C18.5998 42.6448 19.3965 42.4436 19.5104 42.2425C19.6621 42.0011 18.9412 41.8401 17.6513 41.8401H15.5266V44.8574Z" fill="#D9D9D9" fill-opacity="0.8"/>
<path d="M21.2177 42.9267C19.2828 45.5417 21.8248 48.8407 24.7841 47.6337C25.9224 47.151 25.3912 46.7487 23.9115 46.9498C22.6215 47.151 22.356 47.0303 21.7869 46.105C21.2177 45.2199 21.1798 44.8176 21.5592 44.013C22.0524 42.806 23.4183 42.2026 24.3668 42.7256C25.1636 43.1681 25.5809 42.9267 25.2015 42.283C25.0877 42.0417 24.2909 41.8405 23.4942 41.8405C22.356 41.8405 21.8627 42.0819 21.2177 42.9267Z" fill="#D9D9D9" fill-opacity="0.8"/>
<path d="M26.5295 44.6161C26.5295 46.1851 26.7192 47.5529 26.9089 47.6736C27.1366 47.8345 27.2883 47.3518 27.2883 46.5069C27.2883 45.0586 27.2883 45.0586 28.9957 45.0586C30.703 45.0586 30.703 45.0586 30.703 46.4667C30.703 47.2311 30.8927 47.8748 31.0824 47.8748C31.31 47.8748 31.4618 46.5874 31.4618 44.8574C31.4618 43.1275 31.31 41.8401 31.0824 41.8401C30.8927 41.8401 30.703 42.3631 30.703 43.0471C30.703 44.2138 30.6271 44.254 28.9957 44.254C27.3642 44.254 27.2883 44.2138 27.2883 43.0471C27.2883 42.3631 27.1366 41.8401 26.9089 41.8401C26.6813 41.8401 26.5295 43.0471 26.5295 44.6161Z" fill="#D9D9D9" fill-opacity="0.8"/>
<path d="M32.9792 44.7368C32.9792 48.2368 33.6242 49.0414 33.8139 45.7828L33.9278 43.6505L35.4454 45.7425C36.2801 46.9092 37.0768 47.8345 37.2665 47.8748C37.4183 47.8748 37.5321 46.5069 37.5321 44.8574C37.5321 43.1275 37.3803 41.8401 37.1527 41.8401C36.963 41.8401 36.7733 42.8861 36.7733 44.1333L36.7353 46.4667L35.9007 45.2598C35.4454 44.6161 34.6107 43.5298 34.0416 42.8459L33.0172 41.639L32.9792 44.7368Z" fill="#D9D9D9" fill-opacity="0.8"/>
<path d="M39.4672 42.8861C39.0119 43.4896 38.6704 44.3747 38.6704 44.8574C38.6704 46.3862 40.0742 47.8748 41.5539 47.8748C43.2612 47.8748 44.3615 46.7081 44.3615 44.8574C44.3615 41.9608 41.0986 40.6735 39.4672 42.8861ZM42.768 42.8861C43.3371 43.2884 43.6027 43.8919 43.6027 44.8172C43.6027 46.4264 43.0336 47.0701 41.5918 47.0701C39.581 47.0701 38.7084 44.6161 40.188 43.0471C41.0986 42.0815 41.6298 42.0413 42.768 42.8861Z" fill="#D9D9D9" fill-opacity="0.8"/>
<path d="M45.4996 44.8574V47.8748H47.3967C48.459 47.8748 49.2937 47.6736 49.2937 47.4724C49.2937 47.2311 48.6107 47.0701 47.7761 47.0701H46.2584V44.4551C46.2584 42.9666 46.1067 41.8401 45.879 41.8401C45.6514 41.8401 45.4996 43.1275 45.4996 44.8574Z" fill="#D9D9D9" fill-opacity="0.8"/>
<path d="M50.8113 42.6448C50.356 43.1275 50.0525 43.9724 50.0525 44.8574C50.0525 46.7081 51.1528 47.8748 52.8601 47.8748C54.3398 47.8748 55.7436 46.3862 55.7436 44.8574C55.7436 44.3747 55.4021 43.4896 54.9468 42.8861C53.9604 41.5585 51.9495 41.4378 50.8113 42.6448ZM54.2259 43.0471C55.7056 44.6161 54.833 47.0701 52.7463 47.0701C51.3804 47.0701 50.8113 46.3862 50.8113 44.8172C50.8113 43.8919 51.0769 43.2884 51.646 42.8861C52.7842 42.0413 53.3154 42.0815 54.2259 43.0471Z" fill="#D9D9D9" fill-opacity="0.8"/>
<path d="M57.7923 42.1618C57.1852 42.5641 56.5023 44.0929 56.5023 44.978C56.5023 45.4205 56.8438 46.2251 57.2991 46.8286C58.7408 48.7597 61.814 47.9551 61.814 45.6217C61.814 44.7768 61.6622 44.6561 60.4102 44.6964C59.1961 44.7768 59.1581 44.8171 60.0308 44.9378C60.8655 45.0987 61.0931 45.2998 60.9793 45.9838C60.9034 46.6274 60.5619 46.9091 59.6893 46.9895C58.2855 47.1504 57.2611 46.2251 57.2611 44.8975C57.2611 43.0067 58.627 42.1216 60.5999 42.8055C61.5484 43.1274 61.776 42.4837 60.8275 42.0814C60.0308 41.7595 58.2855 41.7998 57.7923 42.1618Z" fill="#D9D9D9" fill-opacity="0.8"/>
<path d="M62.9523 44.8574C62.9523 46.5874 63.104 47.8748 63.3317 47.8748C63.5593 47.8748 63.7111 46.5874 63.7111 44.8574C63.7111 43.1275 63.5593 41.8401 63.3317 41.8401C63.104 41.8401 62.9523 43.1275 62.9523 44.8574Z" fill="#D9D9D9" fill-opacity="0.8"/>
<path d="M65.2286 44.8574V47.8748H67.3154C68.4536 47.8748 69.4021 47.6736 69.4021 47.4724C69.4021 47.2311 68.6433 47.0701 67.6948 47.0701C66.1392 47.0701 65.9874 46.9897 65.9874 46.0644C65.9874 45.1391 66.1392 45.0586 67.5051 45.0586C68.3398 45.0586 69.0227 44.8574 69.0227 44.6563C69.0227 44.4149 68.3398 44.254 67.5051 44.254C66.253 44.254 65.9874 44.1333 65.9874 43.4494C65.9874 42.7655 66.253 42.6448 67.5051 42.6448C68.3398 42.6448 69.0227 42.4436 69.0227 42.2425C69.0227 42.0011 68.188 41.8401 67.1257 41.8401H65.2286V44.8574Z" fill="#D9D9D9" fill-opacity="0.8"/>
<path d="M70.5023 42.4838C69.7815 43.4091 70.5023 44.3344 72.3994 45.0184C73.5376 45.3804 73.9549 45.7425 73.879 46.2253C73.7273 47.0299 71.8303 47.3115 71.0714 46.6276C70.7679 46.3862 70.3885 46.2655 70.2368 46.4264C69.7815 46.9092 71.375 47.8748 72.627 47.8748C73.917 47.8748 74.7137 47.2713 74.7137 46.2253C74.7137 45.3402 73.8411 44.6161 72.3614 44.2942C70.9197 43.9724 70.5782 43.2482 71.6405 42.6448C72.2097 42.3229 72.6649 42.3229 73.234 42.6448C74.1067 43.1678 74.562 42.9666 74.1446 42.2827C73.7652 41.5988 71.0714 41.7597 70.5023 42.4838Z" fill="#D9D9D9" fill-opacity="0.8"/>
<path d="M78.0904 41.9211C77.8627 42.4441 77.9386 47.5534 78.2042 47.7143C78.3559 47.835 78.5077 47.3523 78.5077 46.7086C78.5077 45.5419 78.5836 45.4614 80.0253 45.4614C81.9603 45.4614 82.0362 44.7373 80.1391 44.5763C78.963 44.4959 78.6595 44.2947 78.5836 43.5303C78.4698 42.7257 78.6215 42.6453 79.9874 42.6453C80.8221 42.6453 81.6188 42.4441 81.7326 42.243C81.8844 42.0016 81.2394 41.8406 80.0633 41.8406C79.0009 41.8406 78.0904 41.8809 78.0904 41.9211Z" fill="#D9D9D9" fill-opacity="0.8"/>
<path d="M83.9712 42.162C83.3642 42.5643 82.6813 44.0931 82.6813 44.9781C82.6813 46.3862 84.123 47.8748 85.5268 47.8748C88.0309 47.8748 89.3588 44.4954 87.6135 42.6448C86.8547 41.8401 84.8059 41.5585 83.9712 42.162ZM86.7788 42.8861C87.3479 43.2884 87.6135 43.8919 87.6135 44.8172C87.6135 46.3862 87.0444 47.0701 85.6786 47.0701C83.5918 47.0701 82.7192 44.6161 84.1989 43.0471C85.1095 42.0815 85.6406 42.0413 86.7788 42.8861Z" fill="#D9D9D9" fill-opacity="0.8"/>
<path d="M89.5105 44.857C89.5105 47.7134 90.0796 49.0812 90.3452 46.7881C90.4969 45.2593 91.1799 45.2191 92.5078 46.7478C93.1148 47.472 93.7598 47.9145 93.9116 47.7536C94.0633 47.5927 93.8357 47.0697 93.3804 46.5467C92.5837 45.6616 92.5837 45.6214 93.3045 45.1386C94.291 44.4949 94.291 42.8052 93.3425 42.242C92.9251 42.0408 91.9007 41.8397 91.0661 41.8397H89.5105V44.857ZM93.2287 43.6098C93.4184 44.5351 92.6975 45.0581 91.3316 45.0581C90.3831 45.0581 90.2693 44.8972 90.2693 43.811C90.2693 42.6443 90.3452 42.6041 91.6731 42.7248C92.7354 42.8052 93.1528 43.0466 93.2287 43.6098Z" fill="#D9D9D9" fill-opacity="0.8"/>
<path d="M98.8818 43.1276C97.1745 47.03 96.7571 48.6794 97.8574 47.2714C98.5403 46.4265 101.234 46.4668 101.879 47.3518C102.145 47.7541 102.448 47.9553 102.6 47.8346C102.903 47.4725 100.248 41.8402 99.7923 41.8402C99.6026 41.8402 99.1853 42.4437 98.8818 43.1276ZM100.437 44.0529C101.12 45.6219 101.006 45.8633 99.7165 45.8633C98.73 45.8633 98.5783 45.7426 98.8059 45.1391C98.9577 44.7771 99.1853 44.1334 99.2612 43.7311C99.5268 42.7655 99.9441 42.8862 100.437 44.0529Z" fill="#D9D9D9" fill-opacity="0.8"/>
<path d="M103.548 44.8574C103.548 46.5874 103.7 47.8748 103.928 47.8748C104.155 47.8748 104.307 47.3115 104.307 46.6678C104.307 45.5414 104.383 45.4609 105.825 45.4609C106.659 45.4609 107.342 45.2598 107.342 45.0586C107.342 44.8172 106.659 44.6563 105.825 44.6563C104.459 44.6563 104.307 44.5356 104.307 43.6505C104.307 42.7655 104.459 42.6448 105.787 42.6448C106.622 42.6448 107.418 42.4436 107.532 42.2425C107.684 42.0011 106.963 41.8401 105.673 41.8401H103.548V44.8574Z" fill="#D9D9D9" fill-opacity="0.8"/>
<path d="M108.86 44.8977C108.86 46.7885 109.012 47.8345 109.24 47.6736C109.467 47.5529 109.619 46.9897 109.619 46.4264C109.619 45.1391 110.378 45.2195 111.706 46.6678C112.313 47.3115 112.958 47.8748 113.185 47.8748C113.375 47.8748 113.147 47.4322 112.692 46.9092L111.819 45.9437L112.616 45.0988C113.565 44.0931 113.603 43.8919 112.806 42.7252C112.351 42.0413 111.857 41.8401 110.529 41.8401H108.86V44.8977ZM112.502 43.2482C112.844 44.1735 111.933 45.0586 110.719 45.0586C109.733 45.0586 109.619 44.8977 109.619 43.8517C109.619 42.7252 109.733 42.6448 110.947 42.6448C111.819 42.6448 112.389 42.8861 112.502 43.2482Z" fill="#D9D9D9" fill-opacity="0.8"/>
<path d="M114.551 44.8574C114.551 46.5874 114.703 47.8748 114.93 47.8748C115.158 47.8748 115.31 46.5874 115.31 44.8574C115.31 43.1275 115.158 41.8401 114.93 41.8401C114.703 41.8401 114.551 43.1275 114.551 44.8574Z" fill="#D9D9D9" fill-opacity="0.8"/>
<path d="M117.207 42.6448C115.613 44.3344 116.903 47.8748 119.104 47.8748C120.356 47.8748 121.38 47.5127 121.38 47.0701C121.38 46.869 120.735 46.8288 119.939 46.9494C117.776 47.2713 116.676 45.7828 117.435 43.6505C117.776 42.7252 119.37 42.162 120.242 42.6448C120.66 42.8861 121.039 42.8861 121.153 42.685C121.798 41.5988 118.231 41.5585 117.207 42.6448Z" fill="#D9D9D9" fill-opacity="0.8"/>
<path d="M123.505 44.0126C122.215 47.0299 122.026 47.8748 122.481 47.8748C122.709 47.8748 122.898 47.5931 122.898 47.2713C122.898 46.346 126.237 46.4264 126.92 47.3518C127.793 48.5989 127.527 47.1908 126.351 44.4551C125.706 43.0068 125.023 41.8401 124.833 41.8401C124.606 41.8401 123.998 42.8057 123.505 44.0126ZM125.478 44.0528C126.161 45.5816 126.047 45.8632 124.795 45.8632C124.188 45.8632 123.657 45.7828 123.657 45.7023C123.657 45.1793 124.53 43.0471 124.757 43.0471C124.909 43.0471 125.251 43.4896 125.478 44.0528Z" fill="#D9D9D9" fill-opacity="0.8"/>
</svg>
