<svg width="177" height="30" viewBox="0 0 177 30" fill="none" xmlns="http://www.w3.org/2000/svg">
<g clip-path="url(#clip0_80_2672)">
<mask id="mask0_80_2672" style="mask-type:luminance" maskUnits="userSpaceOnUse" x="0" y="0" width="177" height="30">
<path d="M176.594 0H0.594482V29.2188H176.594V0Z" fill="white"/>
</mask>
<g mask="url(#mask0_80_2672)">
<path d="M169.999 29.1491C172.228 29.1491 174.321 28.2847 176.004 27.3295L174.548 23.5989C173.365 24.2812 171.91 24.8272 170.226 24.8272C165.813 24.8272 164.949 21.688 164.949 17.2295C164.949 12.7711 165.495 9.26795 168.543 9.26795C171.136 9.26795 172.137 12.4981 171.728 17.2295L173.229 15.3188H163.539L163.448 18.5034H176.505C177.142 9.58641 174.412 5.3099 168.361 5.3099C162.31 5.3099 159.763 10.0414 159.763 17.2295C159.763 24.4178 162.811 29.1491 169.999 29.1491ZM151.027 29.1491C153.257 29.1491 155.35 28.2847 157.033 27.3295L155.577 23.5989C154.394 24.2812 152.938 24.8272 151.255 24.8272C146.842 24.8272 145.977 21.688 145.977 17.2295C145.977 12.7711 146.523 9.26795 149.572 9.26795C152.165 9.26795 153.166 12.4981 152.756 17.2295L154.258 15.3188H144.567L144.476 18.5034H157.533C158.17 9.58641 155.44 5.3099 149.39 5.3099C143.339 5.3099 140.791 10.0414 140.791 17.2295C140.791 24.4178 143.839 29.1491 151.027 29.1491ZM130.737 29.1491C135.423 29.1491 138.926 26.7835 138.926 21.324C138.926 17.366 136.515 14.6818 132.784 12.3616C130.464 10.9058 129.69 9.85937 129.69 8.54004C129.69 6.94771 131.055 5.99231 132.739 5.99231C134.149 5.99231 135.377 6.26529 136.606 7.0842L138.152 3.17164C136.606 2.07977 134.968 1.62481 132.784 1.57932C128.144 1.48833 124.459 4.26353 124.459 8.94949C124.459 12.3616 126.324 14.0904 129.918 16.5926C132.329 18.2759 133.739 19.4588 133.739 21.324C133.739 23.4168 132.238 24.5996 129.918 24.5996C128.325 24.5996 126.688 23.8262 125.414 23.1894L123.822 27.4205C125.414 28.3302 128.098 29.1491 130.737 29.1491Z" fill="#D9D9D9" fill-opacity="0.8"/>
<path d="M97.8433 25.8281L98.8898 24.2811C98.1619 24.5542 97.2975 24.8271 96.2055 24.8271C92.3841 24.8271 91.0647 21.6881 91.0647 17.2295C91.0647 12.771 91.9291 9.2679 95.5687 9.2679C96.3876 9.2679 97.8433 9.13141 99.1172 10.6782L97.8433 8.72195V25.8281ZM96.0692 29.1492C98.2983 29.1492 100.664 28.7851 102.756 27.7843V0L97.8433 0.909898V6.76568L100.255 6.85666C98.8898 5.85578 97.1154 5.30984 94.9771 5.30984C88.9264 5.30984 85.8783 10.0413 85.8783 17.2295C85.8783 24.4177 88.8809 29.1492 96.0692 29.1492ZM115.404 29.1492C117.633 29.1492 119.726 28.2848 121.409 27.3294L119.954 23.5988C118.771 24.2811 117.315 24.8271 115.631 24.8271C111.219 24.8271 110.354 21.6881 110.354 17.2295C110.354 12.771 110.9 9.2679 113.948 9.2679C116.541 9.2679 117.542 12.498 117.133 17.2295L118.634 15.3187H108.944L108.853 18.5033H121.91C122.547 9.58636 119.817 5.30984 113.766 5.30984C107.715 5.30984 105.168 10.0413 105.168 17.2295C105.168 24.4177 108.216 29.1492 115.404 29.1492ZM74.6866 24.8271C71.6383 24.8271 70.7739 21.6881 70.7739 17.2295C70.7739 12.771 71.6383 9.2679 74.6866 9.2679C77.7346 9.2679 78.599 12.771 78.599 17.2295C78.599 21.6881 77.7346 24.8271 74.6866 24.8271ZM74.6866 29.1492C80.7373 29.1492 83.7856 24.4177 83.7856 17.2295C83.7856 10.0413 80.7373 5.30984 74.6866 5.30984C68.6356 5.30984 65.5876 10.0413 65.5876 17.2295C65.5876 24.4177 68.6356 29.1492 74.6866 29.1492ZM58.4903 29.1492C60.6215 29.1511 62.7076 28.5349 64.4956 27.3749L62.9488 23.2348C61.7659 23.9627 60.4466 24.5087 58.9908 24.5087C54.8963 24.5087 52.9854 20.5052 52.9854 15.1822C52.9854 9.44986 55.3057 6.26524 59.1727 6.26524C60.401 6.26524 61.6749 6.76568 62.6759 7.31161L64.3137 3.26257C62.7669 2.21618 61.0381 1.57926 58.4903 1.57926C51.848 1.57926 47.4351 6.90215 47.4351 15.4097C47.4351 25.1 52.758 29.1492 58.4903 29.1492Z" fill="#D9D9D9" fill-opacity="0.8"/>
<path d="M16.4008 5.34375L18.2837 10.15C15.4098 11.2897 11.644 13.9158 7.97736 17.1861C11.644 20.4563 15.4098 23.0329 18.2837 24.2716L16.4504 28.9789C11.8423 26.997 6.19359 22.6364 0.594482 17.1365L0.93042 16.808C6.41715 11.465 11.8849 7.28609 16.4008 5.34375ZM26.0133 5.34375C30.6215 7.32573 36.2205 11.6365 41.8198 17.1365L41.4838 17.4652C35.995 22.8099 30.4798 27.0366 25.9638 28.9789L24.1306 24.2716C27.0044 23.0329 30.7702 20.4563 34.4369 17.1861L34.1394 16.9224C30.5673 13.775 26.9267 11.2589 24.1306 10.15L26.0133 5.34375ZM21.2071 13.3707C23.3689 13.3707 25.1216 15.1233 25.1216 17.2852C25.1216 19.447 23.3689 21.1995 21.2071 21.1995C19.0452 21.1995 17.2927 19.447 17.2927 17.2852C17.2927 15.1233 19.0452 13.3707 21.2071 13.3707Z" fill="#D9D9D9" fill-opacity="0.8"/>
</g>
</g>
<defs>
<clipPath id="clip0_80_2672">
<rect width="176" height="30" fill="white" transform="translate(0.594482)"/>
</clipPath>
</defs>
</svg>
