<svg width="204" height="30" viewBox="0 0 204 30" fill="none" xmlns="http://www.w3.org/2000/svg">
<g clip-path="url(#clip0_80_2670)">
<path d="M66.95 0.704934V16.5773C66.95 20.0844 68.9049 22.1552 72.2976 22.1552C76.0931 22.1552 78.2747 19.8541 78.2747 15.4259V0.704934H85.3486V28.0198H78.28V24.8555C76.6135 27.4432 73.9097 28.7088 70.1724 28.7088C63.8473 28.7106 59.8796 24.1101 59.8796 17.4388V0.704934H66.95ZM142.917 0.188069C150.969 0.203919 156.649 6.65379 156.63 14.2516C156.631 15.0028 156.572 15.7529 156.453 16.4947L135.638 16.456C136.436 19.7346 139.134 22.0973 143.219 22.1061C145.69 22.1061 148.337 21.1955 149.951 19.1281L154.774 22.9956C152.295 26.4991 147.919 28.5612 143.264 28.5525C135.046 28.5243 128.731 22.3592 128.745 14.3658C128.761 6.71708 134.235 0.172276 142.917 0.188069ZM187.801 0.188112C192.114 0.188112 194.587 1.51008 196.253 4.04152L196.916 0.701429H203.384V28.0198H196.916L196.081 25.207C194.184 27.278 191.826 28.5472 187.801 28.5472C181.591 28.5383 174.517 23.0747 174.517 14.5645C174.517 5.99634 181.474 0.188112 187.801 0.188112ZM42.8803 0.188112C50.988 0.188112 57.4291 6.51669 57.4291 14.3342C57.4291 22.0973 50.988 28.5383 42.8803 28.5383C34.829 28.5383 28.3896 22.0903 28.3896 14.3342C28.3896 6.51317 34.829 0.188112 42.8803 0.188112ZM115.615 0.0140773C120.175 0.0140773 124.215 2.03395 126.409 5.78538L120.179 9.08152C119.256 7.23393 117.525 6.19499 115.33 6.19499C113.196 6.19499 112.155 6.94562 112.155 8.21485C112.155 12.4867 127.047 9.77415 127.047 19.993C127.047 25.3037 122.719 28.5348 115.735 28.5348C109.789 28.5295 105.633 26.5677 103.557 22.0656L109.844 18.7748C110.883 21.0267 112.961 22.3539 115.905 22.3539C118.617 22.3539 119.657 21.489 119.657 20.2761C119.657 15.8812 104.765 18.5445 104.765 8.49788C104.765 2.95687 109.613 0.0140773 115.615 0.0140773ZM14.7973 0.130101C17.2181 0.113133 19.6051 0.698776 21.7433 1.83425C23.8813 2.96973 25.7033 4.61935 27.0448 6.63448L21.0081 10.1363C20.3097 9.13813 19.3799 8.32387 18.2985 7.76305C17.2168 7.20224 16.0156 6.9115 14.7973 6.91574C10.6574 6.91574 7.26455 10.3666 7.26455 14.3342C7.26455 18.3018 10.6574 21.7528 14.7973 21.7528C16.073 21.761 17.3297 21.4423 18.4472 20.8267C19.5644 20.2112 20.5055 19.3195 21.1804 18.2369L27.1573 21.8019C25.832 23.876 24.0033 25.5808 21.8416 26.7573C19.6796 27.9342 17.2551 28.5443 14.7938 28.5315C6.74597 28.5383 0.306641 22.0903 0.306641 14.3342C0.306641 6.45692 6.74597 0.130101 14.7973 0.130101ZM103.515 0L102.211 6.60105C101.97 6.57482 101.729 6.56132 101.486 6.56062C97.6929 6.56941 95.5113 8.87407 95.5218 13.3005L95.5605 28.018L88.4883 28.0338L88.4285 0.720756L95.5007 0.704934V3.86922C97.1479 1.29912 99.8235 0.029885 103.515 0ZM174.581 0.0193561L173.27 6.61337C173.036 6.59053 172.797 6.57294 172.546 6.57294C168.756 6.57294 166.569 8.87233 166.569 13.3006V28.0198H159.497V0.703194H166.569V3.86748C168.224 1.30265 170.895 0.0386934 174.581 0.0193561ZM42.8803 6.97375C38.7405 6.97375 35.3476 10.4246 35.3476 14.3342C35.3476 18.3018 38.7405 21.7528 42.8803 21.7528C47.0853 21.7528 50.4711 18.3018 50.4711 14.3342C50.4711 10.4246 47.0784 6.97375 42.8803 6.97375ZM189.01 6.97634C187.005 6.98407 185.085 7.78786 183.674 9.21091C182.26 10.634 181.473 12.5597 181.48 14.5645C181.48 18.3599 184.872 21.7528 189.015 21.7528C193.207 21.7528 196.598 18.3599 196.598 14.5065C196.591 12.5017 195.786 10.5821 194.364 9.16989C192.94 7.75772 191.014 6.96869 189.01 6.97634ZM142.849 6.62918C139.57 6.62918 136.923 8.57346 135.882 11.5039L149.509 11.5286C149.112 8.7686 146.242 6.63445 142.849 6.62918Z" fill="#D9D9D9" fill-opacity="0.8"/>
</g>
<defs>
<clipPath id="clip0_80_2670">
<rect width="203.077" height="30" fill="white" transform="translate(0.306641)"/>
</clipPath>
</defs>
</svg>
