<svg width="224" height="50" viewBox="0 0 224 50" fill="none" xmlns="http://www.w3.org/2000/svg">
<path d="M14.5462 11.3976C11.3266 11.8052 8.58114 13.1779 6.35984 15.4991C2.9655 19.0515 1.82573 24.2262 3.38979 28.9433C4.69595 32.8701 7.94886 36.123 11.8424 37.3876C13.3732 37.8868 14.0554 37.9783 16.0687 37.9783C18.1652 37.9783 18.8557 37.8701 20.5029 37.3044C26.1851 35.3244 29.8707 29.6671 29.3881 23.6771C29.2301 21.8135 28.8307 20.3493 27.9988 18.6771C27.3665 17.4042 26.5928 16.3477 25.4697 15.2245C23.5645 13.311 21.26 12.0881 18.5895 11.564C17.5745 11.3643 15.478 11.2811 14.5462 11.3976ZM17.9655 12.3626C20.9522 12.8951 23.7059 14.9916 25.0953 17.7786C26.5429 20.6904 26.5595 24.1929 25.1286 27.0548C24.3965 28.519 23.0903 30.0415 21.7841 30.9317C17.1169 34.1347 10.8607 32.8452 7.75751 28.0365C5.20344 24.0848 5.69429 18.8102 8.93056 15.341C11.2517 12.8618 14.6044 11.7553 17.9655 12.3626Z" fill="#D9D9D9" fill-opacity="0.8"/>
<path d="M14.1551 12.8118C8.52287 14.0181 5.42802 19.7835 7.64932 24.9333C8.09025 25.9566 8.65598 26.7802 9.49624 27.6288C12.2833 30.4408 16.4929 31.1479 20.1036 29.4175C22.7242 28.1612 24.4463 25.9566 25.0703 23.0864C25.1285 22.7952 25.1701 22.088 25.1701 21.3809C25.1618 20.3659 25.1285 20.0497 24.9455 19.3675C24.5462 17.8451 23.8307 16.5888 22.7325 15.4491C21.3432 14.0098 19.7375 13.1446 17.7908 12.7702C16.8756 12.5955 15.062 12.6121 14.1551 12.8118ZM17.6909 13.6854C18.473 13.9017 19.5462 14.4424 20.22 14.9582C21.3432 15.8151 22.1751 17.0547 22.5744 18.4358C22.8407 19.3675 22.8407 20.8151 22.5744 21.7469C21.9255 24.0265 20.1285 25.7902 17.7575 26.4724C16.8174 26.7469 14.9039 26.7469 13.9638 26.4724C11.6011 25.7902 9.79575 24.0181 9.14683 21.7386C8.88892 20.8235 8.88892 19.3592 9.14683 18.4441C9.87062 15.8983 12.0919 13.9599 14.7791 13.5273C15.2866 13.4524 17.1918 13.5522 17.6909 13.6854Z" fill="#D9D9D9" fill-opacity="0.8"/>
<path d="M15.0787 13.9849C13.4897 14.2511 11.9839 15.4158 11.2102 16.9882C10.7609 17.895 10.5779 18.6438 10.5779 19.6588C10.5779 22.2461 12.1669 24.4757 14.5296 25.2079C15.2701 25.4325 16.4597 25.4574 17.2251 25.2495C19.122 24.7586 20.5945 23.2611 21.1519 21.2561C21.3932 20.4158 21.4098 19.0265 21.2018 18.2195C20.4448 15.3243 17.8491 13.5273 15.0787 13.9849ZM17.0837 14.717C17.6661 14.9999 18.1652 15.4824 18.4897 16.0731C18.7559 16.5639 18.7726 16.6471 18.7726 17.3876C18.7726 18.1114 18.7476 18.2278 18.498 18.7353C18.1819 19.3759 17.7326 19.8168 17.0754 20.1247C16.6844 20.3077 16.493 20.341 15.8607 20.341C15.2201 20.341 15.0454 20.3077 14.6378 20.1163C14.0305 19.8335 13.4564 19.2594 13.1736 18.6521C12.9822 18.2445 12.9489 18.0698 12.9489 17.3876C12.9489 16.722 12.9822 16.5307 13.1569 16.1812C13.4481 15.5822 14.1802 14.8751 14.7376 14.6588C15.3616 14.4092 16.5013 14.4425 17.0837 14.717Z" fill="#D9D9D9" fill-opacity="0.8"/>
<path d="M161.069 14.6172C160.694 14.8085 160.578 14.925 160.395 15.2994C160.004 16.0565 160.145 16.8135 160.761 17.3543C161.834 18.3027 163.49 17.529 163.49 16.0814C163.49 15.3576 163.115 14.7919 162.475 14.5173C162.017 14.3343 161.585 14.3593 161.069 14.6172Z" fill="#D9D9D9" fill-opacity="0.8"/>
<path d="M34.3716 24.2427V32.3625H37.3915C39.0471 32.3625 40.7277 32.321 41.1104 32.2794C44.2884 31.8883 46.6927 30.1828 47.6744 27.6288C48.1237 26.4557 48.2235 25.8151 48.2152 24.2095C48.2069 22.92 48.1819 22.662 47.9906 21.9466C47.2085 18.9932 45.137 17.0797 41.9756 16.3808C41.2185 16.2145 40.8691 16.1978 37.7659 16.1645L34.3716 16.1229V24.2427ZM41.5679 18.5023C43.0571 18.91 44.1969 19.8001 44.8375 21.0314C45.8608 22.9948 45.8108 26.0065 44.721 27.7952C44.3133 28.469 43.4481 29.2511 42.741 29.5838C41.6678 30.0913 41.3599 30.1413 39.097 30.1828L37.0338 30.2161V24.2511V18.286L39.0554 18.3193C40.5945 18.3526 41.1852 18.3942 41.5679 18.5023Z" fill="#D9D9D9" fill-opacity="0.8"/>
<path d="M95.686 24.2511V32.3625H99.7626H103.839V31.3226V30.2827L101.077 30.266L98.3067 30.2411L98.2817 23.1862L98.2651 16.1396H96.9756H95.686V24.2511Z" fill="#D9D9D9" fill-opacity="0.8"/>
<path d="M204.172 24.1762C202.591 28.5938 201.293 32.2378 201.277 32.2877C201.26 32.3293 201.801 32.3625 202.616 32.3625H203.989L204.305 31.464C204.48 30.9732 204.738 30.2328 204.887 29.8251L205.154 29.0764L208.565 29.0514C211.751 29.0348 211.976 29.0431 212.034 29.1762C212.067 29.2594 212.308 29.9416 212.575 30.6987C212.841 31.4557 213.082 32.1379 213.115 32.2128C213.165 32.3459 213.315 32.3625 214.546 32.3625C215.611 32.3625 215.911 32.3376 215.886 32.2544C215.861 32.2045 214.555 28.5522 212.982 24.1429L210.12 16.1396H208.581H207.042L204.172 24.1762ZM209.929 23.103L211.227 26.8301L208.598 26.8551C207.159 26.8634 205.961 26.8634 205.952 26.8467C205.911 26.8051 208.531 19.3842 208.581 19.3842C208.606 19.3842 209.214 21.0564 209.929 23.103Z" fill="#D9D9D9" fill-opacity="0.8"/>
<path d="M218.481 24.2511V32.3625H219.812H221.143V24.2511V16.1396H219.812H218.481V24.2511Z" fill="#D9D9D9" fill-opacity="0.8"/>
<path d="M55.3366 19.3926C53.3067 19.6921 51.6927 20.8318 50.8108 22.5956C50.2618 23.6854 50.137 24.3094 50.137 25.915C50.137 27.138 50.1619 27.4209 50.3283 27.9866C50.7193 29.3427 51.5762 30.6322 52.5413 31.3227C53.7476 32.1796 54.9539 32.5457 56.543 32.5457C58.3649 32.5373 59.7792 31.9966 60.9107 30.8734C61.5679 30.2245 61.8258 29.8501 62.1919 29.0099L62.4082 28.5357H60.9606H59.5213L59.4298 28.7437C59.2717 29.0848 58.5729 29.7836 58.2068 29.9666C57.1336 30.5157 55.6112 30.4824 54.5962 29.8917C53.6977 29.3676 53.0321 28.4026 52.8574 27.3876L52.7826 26.955H57.716H62.6411L62.6994 26.3227C62.8824 24.3843 62.2751 22.4541 61.0854 21.1979C59.7127 19.7337 57.5662 19.0598 55.3366 19.3926ZM57.4664 21.6638C58.8142 22.0215 59.7543 23.0615 59.9539 24.4009L60.0122 24.7919H56.4182H52.8158L52.8741 24.4342C53.0571 23.2528 54.122 22.0298 55.2784 21.6721C55.7443 21.5224 56.934 21.5224 57.4664 21.6638Z" fill="#D9D9D9" fill-opacity="0.8"/>
<path d="M69.5961 19.4258C68.7891 19.5672 68.4646 19.6837 67.6909 20.0747C66.8673 20.5073 66.027 21.2811 65.5278 22.0797C64.8124 23.2361 64.413 24.9416 64.5212 26.4225C64.7209 29.2677 66.2766 31.4058 68.7308 32.2295C70.8606 32.9366 73.3648 32.529 75.037 31.1979C75.6859 30.6737 76.5179 29.484 76.7508 28.7187L76.809 28.5356H75.4031H73.9971L73.7475 28.935C73.6144 29.1513 73.3315 29.4757 73.1152 29.6504C71.8839 30.6571 69.6876 30.5739 68.423 29.4757C68.0237 29.1263 67.5911 28.4192 67.3997 27.8118C67.1002 26.8468 66.5262 26.9549 72.1418 26.9549H77.0503L77.1002 26.7386C77.1917 26.3726 77.0753 24.2844 76.9338 23.7519C76.7425 23.0448 76.21 22.0048 75.7441 21.4225C74.4297 19.8002 71.9505 18.9932 69.5961 19.4258ZM72.0669 21.7053C73.0819 22.0298 73.8889 22.7869 74.23 23.7519C74.3132 24.0015 74.3881 24.3343 74.3881 24.5007V24.7919H70.8107H67.2333L67.2833 24.5589C67.616 23.0614 68.3814 22.1463 69.6876 21.697C70.2699 21.4974 71.3931 21.4974 72.0669 21.7053Z" fill="#D9D9D9" fill-opacity="0.8"/>
<path d="M85.7859 19.4175C84.6212 19.6671 83.6229 20.1996 82.8658 20.9733L82.4581 21.3893V20.4741V19.5507H81.127H79.7959V29.0349V38.519H81.127H82.4581V34.5174V30.5157L82.9823 30.9982C83.2734 31.2728 83.7227 31.6139 83.9723 31.7636C85.0039 32.3793 86.4265 32.6705 87.6162 32.5207C89.1054 32.3377 90.0122 31.8884 91.0688 30.8319C91.7094 30.1913 91.8841 29.9583 92.2085 29.2844C92.8741 27.9117 93.107 26.5723 92.9407 25.0748C92.741 23.1946 92.0172 21.7387 90.736 20.6488C90.2535 20.2329 89.1969 19.6838 88.5313 19.5007C87.8741 19.326 86.4432 19.2844 85.7859 19.4175ZM87.4082 21.7304C87.9739 21.8718 88.6728 22.2794 89.0971 22.7037C89.929 23.5357 90.2951 24.5007 90.2951 25.8735C90.2867 26.8718 90.1536 27.4874 89.7709 28.2112C88.7643 30.0997 86.4848 30.8152 84.5796 29.8502C84.1137 29.6089 83.3317 28.8352 83.0405 28.3194C82.6911 27.7204 82.4581 26.7387 82.4581 25.9234C82.4581 24.3843 83.0405 23.1363 84.122 22.346C85.0704 21.6472 86.2352 21.4309 87.4082 21.7304Z" fill="#D9D9D9" fill-opacity="0.8"/>
<path d="M110.278 19.4175C108.872 19.6837 107.957 20.1662 107 21.123C105.752 22.3709 105.22 23.7852 105.22 25.8734C105.212 28.0697 105.827 29.6421 107.208 30.9316C108.365 32.0132 109.771 32.5373 111.535 32.5456C114.147 32.5539 116.127 31.4225 117.158 29.3177C117.333 28.9516 117.483 28.6188 117.483 28.5939C117.483 28.5606 116.851 28.5356 116.085 28.5356H114.688L114.396 28.9682C114.055 29.484 113.431 29.9749 112.907 30.1662C112.366 30.3493 111.426 30.4075 110.811 30.2827C109.421 30.0165 108.398 29.0514 108.032 27.6621C107.816 26.8717 107.275 26.9549 112.824 26.9549H117.724L117.782 26.6554C117.891 26.098 117.757 24.2927 117.566 23.6271C116.967 21.5556 115.42 20.0581 113.323 19.5173C112.583 19.326 111.027 19.2761 110.278 19.4175ZM112.841 21.7469C113.556 22.0048 114.139 22.4291 114.513 22.9782C114.821 23.4358 115.07 24.1429 115.07 24.5589V24.7919H111.493C109.53 24.7919 107.916 24.7586 107.916 24.7253C107.916 24.5506 108.207 23.7103 108.381 23.3609C108.781 22.5789 109.488 21.9716 110.32 21.7053C111.027 21.4807 112.134 21.4974 112.841 21.7469Z" fill="#D9D9D9" fill-opacity="0.8"/>
<path d="M124.513 19.4175C122.034 19.9084 120.303 21.7054 119.754 24.3593C119.571 25.2578 119.638 27.1713 119.896 28.0365C120.386 29.742 121.568 31.2395 122.974 31.93C123.897 32.3793 124.638 32.5457 125.686 32.5457C127.2 32.5457 128.515 32.0298 129.563 31.0398L130.129 30.5157V31.4392V32.3626H131.46H132.791V25.9566V19.5506H131.46H130.129V20.4325V21.3144L129.546 20.7736C128.914 20.1912 128.074 19.7254 127.258 19.509C126.551 19.326 125.22 19.2761 124.513 19.4175ZM127.258 21.7303C127.841 21.8718 128.539 22.3044 128.997 22.8036C129.771 23.6438 130.129 24.6172 130.129 25.915C130.129 26.8302 129.962 27.5623 129.604 28.2362C128.356 30.6072 125.17 30.9899 123.398 28.9849C122.233 27.6704 121.967 25.4408 122.774 23.7437C123.099 23.0531 123.797 22.3543 124.505 22.0049C125.378 21.5723 126.285 21.4808 127.258 21.7303Z" fill="#D9D9D9" fill-opacity="0.8"/>
<path d="M141.859 19.3925C141.11 19.5173 140.12 20.0497 139.579 20.6321C139.322 20.915 139.114 21.1729 139.114 21.2228C139.114 21.2644 139.08 21.2977 139.03 21.2977C138.98 21.2977 138.947 20.9482 138.947 20.4241V19.5506H137.658H136.368V25.9566V32.3625H137.658H138.947V28.9682C138.947 27.1046 138.989 25.2577 139.03 24.8501C139.188 23.494 139.588 22.8118 140.495 22.3709C140.985 22.1296 141.135 22.0963 141.951 22.063L142.857 22.0215V20.6654V19.301L142.591 19.3093C142.441 19.3176 142.109 19.3509 141.859 19.3925Z" fill="#D9D9D9" fill-opacity="0.8"/>
<path d="M150.719 19.4175C149.713 19.6504 148.972 20.0331 148.298 20.6487L147.932 20.9898V20.266V19.5506H146.643H145.353V25.9566V32.3625H146.634H147.924L147.949 28.3026C147.974 24.3176 147.982 24.2427 148.165 23.7186C148.681 22.296 149.663 21.6138 151.218 21.6138C152.783 21.6138 153.806 22.3126 154.272 23.6937C154.455 24.2344 154.455 24.3675 154.488 28.3026L154.513 32.3625H155.803H157.084V28.2611C157.084 25.8068 157.05 23.9516 156.992 23.6271C156.784 22.3459 156.135 21.1229 155.303 20.4574C154.821 20.0664 154.047 19.6754 153.407 19.5007C152.758 19.3259 151.318 19.276 150.719 19.4175Z" fill="#D9D9D9" fill-opacity="0.8"/>
<path d="M172.017 19.4341C171.21 19.6088 170.328 20.0581 169.779 20.5572L169.313 20.9815V20.266V19.5506H168.024H166.734V25.9566V32.3625H168.024H169.313V28.5106C169.313 24.4175 169.355 23.9516 169.729 23.2111C169.995 22.6953 170.519 22.1629 171.01 21.9216C172.333 21.281 174.247 21.6138 175.054 22.6371C175.228 22.8617 175.461 23.2611 175.569 23.519C175.761 24.0015 175.761 24.0264 175.786 28.1779L175.811 32.3625H177.142H178.473L178.448 28.0115C178.415 23.8684 178.406 23.6354 178.232 23.0198C177.741 21.2311 176.485 19.9582 174.762 19.509C174.03 19.3093 172.724 19.276 172.017 19.4341Z" fill="#D9D9D9" fill-opacity="0.8"/>
<path d="M185.861 19.4175C184.605 19.6838 183.614 20.2328 182.749 21.148C181.202 22.7952 180.636 25.2328 181.218 27.762C181.518 29.0681 182.134 30.1413 183.115 31.0482C184.039 31.9051 185.079 32.3709 186.385 32.5207C188.132 32.7204 189.779 32.1713 191.002 30.9816L191.526 30.4658V31.8551C191.526 32.7786 191.485 33.4109 191.402 33.7603C190.994 35.4824 189.738 36.4392 187.866 36.4392C186.318 36.4392 184.912 35.6904 184.38 34.5839L184.189 34.1929H182.907C182.025 34.1929 181.626 34.2179 181.626 34.2844C181.626 34.5507 181.926 35.4575 182.15 35.8984C182.5 36.5723 183.431 37.4791 184.164 37.8701C184.488 38.0365 185.087 38.2778 185.495 38.4026C186.194 38.6189 186.343 38.6355 187.783 38.6355C188.997 38.6438 189.438 38.6106 189.862 38.4941C192.184 37.8701 193.756 36.0731 194.105 33.6521C194.155 33.3027 194.189 30.3493 194.189 26.3061V19.5506H192.857H191.526V20.4408V21.331L191.094 20.915C190.37 20.2162 189.58 19.767 188.656 19.5174C187.957 19.326 186.543 19.2761 185.861 19.4175ZM188.847 21.8052C190.886 22.5041 191.976 24.8585 191.36 27.2378C190.894 29.0764 189.405 30.2828 187.616 30.2828C186.543 30.2828 185.611 29.8668 184.846 29.0432C184.064 28.1863 183.706 27.2212 183.706 25.915C183.706 24.5007 184.097 23.4941 184.962 22.6704C186.019 21.6638 187.491 21.331 188.847 21.8052Z" fill="#D9D9D9" fill-opacity="0.8"/>
<path d="M160.495 25.9566V32.3625H161.826H163.157V25.9566V19.5506H161.826H160.495V25.9566Z" fill="#D9D9D9" fill-opacity="0.8"/>
<path d="M197.159 29.2344C196.152 29.509 195.636 30.6903 196.127 31.6221C196.768 32.8368 198.548 32.8035 199.105 31.5722C199.463 30.7902 199.197 29.8501 198.506 29.4341C198.04 29.1596 197.666 29.1013 197.159 29.2344Z" fill="#D9D9D9" fill-opacity="0.8"/>
</svg>
