<svg width="220" height="28" viewBox="0 0 220 28" fill="none" xmlns="http://www.w3.org/2000/svg">
<path d="M12.5462 0.39757C9.32657 0.805223 6.58114 2.17794 4.35984 4.49907C0.965501 8.05148 -0.174266 13.2262 1.38979 17.9433C2.69595 21.8701 5.94886 25.123 9.84237 26.3876C11.3732 26.8868 12.0554 26.9783 14.0687 26.9783C16.1652 26.9783 16.8557 26.8701 18.5029 26.3044C24.1851 24.3244 27.8707 18.6671 27.3881 12.6771C27.2301 10.8135 26.8307 9.34932 25.9988 7.6771C25.3665 6.40423 24.5928 5.34765 23.4697 4.22453C21.5645 2.31105 19.26 1.08809 16.5895 0.563959C15.5745 0.364292 13.478 0.281097 12.5462 0.39757ZM15.9655 1.36263C18.9522 1.89507 21.7059 3.99158 23.0953 6.7786C24.5429 9.69042 24.5595 13.1929 23.1286 16.0548C22.3965 17.519 21.0903 19.0415 19.7841 19.9317C15.1169 23.1347 8.86068 21.8452 5.75751 17.0365C3.20344 13.0848 3.69429 7.81022 6.93056 4.341C9.25169 1.8618 12.6044 0.755308 15.9655 1.36263Z" fill="#D9D9D9" fill-opacity="0.8"/>
<path d="M12.1551 1.81181C6.52287 3.01813 3.42802 8.78352 5.64932 13.9333C6.09025 14.9566 6.65598 15.7802 7.49624 16.6288C10.2833 19.4408 14.4929 20.1479 18.1036 18.4175C20.7242 17.1612 22.4463 14.9566 23.0703 12.0864C23.1285 11.7952 23.1701 11.088 23.1701 10.3809C23.1618 9.36588 23.1285 9.04974 22.9455 8.36755C22.5462 6.84509 21.8307 5.58885 20.7325 4.44908C19.3432 3.00981 17.7375 2.14459 15.7908 1.77021C14.8756 1.5955 13.062 1.61214 12.1551 1.81181ZM15.6909 2.68535C16.473 2.90166 17.5462 3.44242 18.22 3.95823C19.3432 4.81514 20.1751 6.05474 20.5744 7.43577C20.8407 8.36755 20.8407 9.81514 20.5744 10.7469C19.9255 13.0265 18.1285 14.7902 15.7575 15.4724C14.8174 15.7469 12.9039 15.7469 11.9638 15.4724C9.60107 14.7902 7.79575 13.0181 7.14683 10.7386C6.88892 9.82345 6.88892 8.35923 7.14683 7.44409C7.87062 4.89833 10.0919 2.95989 12.7791 2.52728C13.2866 2.45241 15.1918 2.55224 15.6909 2.68535Z" fill="#D9D9D9" fill-opacity="0.8"/>
<path d="M13.0787 2.9849C11.4897 3.25112 9.98387 4.41584 9.21016 5.98822C8.76091 6.89505 8.57788 7.6438 8.57788 8.65877C8.57788 11.2461 10.1669 13.4757 12.5296 14.2079C13.2701 14.4325 14.4597 14.4574 15.2251 14.2495C17.122 13.7586 18.5945 12.2611 19.1519 10.2561C19.3932 9.41585 19.4098 8.02649 19.2018 7.21951C18.4448 4.32433 15.8491 2.52733 13.0787 2.9849ZM15.0837 3.71701C15.6661 3.99987 16.1652 4.4824 16.4897 5.07308C16.7559 5.56393 16.7726 5.64713 16.7726 6.38756C16.7726 7.11135 16.7476 7.22783 16.498 7.73531C16.1819 8.37591 15.7326 8.81684 15.0754 9.12466C14.6844 9.30769 14.493 9.34097 13.8607 9.34097C13.2201 9.34097 13.0454 9.30769 12.6378 9.11634C12.0305 8.83348 11.4564 8.25944 11.1736 7.65212C10.9822 7.24446 10.9489 7.06976 10.9489 6.38756C10.9489 5.722 10.9822 5.53065 11.1569 5.18124C11.4481 4.58224 12.1802 3.87508 12.7376 3.65877C13.3616 3.40919 14.5013 3.44247 15.0837 3.71701Z" fill="#D9D9D9" fill-opacity="0.8"/>
<path d="M159.069 3.61718C158.694 3.80853 158.578 3.925 158.395 4.29938C158.004 5.05645 158.145 5.81352 158.761 6.35429C159.834 7.30271 161.49 6.529 161.49 5.08141C161.49 4.35761 161.115 3.79189 160.475 3.51735C160.017 3.33432 159.585 3.35928 159.069 3.61718Z" fill="#D9D9D9" fill-opacity="0.8"/>
<path d="M32.3716 13.2427V21.3625H35.3915C37.0471 21.3625 38.7277 21.321 39.1104 21.2794C42.2884 20.8883 44.6927 19.1828 45.6744 16.6288C46.1237 15.4557 46.2235 14.8151 46.2152 13.2095C46.2069 11.92 46.1819 11.662 45.9906 10.9466C45.2085 7.99316 43.137 6.07968 39.9756 5.38085C39.2185 5.21446 38.8691 5.19782 35.7659 5.16454L32.3716 5.12295V13.2427ZM39.5679 7.50231C41.0571 7.90997 42.1969 8.80015 42.8375 10.0314C43.8608 11.9948 43.8108 15.0065 42.721 16.7952C42.3133 17.469 41.4481 18.2511 40.741 18.5838C39.6678 19.0913 39.3599 19.1413 37.097 19.1828L35.0338 19.2161V13.2511V7.28601L37.0554 7.31928C38.5945 7.35256 39.1852 7.39416 39.5679 7.50231Z" fill="#D9D9D9" fill-opacity="0.8"/>
<path d="M93.686 13.2511V21.3625H97.7626H101.839V20.3226V19.2827L99.0771 19.266L96.3067 19.2411L96.2817 12.1862L96.2651 5.13959H94.9756H93.686V13.2511Z" fill="#D9D9D9" fill-opacity="0.8"/>
<path d="M202.172 13.1762C200.591 17.5938 199.293 21.2378 199.277 21.2877C199.26 21.3293 199.801 21.3625 200.616 21.3625H201.989L202.305 20.464C202.48 19.9732 202.738 19.2328 202.887 18.8251L203.154 18.0764L206.565 18.0514C209.751 18.0348 209.976 18.0431 210.034 18.1762C210.067 18.2594 210.308 18.9416 210.575 19.6987C210.841 20.4557 211.082 21.1379 211.115 21.2128C211.165 21.3459 211.315 21.3625 212.546 21.3625C213.611 21.3625 213.911 21.3376 213.886 21.2544C213.861 21.2045 212.555 17.5522 210.982 13.1429L208.12 5.13959H206.581H205.042L202.172 13.1762ZM207.929 12.103L209.227 15.8301L206.598 15.8551C205.159 15.8634 203.961 15.8634 203.952 15.8467C203.911 15.8051 206.531 8.38418 206.581 8.38418C206.606 8.38418 207.214 10.0564 207.929 12.103Z" fill="#D9D9D9" fill-opacity="0.8"/>
<path d="M216.481 13.2511V21.3625H217.812H219.143V13.2511V5.13959H217.812H216.481V13.2511Z" fill="#D9D9D9" fill-opacity="0.8"/>
<path d="M53.3366 8.39258C51.3067 8.69208 49.6927 9.83184 48.8108 11.5956C48.2618 12.6854 48.137 13.3094 48.137 14.915C48.137 16.138 48.1619 16.4209 48.3283 16.9866C48.7193 18.3427 49.5762 19.6322 50.5413 20.3227C51.7476 21.1796 52.9539 21.5457 54.543 21.5457C56.3649 21.5373 57.7792 20.9966 58.9107 19.8734C59.5679 19.2245 59.8258 18.8501 60.1919 18.0099L60.4082 17.5357H58.9606H57.5213L57.4298 17.7437C57.2717 18.0848 56.5729 18.7836 56.2068 18.9666C55.1336 19.5157 53.6112 19.4824 52.5962 18.8917C51.6977 18.3676 51.0321 17.4026 50.8574 16.3876L50.7826 15.955H55.716H60.6411L60.6994 15.3227C60.8824 13.3843 60.2751 11.4541 59.0854 10.1979C57.7127 8.73367 55.5662 8.0598 53.3366 8.39258ZM55.4664 10.6638C56.8142 11.0215 57.7543 12.0615 57.9539 13.4009L58.0122 13.7919H54.4182H50.8158L50.8741 13.4342C51.0571 12.2528 52.122 11.0298 53.2784 10.6721C53.7443 10.5224 54.934 10.5224 55.4664 10.6638Z" fill="#D9D9D9" fill-opacity="0.8"/>
<path d="M67.5961 8.42581C66.7891 8.56724 66.4646 8.68371 65.6909 9.07473C64.8673 9.50734 64.027 10.2811 63.5278 11.0797C62.8124 12.2361 62.413 13.9416 62.5212 15.4225C62.7209 18.2677 64.2766 20.4058 66.7308 21.2295C68.8606 21.9366 71.3648 21.529 73.037 20.1979C73.6859 19.6737 74.5179 18.484 74.7508 17.7187L74.809 17.5356H73.4031H71.9971L71.7475 17.935C71.6144 18.1513 71.3315 18.4757 71.1152 18.6504C69.8839 19.6571 67.6876 19.5739 66.423 18.4757C66.0237 18.1263 65.5911 17.4192 65.3997 16.8118C65.1002 15.8468 64.5262 15.9549 70.1418 15.9549H75.0503L75.1002 15.7386C75.1917 15.3726 75.0753 13.2844 74.9338 12.7519C74.7425 12.0448 74.21 11.0048 73.7441 10.4225C72.4297 8.80019 69.9505 7.9932 67.5961 8.42581ZM70.0669 10.7053C71.0819 11.0298 71.8889 11.7869 72.23 12.7519C72.3132 13.0015 72.3881 13.3343 72.3881 13.5007V13.7919H68.8107H65.2333L65.2833 13.5589C65.616 12.0614 66.3814 11.1463 67.6876 10.697C68.2699 10.4974 69.3931 10.4974 70.0669 10.7053Z" fill="#D9D9D9" fill-opacity="0.8"/>
<path d="M83.7859 8.41755C82.6212 8.66713 81.6229 9.19958 80.8658 9.97329L80.4581 10.3893V9.47412V8.55066H79.127H77.7959V18.0349V27.519H79.127H80.4581V23.5174V19.5157L80.9823 19.9982C81.2734 20.2728 81.7227 20.6139 81.9723 20.7636C83.0039 21.3793 84.4265 21.6705 85.6162 21.5207C87.1054 21.3377 88.0122 20.8884 89.0688 19.8319C89.7094 19.1913 89.8841 18.9583 90.2085 18.2844C90.8741 16.9117 91.107 15.5723 90.9407 14.0748C90.741 12.1946 90.0172 10.7387 88.736 9.64883C88.2535 9.23285 87.1969 8.68377 86.5313 8.50074C85.8741 8.32603 84.4432 8.28444 83.7859 8.41755ZM85.4082 10.7304C85.9739 10.8718 86.6728 11.2794 87.0971 11.7037C87.929 12.5357 88.2951 13.5007 88.2951 14.8735C88.2867 15.8718 88.1536 16.4874 87.7709 17.2112C86.7643 19.0997 84.4848 19.8152 82.5796 18.8502C82.1137 18.6089 81.3317 17.8352 81.0405 17.3194C80.6911 16.7204 80.4581 15.7387 80.4581 14.9234C80.4581 13.3843 81.0405 12.1363 82.122 11.346C83.0704 10.6472 84.2352 10.4309 85.4082 10.7304Z" fill="#D9D9D9" fill-opacity="0.8"/>
<path d="M108.278 8.41749C106.872 8.68371 105.957 9.16624 105 10.123C103.752 11.3709 103.22 12.7852 103.22 14.8734C103.212 17.0697 103.827 18.6421 105.208 19.9316C106.365 21.0132 107.771 21.5373 109.535 21.5456C112.147 21.5539 114.127 20.4225 115.158 18.3177C115.333 17.9516 115.483 17.6188 115.483 17.5939C115.483 17.5606 114.851 17.5356 114.085 17.5356H112.688L112.396 17.9682C112.055 18.484 111.431 18.9749 110.907 19.1662C110.366 19.3493 109.426 19.4075 108.811 19.2827C107.421 19.0165 106.398 18.0514 106.032 16.6621C105.816 15.8717 105.275 15.9549 110.824 15.9549H115.724L115.782 15.6554C115.891 15.098 115.757 13.2927 115.566 12.6271C114.967 10.5556 113.42 9.05809 111.323 8.51732C110.583 8.32597 109.027 8.27606 108.278 8.41749ZM110.841 10.7469C111.556 11.0048 112.139 11.4291 112.513 11.9782C112.821 12.4358 113.07 13.1429 113.07 13.5589V13.7919H109.493C107.53 13.7919 105.916 13.7586 105.916 13.7253C105.916 13.5506 106.207 12.7103 106.381 12.3609C106.781 11.5789 107.488 10.9716 108.32 10.7053C109.027 10.4807 110.134 10.4974 110.841 10.7469Z" fill="#D9D9D9" fill-opacity="0.8"/>
<path d="M122.513 8.41753C120.034 8.90838 118.303 10.7054 117.754 13.3593C117.571 14.2578 117.638 16.1713 117.896 17.0365C118.386 18.742 119.568 20.2395 120.974 20.93C121.897 21.3793 122.638 21.5457 123.686 21.5457C125.2 21.5457 126.515 21.0298 127.563 20.0398L128.129 19.5157V20.4392V21.3626H129.46H130.791V14.9566V8.55064H129.46H128.129V9.43251V10.3144L127.546 9.77361C126.914 9.19124 126.074 8.72535 125.258 8.50905C124.551 8.32602 123.22 8.2761 122.513 8.41753ZM125.258 10.7303C125.841 10.8718 126.539 11.3044 126.997 11.8036C127.771 12.6438 128.129 13.6172 128.129 14.915C128.129 15.8302 127.962 16.5623 127.604 17.2362C126.356 19.6072 123.17 19.9899 121.398 17.9849C120.233 16.6704 119.967 14.4408 120.774 12.7437C121.099 12.0531 121.797 11.3543 122.505 11.0049C123.378 10.5723 124.285 10.4808 125.258 10.7303Z" fill="#D9D9D9" fill-opacity="0.8"/>
<path d="M139.859 8.3925C139.11 8.51729 138.12 9.04974 137.579 9.6321C137.322 9.91496 137.114 10.1729 137.114 10.2228C137.114 10.2644 137.08 10.2977 137.03 10.2977C136.98 10.2977 136.947 9.94824 136.947 9.42411V8.55057H135.658H134.368V14.9566V21.3625H135.658H136.947V17.9682C136.947 16.1046 136.989 14.2577 137.03 13.8501C137.188 12.494 137.588 11.8118 138.495 11.3709C138.985 11.1296 139.135 11.0963 139.951 11.063L140.857 11.0215V9.66538V8.30098L140.591 8.3093C140.441 8.31762 140.109 8.3509 139.859 8.3925Z" fill="#D9D9D9" fill-opacity="0.8"/>
<path d="M148.719 8.41746C147.713 8.6504 146.972 9.0331 146.298 9.64874L145.932 9.98984V9.26604V8.55057H144.643H143.353V14.9566V21.3625H144.634H145.924L145.949 17.3026C145.974 13.3176 145.982 13.2427 146.165 12.7186C146.681 11.296 147.663 10.6138 149.218 10.6138C150.783 10.6138 151.806 11.3126 152.272 12.6937C152.455 13.2344 152.455 13.3675 152.488 17.3026L152.513 21.3625H153.803H155.084V17.2611C155.084 14.8068 155.05 12.9516 154.992 12.6271C154.784 11.3459 154.135 10.1229 153.303 9.45739C152.821 9.06638 152.047 8.67536 151.407 8.50065C150.758 8.32594 149.318 8.27603 148.719 8.41746Z" fill="#D9D9D9" fill-opacity="0.8"/>
<path d="M170.017 8.4341C169.21 8.60881 168.328 9.05806 167.779 9.55722L167.313 9.98152V9.26604V8.55057H166.024H164.734V14.9566V21.3625H166.024H167.313V17.5106C167.313 13.4175 167.355 12.9516 167.729 12.2111C167.995 11.6953 168.519 11.1629 169.01 10.9216C170.333 10.281 172.247 10.6138 173.054 11.6371C173.228 11.8617 173.461 12.2611 173.569 12.519C173.761 13.0015 173.761 13.0264 173.786 17.1779L173.811 21.3625H175.142H176.473L176.448 17.0115C176.415 12.8684 176.406 12.6354 176.232 12.0198C175.741 10.2311 174.485 8.95822 172.762 8.50897C172.03 8.3093 170.724 8.27603 170.017 8.4341Z" fill="#D9D9D9" fill-opacity="0.8"/>
<path d="M183.861 8.41754C182.605 8.68376 181.614 9.23285 180.749 10.148C179.202 11.7952 178.636 14.2328 179.218 16.762C179.518 18.0681 180.134 19.1413 181.115 20.0482C182.039 20.9051 183.079 21.3709 184.385 21.5207C186.132 21.7204 187.779 21.1713 189.002 19.9816L189.526 19.4658V20.8551C189.526 21.7786 189.485 22.4109 189.402 22.7603C188.994 24.4824 187.738 25.4392 185.866 25.4392C184.318 25.4392 182.912 24.6904 182.38 23.5839L182.189 23.1929H180.907C180.025 23.1929 179.626 23.2179 179.626 23.2844C179.626 23.5507 179.926 24.4575 180.15 24.8984C180.5 25.5723 181.431 26.4791 182.164 26.8701C182.488 27.0365 183.087 27.2778 183.495 27.4026C184.194 27.6189 184.343 27.6355 185.783 27.6355C186.997 27.6438 187.438 27.6106 187.862 27.4941C190.184 26.8701 191.756 25.0731 192.105 22.6521C192.155 22.3027 192.189 19.3493 192.189 15.3061V8.55065H190.857H189.526V9.44083V10.331L189.094 9.91504C188.37 9.21621 187.58 8.76695 186.656 8.51737C185.957 8.32602 184.543 8.27611 183.861 8.41754ZM186.847 10.8052C188.886 11.5041 189.976 13.8585 189.36 16.2378C188.894 18.0764 187.405 19.2828 185.616 19.2828C184.543 19.2828 183.611 18.8668 182.846 18.0432C182.064 17.1863 181.706 16.2212 181.706 14.915C181.706 13.5007 182.097 12.4941 182.962 11.6704C184.019 10.6638 185.491 10.331 186.847 10.8052Z" fill="#D9D9D9" fill-opacity="0.8"/>
<path d="M158.495 14.9566V21.3625H159.826H161.157V14.9566V8.55057H159.826H158.495V14.9566Z" fill="#D9D9D9" fill-opacity="0.8"/>
<path d="M195.159 18.2344C194.152 18.509 193.636 19.6903 194.127 20.6221C194.768 21.8368 196.548 21.8035 197.105 20.5722C197.463 19.7902 197.197 18.8501 196.506 18.4341C196.04 18.1596 195.666 18.1013 195.159 18.2344Z" fill="#D9D9D9" fill-opacity="0.8"/>
</svg>
