<svg width="30" height="30" viewBox="0 0 30 30" fill="none" xmlns="http://www.w3.org/2000/svg">
<path opacity="0.5" fill-rule="evenodd" clip-rule="evenodd" d="M1.15385 18.4614C1.79109 18.4614 2.30769 18.978 2.30769 19.6153C2.30769 21.8236 2.31014 23.3637 2.46639 24.5259C2.61815 25.6548 2.89577 26.2525 3.32155 26.6783C3.74734 27.1042 4.34515 27.3817 5.47403 27.5336C6.63611 27.6897 8.17629 27.6922 10.3846 27.6922H19.6154C21.8237 27.6922 23.3638 27.6897 24.526 27.5336C25.6549 27.3817 26.2526 27.1042 26.6785 26.6783C27.1043 26.2525 27.3818 25.6548 27.5337 24.5259C27.6898 23.3637 27.6923 21.8236 27.6923 19.6153C27.6923 18.978 28.2089 18.4614 28.8462 18.4614C29.4834 18.4614 30 18.978 30 19.6153V19.6997C30 21.8037 30 23.4996 29.8208 24.8334C29.6346 26.2182 29.2363 27.384 28.3103 28.31C27.3842 29.2362 26.2183 29.6345 24.8335 29.8207C23.4997 29.9999 21.8038 29.9999 19.6998 29.9999H10.3002C8.19622 29.9999 6.50034 29.9999 5.16654 29.8207C3.78175 29.6345 2.6158 29.2362 1.68977 28.3102C0.763739 27.384 0.365447 26.2182 0.179262 24.8334C-6.08426e-05 23.4996 -2.99631e-05 21.8037 8.06081e-07 19.6997C8.06081e-07 19.6716 8.06081e-07 19.6434 8.06081e-07 19.6153C8.06081e-07 18.978 0.516601 18.4614 1.15385 18.4614Z" fill="#0A0E14"/>
<path fill-rule="evenodd" clip-rule="evenodd" d="M15.0001 22.3077C15.3241 22.3077 15.633 22.1715 15.8516 21.9325L22.0055 15.2017C22.4355 14.7314 22.4028 14.0015 21.9325 13.5715C21.4622 13.1415 20.7324 13.1742 20.3024 13.6445L16.1539 18.1818V1.15385C16.1539 0.5166 15.6373 0 15.0001 0C14.3628 0 13.8462 0.5166 13.8462 1.15385V18.1818L9.69781 13.6445C9.26781 13.1742 8.53797 13.1415 8.06766 13.5715C7.59735 14.0015 7.56466 14.7314 7.99466 15.2017L14.1485 21.9325C14.3672 22.1715 14.6761 22.3077 15.0001 22.3077Z" fill="#0A0E14"/>
</svg>
