<svg width="45" height="45" viewBox="0 0 45 45" fill="none" xmlns="http://www.w3.org/2000/svg">
<g clip-path="url(#clip0_10_41)">
<path d="M22.5 0C34.9264 0 45 10.0736 45 22.5C45 33.7304 36.7721 43.0387 26.0156 44.7267V29.0039H31.2583L32.2559 22.5H26.0156V18.2793C26.0156 17.8016 26.0785 17.327 26.2245 16.8885C26.5544 15.8978 27.3088 15.0906 28.7223 14.8436C29.0136 14.7927 29.333 14.7656 29.6823 14.7656H32.5195V9.22852C32.5195 9.22852 29.9447 8.78906 27.483 8.78906C22.3435 8.78906 18.9844 11.9039 18.9844 17.543V22.5H13.2715V29.0039H18.9844V44.7267C8.22797 43.0387 0 33.7304 0 22.5C0 10.0736 10.0736 0 22.5 0Z" fill="#1877F2"/>
</g>
<defs>
<clipPath id="clip0_10_41">
<rect width="45" height="45" fill="white"/>
</clipPath>
</defs>
</svg>
