<svg width="416" height="61" viewBox="0 0 416 61" fill="none" xmlns="http://www.w3.org/2000/svg">
<path d="M7.37109 28.5977L16.8281 28.293L17.0156 33.9297C16.2188 35.0859 15.1914 36.0039 13.9336 36.6836C13.3164 37.0117 12.6602 37.2656 11.9648 37.4453C11.2773 37.625 10.5625 37.7148 9.82031 37.7148C9 37.7148 8.21484 37.6094 7.46484 37.3984C5.96484 36.9688 4.66016 36.1875 3.55078 35.0547C3.01953 34.5156 2.55859 33.9062 2.16797 33.2266C1.78516 32.5547 1.48828 31.832 1.27734 31.0586C1.06641 30.2852 0.960938 29.4805 0.960938 28.6445C0.960938 27.8086 1.06641 27.0039 1.27734 26.2305C1.69922 24.6758 2.45703 23.3398 3.55078 22.2227C4.08203 21.6836 4.67969 21.2109 5.34375 20.8047C6 20.4141 6.70703 20.1133 7.46484 19.9023C8.22266 19.6836 9.00781 19.5742 9.82031 19.5742C10.5156 19.5742 11.1875 19.6523 11.8359 19.8086C12.4844 19.9648 13.1016 20.1875 13.6875 20.4766C14.8672 21.0547 15.8711 21.8672 16.6992 22.9141L14.9062 24.3789C14.2969 23.6211 13.5547 23.0195 12.6797 22.5742C11.8125 22.1289 10.8594 21.9062 9.82031 21.9062C8.91406 21.9062 8.06641 22.0859 7.27734 22.4453C6.48828 22.7969 5.79688 23.2773 5.20312 23.8867C4.60938 24.4961 4.14062 25.2109 3.79688 26.0312C3.46094 26.8438 3.29297 27.7148 3.29297 28.6445C3.29297 29.5742 3.46094 30.4492 3.79688 31.2695C4.14062 32.0898 4.60938 32.8047 5.20312 33.4141C5.79688 34.0234 6.48828 34.5078 7.27734 34.8672C8.06641 35.2188 8.91406 35.3945 9.82031 35.3945C10.7656 35.3945 11.6445 35.207 12.457 34.832C13.2773 34.4492 13.9883 33.9258 14.5898 33.2617L14.543 30.7656L7.37109 31.0469V28.5977ZM30.4844 29.5352L28.1758 30.4023C28.168 29.7383 28.0742 29.1992 27.8945 28.7852C27.7227 28.3711 27.4922 28.0586 27.2031 27.8477C26.9297 27.6445 26.6211 27.5508 26.2773 27.5664C26.0508 27.6055 25.8203 27.6953 25.5859 27.8359C25.3438 27.9844 25.0898 28.1797 24.8242 28.4219C24.5664 28.6641 24.3086 28.9336 24.0508 29.2305C23.918 29.3789 23.7891 29.5312 23.6641 29.6875C23.5391 29.8438 23.4141 30 23.2891 30.1562C23.0469 30.4688 22.8164 30.7852 22.5977 31.1055C22.3789 31.418 22.1836 31.7031 22.0117 31.9609C22.0195 32.2812 22.0273 32.6484 22.0352 33.0625C22.043 33.4688 22.0508 33.8711 22.0586 34.2695C22.0742 34.6602 22.0859 34.9922 22.0938 35.2656C22.1094 35.7578 22.125 36.2031 22.1406 36.6016C22.1562 36.9922 22.1758 37.3086 22.1992 37.5508L19.6797 37.8672L19.4453 31.293C19.4297 30.8477 19.4141 30.3711 19.3984 29.8633C19.3828 29.3477 19.3672 28.8633 19.3516 28.4102C19.3359 27.9492 19.3242 27.5859 19.3164 27.3203C19.2852 26.2188 19.2617 25.3906 19.2461 24.8359L21.918 24.7891C21.9258 25.0312 21.9297 25.2734 21.9297 25.5156C21.9297 25.75 21.9336 25.9922 21.9414 26.2422C21.9414 26.4922 21.9414 26.7344 21.9414 26.9688C21.9414 27.1953 21.9453 27.4102 21.9531 27.6133C21.9609 27.8555 21.9648 28.0977 21.9648 28.3398C21.9648 28.5742 21.9648 28.8047 21.9648 29.0312C22.1914 28.6719 22.4688 28.2773 22.7969 27.8477C23.125 27.418 23.4922 27.0117 23.8984 26.6289C24.3125 26.2461 24.7617 25.9141 25.2461 25.6328C25.7305 25.3438 26.25 25.1641 26.8047 25.0938C27.4141 25.0625 27.9844 25.1953 28.5156 25.4922C28.7344 25.6172 28.9492 25.7852 29.1602 25.9961C29.3789 26.1992 29.582 26.4609 29.7695 26.7812C29.9492 27.1094 30.1016 27.5 30.2266 27.9531C30.3516 28.3984 30.4375 28.9258 30.4844 29.5352ZM37.543 35.9219C38.4102 35.9219 39.207 35.6641 39.9336 35.1484C40.6602 34.625 41.1328 33.8984 41.3516 32.9688L43.6133 33.4258C43.3945 34.1367 43.0859 34.7812 42.6875 35.3594C42.2891 35.9375 41.8242 36.4336 41.293 36.8477C40.7617 37.2617 40.1758 37.582 39.5352 37.8086C38.9023 38.0352 38.2383 38.1484 37.543 38.1484C36.5117 38.1484 35.5977 37.9922 34.8008 37.6797C34.0039 37.3672 33.332 36.9258 32.7852 36.3555C31.668 35.1914 31.1094 33.6055 31.1094 31.5977C31.1094 30.6211 31.2734 29.7109 31.6016 28.8672C31.9375 28.0156 32.3945 27.2773 32.9727 26.6523C33.5508 26.0273 34.2305 25.5352 35.0117 25.1758C35.793 24.8164 36.6367 24.6367 37.543 24.6367C38.3555 24.6367 39.1211 24.7969 39.8398 25.1172C40.5586 25.4297 41.1953 25.8633 41.75 26.418C42.3047 26.9805 42.7617 27.6406 43.1211 28.3984C43.4805 29.1562 43.707 29.9766 43.8008 30.8594L33.6523 32.3711C33.707 32.9258 33.8438 33.4258 34.0625 33.8711C34.2891 34.3086 34.5703 34.6797 34.9062 34.9844C35.6016 35.6094 36.4805 35.9219 37.543 35.9219ZM33.7227 30.2031L40.7773 29.3477L40.707 29.125C40.4102 28.3516 40 27.7461 39.4766 27.3086C38.9609 26.8711 38.3164 26.6523 37.543 26.6523C37.2148 26.6523 36.8555 26.7109 36.4648 26.8281C36.0742 26.9375 35.6953 27.1289 35.3281 27.4023C34.9609 27.6758 34.6289 28.043 34.332 28.5039C34.043 28.957 33.8398 29.5234 33.7227 30.2031ZM57.0703 38.125L54.7734 37.7383L54.9375 36.0859C53.9844 36.6953 53.0469 37.1367 52.125 37.4102C51.2109 37.6836 50.3555 37.8203 49.5586 37.8203C48.9961 37.8203 48.4492 37.7461 47.918 37.5977C47.3945 37.457 46.9336 37.2344 46.5352 36.9297C46.1289 36.6328 45.8008 36.2539 45.5508 35.793C45.3086 35.3242 45.1875 34.7734 45.1875 34.1406C45.1875 33.5078 45.2812 32.9414 45.4688 32.4414C45.6562 31.9414 45.9141 31.5 46.2422 31.1172C46.5703 30.7344 46.957 30.4062 47.4023 30.1328C47.8477 29.8594 48.3281 29.6367 48.8438 29.4648C49.3516 29.293 49.8867 29.168 50.4492 29.0898C51.0117 29.0039 51.5703 28.9609 52.125 28.9609C52.6406 28.9609 53.1211 28.9805 53.5664 29.0195C54.0117 29.0586 54.4062 29.1094 54.75 29.1719C54.6094 28.6172 54.418 28.0977 54.1758 27.6133C53.9414 27.1289 53.6289 26.7383 53.2383 26.4414C52.8555 26.1367 52.3594 25.9844 51.75 25.9844C51.4453 25.9844 51.0977 26.0312 50.707 26.125C50.3164 26.2109 49.8867 26.3711 49.418 26.6055C48.9492 26.8398 48.4375 27.1641 47.8828 27.5781C47.3281 27.9844 46.7344 28.5078 46.1016 29.1484L44.6836 27.4258C45.4336 26.7227 46.1523 26.1484 46.8398 25.7031C47.5273 25.2578 48.1758 24.9062 48.7852 24.6484C49.3867 24.3984 49.9453 24.2266 50.4609 24.1328C50.9844 24.0391 51.4531 23.9922 51.8672 23.9922C52.5938 23.9922 53.2344 24.1133 53.7891 24.3555C54.3516 24.5977 54.8477 24.9336 55.2773 25.3633C55.707 25.7852 56.0664 26.2852 56.3555 26.8633C56.6367 27.418 56.875 28.0352 57.0703 28.7148C57.2578 29.3789 57.3906 30.0664 57.4688 30.7773C57.5547 31.4883 57.5977 32.1953 57.5977 32.8984C57.5977 33.6484 57.5547 34.4531 57.4688 35.3125C57.3828 36.1719 57.25 37.1094 57.0703 38.125ZM55.1016 33.4727C55.1172 33.082 55.1289 32.6953 55.1367 32.3125C55.1445 31.9297 55.125 31.5312 55.0781 31.1172C54.6953 31 54.293 30.9062 53.8711 30.8359C53.4492 30.7656 53.0273 30.7305 52.6055 30.7305C51.9023 30.7305 51.2188 30.8125 50.5547 30.9766C49.8984 31.1406 49.332 31.3789 48.8555 31.6914C48.3789 32.0039 48.0195 32.3867 47.7773 32.8398C47.543 33.293 47.4961 33.8086 47.6367 34.3867C47.7461 34.8555 47.957 35.1836 48.2695 35.3711C48.5898 35.5586 48.9727 35.6523 49.418 35.6523C49.9961 35.6523 50.6445 35.5312 51.3633 35.2891C52.082 35.0391 52.7734 34.7422 53.4375 34.3984C54.1094 34.0547 54.6641 33.7461 55.1016 33.4727ZM62.793 25.4102L62.8867 20.2773L65.2188 20.125L65.1367 25.3633L69.6836 25.2109L69.5078 27.4023L65.1133 27.5195L65.0195 37.7383L62.5469 37.7969L62.7461 27.5898L58.6914 27.6836L58.7383 25.5273L62.793 25.4102ZM81.5742 37.5508L79.0547 37.8672L78.8203 31.293C78.8047 30.8477 78.7891 30.3711 78.7734 29.8633C78.7578 29.3477 78.7422 28.8633 78.7266 28.4102C78.7109 27.9492 78.6992 27.5859 78.6914 27.3203C78.6602 26.2188 78.6367 25.3906 78.6211 24.8359L81.293 24.7891L81.3398 28.1641C81.5977 27.7188 81.8906 27.3008 82.2188 26.9102C82.5469 26.5117 82.9023 26.1602 83.2852 25.8555C83.668 25.5508 84.0742 25.3047 84.5039 25.1172C84.9414 24.9297 85.3984 24.8203 85.875 24.7891C86.4766 24.75 86.9961 24.8008 87.4336 24.9414C87.8711 25.082 88.2461 25.2773 88.5586 25.5273C88.8711 25.7695 89.1289 26.0625 89.332 26.4062C89.543 26.7578 89.7031 27.1094 89.8125 27.4609C89.9297 27.8203 90.0117 28.1836 90.0586 28.5508C90.1133 28.9102 90.1484 29.2383 90.1641 29.5352C90.2109 30.8789 90.2227 32.2305 90.1992 33.5898C90.1758 34.9492 90.1484 36.3594 90.1172 37.8203L87.7148 37.7383C87.7773 36.4805 87.832 35.2227 87.8789 33.9648C87.9336 32.707 87.9297 31.4375 87.8672 30.1562C87.8672 29.8828 87.8359 29.5703 87.7734 29.2188C87.7109 28.8594 87.5977 28.5039 87.4336 28.1523C87.3164 27.9102 87.1641 27.6953 86.9766 27.5078C86.7891 27.3281 86.5586 27.1914 86.2852 27.0977C86.0195 27.0039 85.707 26.9844 85.3477 27.0391C84.7305 27.1328 84.1055 27.582 83.4727 28.3867C82.8477 29.168 82.1602 30.3516 81.4102 31.9375L81.4922 34.9375C81.5 35.3125 81.5078 35.6406 81.5156 35.9219C81.5234 36.2031 81.5312 36.4414 81.5391 36.6367C81.5547 37.0898 81.5664 37.3945 81.5742 37.5508ZM104.477 38.125L102.18 37.7383L102.344 36.0859C101.391 36.6953 100.453 37.1367 99.5312 37.4102C98.6172 37.6836 97.7617 37.8203 96.9648 37.8203C96.4023 37.8203 95.8555 37.7461 95.3242 37.5977C94.8008 37.457 94.3398 37.2344 93.9414 36.9297C93.5352 36.6328 93.207 36.2539 92.957 35.793C92.7148 35.3242 92.5938 34.7734 92.5938 34.1406C92.5938 33.5078 92.6875 32.9414 92.875 32.4414C93.0625 31.9414 93.3203 31.5 93.6484 31.1172C93.9766 30.7344 94.3633 30.4062 94.8086 30.1328C95.2539 29.8594 95.7344 29.6367 96.25 29.4648C96.7578 29.293 97.293 29.168 97.8555 29.0898C98.418 29.0039 98.9766 28.9609 99.5312 28.9609C100.047 28.9609 100.527 28.9805 100.973 29.0195C101.418 29.0586 101.812 29.1094 102.156 29.1719C102.016 28.6172 101.824 28.0977 101.582 27.6133C101.348 27.1289 101.035 26.7383 100.645 26.4414C100.262 26.1367 99.7656 25.9844 99.1562 25.9844C98.8516 25.9844 98.5039 26.0312 98.1133 26.125C97.7227 26.2109 97.293 26.3711 96.8242 26.6055C96.3555 26.8398 95.8438 27.1641 95.2891 27.5781C94.7344 27.9844 94.1406 28.5078 93.5078 29.1484L92.0898 27.4258C92.8398 26.7227 93.5586 26.1484 94.2461 25.7031C94.9336 25.2578 95.582 24.9062 96.1914 24.6484C96.793 24.3984 97.3516 24.2266 97.8672 24.1328C98.3906 24.0391 98.8594 23.9922 99.2734 23.9922C100 23.9922 100.641 24.1133 101.195 24.3555C101.758 24.5977 102.254 24.9336 102.684 25.3633C103.113 25.7852 103.473 26.2852 103.762 26.8633C104.043 27.418 104.281 28.0352 104.477 28.7148C104.664 29.3789 104.797 30.0664 104.875 30.7773C104.961 31.4883 105.004 32.1953 105.004 32.8984C105.004 33.6484 104.961 34.4531 104.875 35.3125C104.789 36.1719 104.656 37.1094 104.477 38.125ZM102.508 33.4727C102.523 33.082 102.535 32.6953 102.543 32.3125C102.551 31.9297 102.531 31.5312 102.484 31.1172C102.102 31 101.699 30.9062 101.277 30.8359C100.855 30.7656 100.434 30.7305 100.012 30.7305C99.3086 30.7305 98.625 30.8125 97.9609 30.9766C97.3047 31.1406 96.7383 31.3789 96.2617 31.6914C95.7852 32.0039 95.4258 32.3867 95.1836 32.8398C94.9492 33.293 94.9023 33.8086 95.043 34.3867C95.1523 34.8555 95.3633 35.1836 95.6758 35.3711C95.9961 35.5586 96.3789 35.6523 96.8242 35.6523C97.4023 35.6523 98.0508 35.5312 98.7695 35.2891C99.4883 35.0391 100.18 34.7422 100.844 34.3984C101.516 34.0547 102.07 33.7461 102.508 33.4727ZM107.48 24.7891L109.93 24.5195L109.977 27.9297C110.328 27.4844 110.699 27.0469 111.09 26.6172C111.48 26.1875 111.91 25.832 112.379 25.5508C112.855 25.2617 113.391 25.1172 113.984 25.1172C114.68 25.1172 115.289 25.3477 115.812 25.8086C116.336 26.2617 116.641 26.9297 116.727 27.8125C117.062 27.3906 117.422 26.9727 117.805 26.5586C118.188 26.1445 118.609 25.8008 119.07 25.5273C119.531 25.2539 120.047 25.1172 120.617 25.1172C121.383 25.1172 122.027 25.375 122.551 25.8906C123.082 26.4062 123.363 27.1641 123.395 28.1641C123.418 28.4531 123.441 28.7773 123.465 29.1367C123.488 29.4883 123.508 29.8828 123.523 30.3203C123.562 31.0625 123.594 32.0078 123.617 33.1562C123.648 34.2969 123.664 35.668 123.664 37.2695L121.215 37.3867C121.215 35.9648 121.211 34.75 121.203 33.7422C121.195 32.7266 121.188 31.8867 121.18 31.2227L121.145 29.3008C121.098 28.0352 120.754 27.4023 120.113 27.4023C119.824 27.4023 119.52 27.5352 119.199 27.8008C118.879 28.0664 118.594 28.3594 118.344 28.6797C118.242 28.8047 118.145 28.9297 118.051 29.0547C117.965 29.1719 117.879 29.293 117.793 29.418C117.621 29.668 117.457 29.9102 117.301 30.1445C117.145 30.3789 117.008 30.5859 116.891 30.7656C116.906 31.1094 116.922 31.4883 116.938 31.9023C116.961 32.3164 116.977 32.7852 116.984 33.3086C117 33.832 117.008 34.418 117.008 35.0664C117.008 35.7148 117.008 36.4492 117.008 37.2695L114.734 37.3867C114.734 35.9648 114.719 34.75 114.688 33.7422C114.664 32.7266 114.637 31.8867 114.605 31.2227C114.59 30.832 114.57 30.4766 114.547 30.1562C114.531 29.8359 114.512 29.5508 114.488 29.3008C114.441 28.0352 114.098 27.4023 113.457 27.4023C113.262 27.4023 113.055 27.4688 112.836 27.6016C112.406 27.875 111.984 28.2852 111.57 28.832C111.469 28.9648 111.367 29.1016 111.266 29.2422C111.172 29.3828 111.078 29.5195 110.984 29.6523C110.836 29.8711 110.664 30.125 110.469 30.4141C110.281 30.7031 110.133 30.9297 110.023 31.0938L110.129 37.2695L107.797 37.3867L107.48 24.7891ZM132.105 35.9219C132.973 35.9219 133.77 35.6641 134.496 35.1484C135.223 34.625 135.695 33.8984 135.914 32.9688L138.176 33.4258C137.957 34.1367 137.648 34.7812 137.25 35.3594C136.852 35.9375 136.387 36.4336 135.855 36.8477C135.324 37.2617 134.738 37.582 134.098 37.8086C133.465 38.0352 132.801 38.1484 132.105 38.1484C131.074 38.1484 130.16 37.9922 129.363 37.6797C128.566 37.3672 127.895 36.9258 127.348 36.3555C126.23 35.1914 125.672 33.6055 125.672 31.5977C125.672 30.6211 125.836 29.7109 126.164 28.8672C126.5 28.0156 126.957 27.2773 127.535 26.6523C128.113 26.0273 128.793 25.5352 129.574 25.1758C130.355 24.8164 131.199 24.6367 132.105 24.6367C132.918 24.6367 133.684 24.7969 134.402 25.1172C135.121 25.4297 135.758 25.8633 136.312 26.418C136.867 26.9805 137.324 27.6406 137.684 28.3984C138.043 29.1562 138.27 29.9766 138.363 30.8594L128.215 32.3711C128.27 32.9258 128.406 33.4258 128.625 33.8711C128.852 34.3086 129.133 34.6797 129.469 34.9844C130.164 35.6094 131.043 35.9219 132.105 35.9219ZM128.285 30.2031L135.34 29.3477L135.27 29.125C134.973 28.3516 134.562 27.7461 134.039 27.3086C133.523 26.8711 132.879 26.6523 132.105 26.6523C131.777 26.6523 131.418 26.7109 131.027 26.8281C130.637 26.9375 130.258 27.1289 129.891 27.4023C129.523 27.6758 129.191 28.043 128.895 28.5039C128.605 28.957 128.402 29.5234 128.285 30.2031ZM150.988 34.4336C150.988 35.1758 150.84 35.8008 150.543 36.3086C150.246 36.8086 149.844 37.2188 149.336 37.5391C148.836 37.8516 148.258 38.082 147.602 38.2305C146.945 38.3867 146.266 38.4805 145.562 38.5117C144.828 38.4961 144.102 38.4219 143.383 38.2891C142.75 38.1797 142.051 37.9766 141.285 37.6797C140.52 37.3828 139.832 36.9961 139.223 36.5195L140.359 34.7383C140.789 34.9648 141.227 35.1836 141.672 35.3945C142.125 35.6055 142.586 35.7891 143.055 35.9453C143.523 36.1094 144.004 36.2383 144.496 36.332C144.988 36.4258 145.496 36.4727 146.02 36.4727C146.762 36.4727 147.332 36.3516 147.73 36.1094C148.129 35.8594 148.391 35.5547 148.516 35.1953C148.656 34.7266 148.52 34.2773 148.105 33.8477C148.027 33.7695 147.938 33.6992 147.836 33.6367C147.734 33.5664 147.621 33.5 147.496 33.4375C147.246 33.3203 146.941 33.2227 146.582 33.1445C146.223 33.0664 145.797 33.0156 145.305 32.9922C144.602 32.9609 143.922 32.8906 143.266 32.7812C142.617 32.6641 142.039 32.4844 141.531 32.2422C141.016 32 140.59 31.6836 140.254 31.293C139.926 30.8945 139.727 30.3984 139.656 29.8047C139.602 29.2656 139.641 28.75 139.773 28.2578C140.023 27.3594 140.539 26.6211 141.32 26.043C141.516 25.9102 141.715 25.7852 141.918 25.668C142.129 25.5508 142.348 25.4453 142.574 25.3516C143.027 25.1719 143.504 25.0391 144.004 24.9531C144.512 24.8594 145.023 24.8125 145.539 24.8125C145.844 24.8125 146.203 24.8281 146.617 24.8594C147.031 24.8906 147.465 24.9531 147.918 25.0469C148.371 25.1406 148.828 25.2773 149.289 25.457C149.75 25.6289 150.18 25.8594 150.578 26.1484L149.77 28.293C149.254 28.0195 148.762 27.8086 148.293 27.6602C147.832 27.5039 147.422 27.3828 147.062 27.2969C146.852 27.25 146.645 27.2109 146.441 27.1797C146.246 27.1484 146.059 27.125 145.879 27.1094C144.652 27.0391 143.695 27.168 143.008 27.4961C142.328 27.8242 141.988 28.3203 141.988 28.9844C141.988 29.4531 142.117 29.7969 142.375 30.0156C142.633 30.2266 142.984 30.3789 143.43 30.4727C143.688 30.5273 144.016 30.5742 144.414 30.6133C144.82 30.6445 145.242 30.6797 145.68 30.7188C146.125 30.7578 146.527 30.8047 146.887 30.8594C147.652 30.9766 148.297 31.1523 148.82 31.3867C149.344 31.6211 149.766 31.8945 150.086 32.207C150.406 32.5195 150.637 32.8672 150.777 33.25C150.918 33.625 150.988 34.0195 150.988 34.4336ZM186.242 35.125L187.824 25.0703L190.426 25.1641L188.094 37.4102L184.613 37.5039L182.551 28.8906L179.715 37.0938L176.211 37.3633L173.938 25.2109L176.352 25.0234L178.133 34.8672L181.613 25.0234L183.863 25.1641L186.242 35.125ZM204.129 31.3164C204.129 32.3008 203.965 33.2109 203.637 34.0469C203.309 34.8828 202.859 35.6094 202.289 36.2266C201.719 36.8438 201.051 37.3242 200.285 37.668C199.52 38.0195 198.703 38.1953 197.836 38.1953C196.062 38.1953 194.59 37.5625 193.418 36.2969C192.848 35.6953 192.398 34.9727 192.07 34.1289C191.742 33.2852 191.578 32.3477 191.578 31.3164C191.578 30.2773 191.742 29.3359 192.07 28.4922C192.398 27.6406 192.848 26.9141 193.418 26.3125C193.98 25.7109 194.641 25.2461 195.398 24.918C196.156 24.5898 196.969 24.4258 197.836 24.4258C198.703 24.4258 199.52 24.6016 200.285 24.9531C201.051 25.2969 201.719 25.7734 202.289 26.3828C202.859 27 203.309 27.7305 203.637 28.5742C203.965 29.4102 204.129 30.3242 204.129 31.3164ZM201.656 31.293C201.656 30.7305 201.586 30.1602 201.445 29.582C201.305 29.0039 201.082 28.4883 200.777 28.0352C200.473 27.5742 200.078 27.2031 199.594 26.9219C199.109 26.6328 198.523 26.4883 197.836 26.4883C197.172 26.4883 196.602 26.6328 196.125 26.9219C195.648 27.2031 195.258 27.5742 194.953 28.0352C194.648 28.4883 194.426 29.0039 194.285 29.582C194.145 30.1602 194.074 30.7305 194.074 31.293C194.074 31.8555 194.148 32.4219 194.297 32.9922C194.453 33.5547 194.688 34.0664 195 34.5273C195.312 34.9805 195.703 35.3555 196.172 35.6523C196.648 35.9414 197.203 36.0859 197.836 36.0859C198.5 36.0859 199.07 35.9414 199.547 35.6523C200.031 35.3555 200.43 34.9805 200.742 34.5273C201.055 34.0664 201.285 33.5547 201.434 32.9922C201.582 32.4219 201.656 31.8555 201.656 31.293ZM217.375 29.5352L215.066 30.4023C215.059 29.7383 214.965 29.1992 214.785 28.7852C214.613 28.3711 214.383 28.0586 214.094 27.8477C213.82 27.6445 213.512 27.5508 213.168 27.5664C212.941 27.6055 212.711 27.6953 212.477 27.8359C212.234 27.9844 211.98 28.1797 211.715 28.4219C211.457 28.6641 211.199 28.9336 210.941 29.2305C210.809 29.3789 210.68 29.5312 210.555 29.6875C210.43 29.8438 210.305 30 210.18 30.1562C209.938 30.4688 209.707 30.7852 209.488 31.1055C209.27 31.418 209.074 31.7031 208.902 31.9609C208.91 32.2812 208.918 32.6484 208.926 33.0625C208.934 33.4688 208.941 33.8711 208.949 34.2695C208.965 34.6602 208.977 34.9922 208.984 35.2656C209 35.7578 209.016 36.2031 209.031 36.6016C209.047 36.9922 209.066 37.3086 209.09 37.5508L206.57 37.8672L206.336 31.293C206.32 30.8477 206.305 30.3711 206.289 29.8633C206.273 29.3477 206.258 28.8633 206.242 28.4102C206.227 27.9492 206.215 27.5859 206.207 27.3203C206.176 26.2188 206.152 25.3906 206.137 24.8359L208.809 24.7891C208.816 25.0312 208.82 25.2734 208.82 25.5156C208.82 25.75 208.824 25.9922 208.832 26.2422C208.832 26.4922 208.832 26.7344 208.832 26.9688C208.832 27.1953 208.836 27.4102 208.844 27.6133C208.852 27.8555 208.855 28.0977 208.855 28.3398C208.855 28.5742 208.855 28.8047 208.855 29.0312C209.082 28.6719 209.359 28.2773 209.688 27.8477C210.016 27.418 210.383 27.0117 210.789 26.6289C211.203 26.2461 211.652 25.9141 212.137 25.6328C212.621 25.3438 213.141 25.1641 213.695 25.0938C214.305 25.0625 214.875 25.1953 215.406 25.4922C215.625 25.6172 215.84 25.7852 216.051 25.9961C216.27 26.1992 216.473 26.4609 216.66 26.7812C216.84 27.1094 216.992 27.5 217.117 27.9531C217.242 28.3984 217.328 28.9258 217.375 29.5352ZM218.715 37.2695L219.312 19.1875L221.914 19.2344L221.48 30.3555L227.598 24.2031L229.402 25.6445L225.031 29.9688L230.07 36.5195L228.008 38.0312L223.297 31.6914L221.352 33.5898L221.234 37.1172L218.715 37.2695ZM236.754 35.9219C237.621 35.9219 238.418 35.6641 239.145 35.1484C239.871 34.625 240.344 33.8984 240.562 32.9688L242.824 33.4258C242.605 34.1367 242.297 34.7812 241.898 35.3594C241.5 35.9375 241.035 36.4336 240.504 36.8477C239.973 37.2617 239.387 37.582 238.746 37.8086C238.113 38.0352 237.449 38.1484 236.754 38.1484C235.723 38.1484 234.809 37.9922 234.012 37.6797C233.215 37.3672 232.543 36.9258 231.996 36.3555C230.879 35.1914 230.32 33.6055 230.32 31.5977C230.32 30.6211 230.484 29.7109 230.812 28.8672C231.148 28.0156 231.605 27.2773 232.184 26.6523C232.762 26.0273 233.441 25.5352 234.223 25.1758C235.004 24.8164 235.848 24.6367 236.754 24.6367C237.566 24.6367 238.332 24.7969 239.051 25.1172C239.77 25.4297 240.406 25.8633 240.961 26.418C241.516 26.9805 241.973 27.6406 242.332 28.3984C242.691 29.1562 242.918 29.9766 243.012 30.8594L232.863 32.3711C232.918 32.9258 233.055 33.4258 233.273 33.8711C233.5 34.3086 233.781 34.6797 234.117 34.9844C234.812 35.6094 235.691 35.9219 236.754 35.9219ZM232.934 30.2031L239.988 29.3477L239.918 29.125C239.621 28.3516 239.211 27.7461 238.688 27.3086C238.172 26.8711 237.527 26.6523 236.754 26.6523C236.426 26.6523 236.066 26.7109 235.676 26.8281C235.285 26.9375 234.906 27.1289 234.539 27.4023C234.172 27.6758 233.84 28.043 233.543 28.5039C233.254 28.957 233.051 29.5234 232.934 30.2031ZM254.945 26.0312L255.039 20.0312L257.242 20.1953L257.195 37.4805H254.793L254.816 35.9922C254.379 36.3984 253.906 36.7227 253.398 36.9648C252.898 37.207 252.422 37.3867 251.969 37.5039C251.477 37.6289 250.988 37.6992 250.504 37.7148C248.66 37.7148 247.137 37.1016 245.934 35.875C245.355 35.2891 244.898 34.5742 244.562 33.7305C244.234 32.8867 244.07 31.9375 244.07 30.8828C244.07 29.8203 244.254 28.875 244.621 28.0469C244.996 27.2109 245.48 26.5078 246.074 25.9375C246.676 25.3672 247.352 24.9336 248.102 24.6367C248.852 24.332 249.609 24.1797 250.375 24.1797C250.898 24.1875 251.43 24.2578 251.969 24.3906C252.43 24.5 252.926 24.6836 253.457 24.9414C253.988 25.1914 254.484 25.5547 254.945 26.0312ZM250.504 35.5586C251.488 35.5586 252.387 35.2578 253.199 34.6562C254.012 34.0625 254.566 33.2852 254.863 32.3242L254.887 29.8281C254.746 29.3281 254.527 28.8711 254.23 28.457C253.934 28.0352 253.586 27.6758 253.188 27.3789C252.352 26.7539 251.434 26.4414 250.434 26.4414C249.855 26.4414 249.324 26.5625 248.84 26.8047C248.355 27.0391 247.938 27.3633 247.586 27.7773C247.234 28.1914 246.961 28.6797 246.766 29.2422C246.57 29.8047 246.473 30.4141 246.473 31.0703C246.473 31.7266 246.57 32.3281 246.766 32.875C246.969 33.4219 247.25 33.8945 247.609 34.293C247.961 34.6914 248.383 35.0039 248.875 35.2305C249.375 35.4492 249.918 35.5586 250.504 35.5586Z" fill="url(#paint0_linear_80_2615)"/>
<path d="M161.039 20.3008L163.652 20.3945L163.805 36.5898H161.449L161.039 20.3008ZM279.328 35.125L280.91 25.0703L283.512 25.1641L281.18 37.4102L277.699 37.5039L275.637 28.8906L272.801 37.0938L269.297 37.3633L267.023 25.2109L269.438 25.0234L271.219 34.8672L274.699 25.0234L276.949 25.1641L279.328 35.125ZM288.625 21.3789C288.625 21.832 288.457 22.2227 288.121 22.5508C287.793 22.8711 287.398 23.0312 286.938 23.0312C286.484 23.0312 286.094 22.8711 285.766 22.5508C285.445 22.2227 285.285 21.832 285.285 21.3789C285.285 20.918 285.445 20.5234 285.766 20.1953C286.094 19.8594 286.484 19.6914 286.938 19.6914C287.398 19.6914 287.793 19.8594 288.121 20.1953C288.457 20.5234 288.625 20.918 288.625 21.3789ZM285.648 25.5977L288.074 25.5039L287.957 31.1289C287.918 32.6758 287.895 33.8906 287.887 34.7734C287.863 35.8516 287.852 36.6992 287.852 37.3164H285.449C285.457 36.8945 285.465 36.4336 285.473 35.9336C285.488 35.4258 285.5 34.8828 285.508 34.3047C285.523 33.2969 285.547 32.0742 285.578 30.6367L285.648 25.5977ZM293.621 25.4102L293.715 20.2773L296.047 20.125L295.965 25.3633L300.512 25.2109L300.336 27.4023L295.941 27.5195L295.848 37.7383L293.375 37.7969L293.574 27.5898L289.52 27.6836L289.566 25.5273L293.621 25.4102ZM302.016 37.5977L301.816 19.5273L304.512 19.4336L304.441 26.5586C304.871 26.0898 305.328 25.7227 305.812 25.457C306.297 25.1836 306.75 24.9766 307.172 24.8359C307.656 24.6797 308.137 24.5742 308.613 24.5195C310.379 24.5195 311.793 25.125 312.855 26.3359C313.371 26.9219 313.777 27.6367 314.074 28.4805C314.379 29.3164 314.551 30.2617 314.59 31.3164C314.59 31.8711 314.582 32.4375 314.566 33.0156C314.559 33.5938 314.535 34.1602 314.496 34.7148C314.449 35.2695 314.387 35.7969 314.309 36.2969C314.238 36.7969 314.141 37.2461 314.016 37.6445L311.344 37.457C311.57 36.707 311.73 35.9766 311.824 35.2656C311.926 34.5547 311.996 33.918 312.035 33.3555C312.066 32.6992 312.078 32.0742 312.07 31.4805C312.031 30.6445 311.887 29.9336 311.637 29.3477C311.395 28.7617 311.09 28.2812 310.723 27.9062C310.363 27.5391 309.961 27.2734 309.516 27.1094C309.078 26.9375 308.648 26.8516 308.227 26.8516C307.789 26.8828 307.34 27.0117 306.879 27.2383C306.488 27.4258 306.07 27.7188 305.625 28.1172C305.18 28.5078 304.766 29.0625 304.383 29.7812L304.312 37.5508L302.016 37.5977Z" fill="white"/>
<path fill-rule="evenodd" clip-rule="evenodd" d="M415.764 60.5464C415.764 60.5464 415.764 60.5465 415.642 60.6201C415.576 60.7526 415.575 60.7525 415.575 60.7525L415.569 60.7485L415.548 60.7364L415.465 60.6889C415.393 60.6473 415.286 60.5863 415.148 60.5088C414.873 60.3538 414.475 60.1331 413.986 59.8701C413.007 59.3441 411.663 58.6497 410.201 57.9753C408.739 57.3007 407.161 56.6475 405.715 56.203C404.263 55.7568 402.962 55.5273 402.046 55.6816L402.002 55.3841C402.983 55.2189 404.334 55.4656 405.791 55.9134C407.254 56.3628 408.843 57.0214 410.311 57.6985C411.779 58.3758 413.129 59.073 414.11 59.6007C414.601 59.8646 415.001 60.0862 415.277 60.2419C415.284 60.2454 415.29 60.249 415.296 60.2525C415.254 60.1686 415.207 60.0736 415.155 59.9684C414.927 59.5076 414.609 58.8496 414.247 58.0603C413.524 56.4823 412.624 54.3766 411.92 52.2713C411.217 50.1711 410.703 48.0514 410.767 46.4527C410.799 45.6523 410.977 44.962 411.367 44.4724C411.762 43.9773 412.356 43.7105 413.171 43.7191L413.168 44.0202C412.414 44.0123 411.908 44.2566 411.579 44.6686C411.246 45.0861 411.077 45.6988 411.047 46.4656C410.985 48.0015 411.482 50.0736 412.183 52.1692C412.882 54.2597 413.777 56.354 414.498 57.9269C414.858 58.7131 415.175 59.3684 415.402 59.827C415.515 60.0563 415.606 60.2363 415.668 60.359C415.699 60.4203 415.723 60.4673 415.739 60.4989L415.758 60.5346L415.764 60.5464ZM415.642 60.6201L415.575 60.7525L416 61L415.764 60.5464L415.642 60.6201Z" fill="white"/>
<path fill-rule="evenodd" clip-rule="evenodd" d="M379.989 24.1242C391.994 31.0945 402.708 40.8886 409.184 52.1827L408.947 52.341C402.502 41.1031 391.83 31.3416 379.857 24.3893C367.883 17.4369 354.619 13.3011 343 13.3011V13C354.676 13 367.984 17.1539 379.989 24.1242Z" fill="white"/>
<defs>
<linearGradient id="paint0_linear_80_2615" x1="160" y1="0" x2="160" y2="58" gradientUnits="userSpaceOnUse">
<stop stop-color="#58A5FF"/>
<stop offset="0.865" stop-color="#7276C5"/>
</linearGradient>
</defs>
</svg>
