<svg width="423" height="118" viewBox="0 0 423 118" fill="none" xmlns="http://www.w3.org/2000/svg">
<path d="M122.742 23.2422L125.215 23.125L125.309 32.5117L135.633 32.0078L135.516 23.3008L138.129 23.4883L138.27 39.5898L135.75 39.7891L135.68 34.1875L125.332 34.6445L125.414 39.9062L122.965 40L122.742 23.2422ZM147.215 38.9219C148.082 38.9219 148.879 38.6641 149.605 38.1484C150.332 37.625 150.805 36.8984 151.023 35.9688L153.285 36.4258C153.066 37.1367 152.758 37.7812 152.359 38.3594C151.961 38.9375 151.496 39.4336 150.965 39.8477C150.434 40.2617 149.848 40.582 149.207 40.8086C148.574 41.0352 147.91 41.1484 147.215 41.1484C146.184 41.1484 145.27 40.9922 144.473 40.6797C143.676 40.3672 143.004 39.9258 142.457 39.3555C141.34 38.1914 140.781 36.6055 140.781 34.5977C140.781 33.6211 140.945 32.7109 141.273 31.8672C141.609 31.0156 142.066 30.2773 142.645 29.6523C143.223 29.0273 143.902 28.5352 144.684 28.1758C145.465 27.8164 146.309 27.6367 147.215 27.6367C148.027 27.6367 148.793 27.7969 149.512 28.1172C150.23 28.4297 150.867 28.8633 151.422 29.418C151.977 29.9805 152.434 30.6406 152.793 31.3984C153.152 32.1562 153.379 32.9766 153.473 33.8594L143.324 35.3711C143.379 35.9258 143.516 36.4258 143.734 36.8711C143.961 37.3086 144.242 37.6797 144.578 37.9844C145.273 38.6094 146.152 38.9219 147.215 38.9219ZM143.395 33.2031L150.449 32.3477L150.379 32.125C150.082 31.3516 149.672 30.7461 149.148 30.3086C148.633 29.8711 147.988 29.6523 147.215 29.6523C146.887 29.6523 146.527 29.7109 146.137 29.8281C145.746 29.9375 145.367 30.1289 145 30.4023C144.633 30.6758 144.301 31.043 144.004 31.5039C143.715 31.957 143.512 32.5234 143.395 33.2031ZM160.262 38.2422L159.957 40.5742C159.402 40.5664 158.91 40.4727 158.48 40.293C158.059 40.1133 157.688 39.8789 157.367 39.5898C157.039 39.3086 156.758 38.9844 156.523 38.6172C156.297 38.25 156.105 37.8789 155.949 37.5039C155.574 36.6133 155.34 35.6055 155.246 34.4805L155.562 19.6211H158.012L157.906 23.4414C157.891 24.0195 157.875 24.5742 157.859 25.1055C157.844 25.6289 157.828 26.1289 157.812 26.6055C157.789 27.5508 157.766 28.4023 157.742 29.1602C157.727 29.9102 157.711 30.5703 157.695 31.1406C157.656 32.4922 157.633 33.5508 157.625 34.3164C157.633 35.0352 157.738 35.6836 157.941 36.2617C158.113 36.793 158.383 37.2539 158.75 37.6445C159.117 38.0273 159.621 38.2266 160.262 38.2422ZM166.512 38.2422L166.207 40.5742C165.652 40.5664 165.16 40.4727 164.73 40.293C164.309 40.1133 163.938 39.8789 163.617 39.5898C163.289 39.3086 163.008 38.9844 162.773 38.6172C162.547 38.25 162.355 37.8789 162.199 37.5039C161.824 36.6133 161.59 35.6055 161.496 34.4805L161.812 19.6211H164.262L164.156 23.4414C164.141 24.0195 164.125 24.5742 164.109 25.1055C164.094 25.6289 164.078 26.1289 164.062 26.6055C164.039 27.5508 164.016 28.4023 163.992 29.1602C163.977 29.9102 163.961 30.5703 163.945 31.1406C163.906 32.4922 163.883 33.5508 163.875 34.3164C163.883 35.0352 163.988 35.6836 164.191 36.2617C164.363 36.793 164.633 37.2539 165 37.6445C165.367 38.0273 165.871 38.2266 166.512 38.2422ZM179.582 34.3164C179.582 35.3008 179.418 36.2109 179.09 37.0469C178.762 37.8828 178.312 38.6094 177.742 39.2266C177.172 39.8438 176.504 40.3242 175.738 40.668C174.973 41.0195 174.156 41.1953 173.289 41.1953C171.516 41.1953 170.043 40.5625 168.871 39.2969C168.301 38.6953 167.852 37.9727 167.523 37.1289C167.195 36.2852 167.031 35.3477 167.031 34.3164C167.031 33.2773 167.195 32.3359 167.523 31.4922C167.852 30.6406 168.301 29.9141 168.871 29.3125C169.434 28.7109 170.094 28.2461 170.852 27.918C171.609 27.5898 172.422 27.4258 173.289 27.4258C174.156 27.4258 174.973 27.6016 175.738 27.9531C176.504 28.2969 177.172 28.7734 177.742 29.3828C178.312 30 178.762 30.7305 179.09 31.5742C179.418 32.4102 179.582 33.3242 179.582 34.3164ZM177.109 34.293C177.109 33.7305 177.039 33.1602 176.898 32.582C176.758 32.0039 176.535 31.4883 176.23 31.0352C175.926 30.5742 175.531 30.2031 175.047 29.9219C174.562 29.6328 173.977 29.4883 173.289 29.4883C172.625 29.4883 172.055 29.6328 171.578 29.9219C171.102 30.2031 170.711 30.5742 170.406 31.0352C170.102 31.4883 169.879 32.0039 169.738 32.582C169.598 33.1602 169.527 33.7305 169.527 34.293C169.527 34.8555 169.602 35.4219 169.75 35.9922C169.906 36.5547 170.141 37.0664 170.453 37.5273C170.766 37.9805 171.156 38.3555 171.625 38.6523C172.102 38.9414 172.656 39.0859 173.289 39.0859C173.953 39.0859 174.523 38.9414 175 38.6523C175.484 38.3555 175.883 37.9805 176.195 37.5273C176.508 37.0664 176.738 36.5547 176.887 35.9922C177.035 35.4219 177.109 34.8555 177.109 34.293ZM182.246 36.543L181.812 22.1406L184.66 22.0469L184.062 36.4961L182.246 36.543ZM184.473 39.6367C184.473 39.9961 184.344 40.3008 184.086 40.5508C183.828 40.8086 183.516 40.9375 183.148 40.9375C182.789 40.9375 182.484 40.8086 182.234 40.5508C181.984 40.3008 181.859 39.9961 181.859 39.6367C181.859 39.2773 181.984 38.9688 182.234 38.7109C182.484 38.4531 182.789 38.3242 183.148 38.3242C183.516 38.3242 183.828 38.4531 184.086 38.7109C184.344 38.9688 184.473 39.2773 184.473 39.6367ZM195.625 23.3008L198.238 23.3945L198.391 39.5898H196.035L195.625 23.3008ZM225.609 40.2695L222.844 40.668C222.383 39.0742 221.895 37.4922 221.379 35.9219L211.945 36.332C211.383 37.8086 210.848 39.3047 210.34 40.8203L207.68 40.457C208.781 37.5039 210 34.5977 211.336 31.7383C212.68 28.8789 214.109 26.0469 215.625 23.2422L218.906 23.3008C220.25 26.0117 221.477 28.7773 222.586 31.5977C223.695 34.4102 224.703 37.3008 225.609 40.2695ZM217.02 25.1875C216.23 26.6875 215.484 28.1953 214.781 29.7109C214.078 31.2188 213.406 32.7461 212.766 34.293L220.688 33.9531C220.156 32.4531 219.586 30.9805 218.977 29.5352C218.367 28.0898 217.715 26.6406 217.02 25.1875ZM227.348 27.7891L229.797 27.5195L229.844 30.9297C230.195 30.4844 230.566 30.0469 230.957 29.6172C231.348 29.1875 231.777 28.832 232.246 28.5508C232.723 28.2617 233.258 28.1172 233.852 28.1172C234.547 28.1172 235.156 28.3477 235.68 28.8086C236.203 29.2617 236.508 29.9297 236.594 30.8125C236.93 30.3906 237.289 29.9727 237.672 29.5586C238.055 29.1445 238.477 28.8008 238.938 28.5273C239.398 28.2539 239.914 28.1172 240.484 28.1172C241.25 28.1172 241.895 28.375 242.418 28.8906C242.949 29.4062 243.23 30.1641 243.262 31.1641C243.285 31.4531 243.309 31.7773 243.332 32.1367C243.355 32.4883 243.375 32.8828 243.391 33.3203C243.43 34.0625 243.461 35.0078 243.484 36.1562C243.516 37.2969 243.531 38.668 243.531 40.2695L241.082 40.3867C241.082 38.9648 241.078 37.75 241.07 36.7422C241.062 35.7266 241.055 34.8867 241.047 34.2227L241.012 32.3008C240.965 31.0352 240.621 30.4023 239.98 30.4023C239.691 30.4023 239.387 30.5352 239.066 30.8008C238.746 31.0664 238.461 31.3594 238.211 31.6797C238.109 31.8047 238.012 31.9297 237.918 32.0547C237.832 32.1719 237.746 32.293 237.66 32.418C237.488 32.668 237.324 32.9102 237.168 33.1445C237.012 33.3789 236.875 33.5859 236.758 33.7656C236.773 34.1094 236.789 34.4883 236.805 34.9023C236.828 35.3164 236.844 35.7852 236.852 36.3086C236.867 36.832 236.875 37.418 236.875 38.0664C236.875 38.7148 236.875 39.4492 236.875 40.2695L234.602 40.3867C234.602 38.9648 234.586 37.75 234.555 36.7422C234.531 35.7266 234.504 34.8867 234.473 34.2227C234.457 33.832 234.438 33.4766 234.414 33.1562C234.398 32.8359 234.379 32.5508 234.355 32.3008C234.309 31.0352 233.965 30.4023 233.324 30.4023C233.129 30.4023 232.922 30.4688 232.703 30.6016C232.273 30.875 231.852 31.2852 231.438 31.832C231.336 31.9648 231.234 32.1016 231.133 32.2422C231.039 32.3828 230.945 32.5195 230.852 32.6523C230.703 32.8711 230.531 33.125 230.336 33.4141C230.148 33.7031 230 33.9297 229.891 34.0938L229.996 40.2695L227.664 40.3867L227.348 27.7891Z" fill="white"/>
<path d="M259.723 31.5977L269.18 31.293L269.367 36.9297C268.57 38.0859 267.543 39.0039 266.285 39.6836C265.668 40.0117 265.012 40.2656 264.316 40.4453C263.629 40.625 262.914 40.7148 262.172 40.7148C261.352 40.7148 260.566 40.6094 259.816 40.3984C258.316 39.9688 257.012 39.1875 255.902 38.0547C255.371 37.5156 254.91 36.9062 254.52 36.2266C254.137 35.5547 253.84 34.832 253.629 34.0586C253.418 33.2852 253.312 32.4805 253.312 31.6445C253.312 30.8086 253.418 30.0039 253.629 29.2305C254.051 27.6758 254.809 26.3398 255.902 25.2227C256.434 24.6836 257.031 24.2109 257.695 23.8047C258.352 23.4141 259.059 23.1133 259.816 22.9023C260.574 22.6836 261.359 22.5742 262.172 22.5742C262.867 22.5742 263.539 22.6523 264.188 22.8086C264.836 22.9648 265.453 23.1875 266.039 23.4766C267.219 24.0547 268.223 24.8672 269.051 25.9141L267.258 27.3789C266.648 26.6211 265.906 26.0195 265.031 25.5742C264.164 25.1289 263.211 24.9062 262.172 24.9062C261.266 24.9062 260.418 25.0859 259.629 25.4453C258.84 25.7969 258.148 26.2773 257.555 26.8867C256.961 27.4961 256.492 28.2109 256.148 29.0312C255.812 29.8438 255.645 30.7148 255.645 31.6445C255.645 32.5742 255.812 33.4492 256.148 34.2695C256.492 35.0898 256.961 35.8047 257.555 36.4141C258.148 37.0234 258.84 37.5078 259.629 37.8672C260.418 38.2188 261.266 38.3945 262.172 38.3945C263.117 38.3945 263.996 38.207 264.809 37.832C265.629 37.4492 266.34 36.9258 266.941 36.2617L266.895 33.7656L259.723 34.0469V31.5977ZM283.094 38.125L284.676 28.0703L287.277 28.1641L284.945 40.4102L281.465 40.5039L279.402 31.8906L276.566 40.0938L273.062 40.3633L270.789 28.2109L273.203 28.0234L274.984 37.8672L278.465 28.0234L280.715 28.1641L283.094 38.125ZM300.641 41.125L298.344 40.7383L298.508 39.0859C297.555 39.6953 296.617 40.1367 295.695 40.4102C294.781 40.6836 293.926 40.8203 293.129 40.8203C292.566 40.8203 292.02 40.7461 291.488 40.5977C290.965 40.457 290.504 40.2344 290.105 39.9297C289.699 39.6328 289.371 39.2539 289.121 38.793C288.879 38.3242 288.758 37.7734 288.758 37.1406C288.758 36.5078 288.852 35.9414 289.039 35.4414C289.227 34.9414 289.484 34.5 289.812 34.1172C290.141 33.7344 290.527 33.4062 290.973 33.1328C291.418 32.8594 291.898 32.6367 292.414 32.4648C292.922 32.293 293.457 32.168 294.02 32.0898C294.582 32.0039 295.141 31.9609 295.695 31.9609C296.211 31.9609 296.691 31.9805 297.137 32.0195C297.582 32.0586 297.977 32.1094 298.32 32.1719C298.18 31.6172 297.988 31.0977 297.746 30.6133C297.512 30.1289 297.199 29.7383 296.809 29.4414C296.426 29.1367 295.93 28.9844 295.32 28.9844C295.016 28.9844 294.668 29.0312 294.277 29.125C293.887 29.2109 293.457 29.3711 292.988 29.6055C292.52 29.8398 292.008 30.1641 291.453 30.5781C290.898 30.9844 290.305 31.5078 289.672 32.1484L288.254 30.4258C289.004 29.7227 289.723 29.1484 290.41 28.7031C291.098 28.2578 291.746 27.9062 292.355 27.6484C292.957 27.3984 293.516 27.2266 294.031 27.1328C294.555 27.0391 295.023 26.9922 295.438 26.9922C296.164 26.9922 296.805 27.1133 297.359 27.3555C297.922 27.5977 298.418 27.9336 298.848 28.3633C299.277 28.7852 299.637 29.2852 299.926 29.8633C300.207 30.418 300.445 31.0352 300.641 31.7148C300.828 32.3789 300.961 33.0664 301.039 33.7773C301.125 34.4883 301.168 35.1953 301.168 35.8984C301.168 36.6484 301.125 37.4531 301.039 38.3125C300.953 39.1719 300.82 40.1094 300.641 41.125ZM298.672 36.4727C298.688 36.082 298.699 35.6953 298.707 35.3125C298.715 34.9297 298.695 34.5312 298.648 34.1172C298.266 34 297.863 33.9062 297.441 33.8359C297.02 33.7656 296.598 33.7305 296.176 33.7305C295.473 33.7305 294.789 33.8125 294.125 33.9766C293.469 34.1406 292.902 34.3789 292.426 34.6914C291.949 35.0039 291.59 35.3867 291.348 35.8398C291.113 36.293 291.066 36.8086 291.207 37.3867C291.316 37.8555 291.527 38.1836 291.84 38.3711C292.16 38.5586 292.543 38.6523 292.988 38.6523C293.566 38.6523 294.215 38.5312 294.934 38.2891C295.652 38.0391 296.344 37.7422 297.008 37.3984C297.68 37.0547 298.234 36.7461 298.672 36.4727ZM313.781 29.0312L313.875 23.0312L316.078 23.1953L316.031 40.4805H313.629L313.652 38.9922C313.215 39.3984 312.742 39.7227 312.234 39.9648C311.734 40.207 311.258 40.3867 310.805 40.5039C310.312 40.6289 309.824 40.6992 309.34 40.7148C307.496 40.7148 305.973 40.1016 304.77 38.875C304.191 38.2891 303.734 37.5742 303.398 36.7305C303.07 35.8867 302.906 34.9375 302.906 33.8828C302.906 32.8203 303.09 31.875 303.457 31.0469C303.832 30.2109 304.316 29.5078 304.91 28.9375C305.512 28.3672 306.188 27.9336 306.938 27.6367C307.688 27.332 308.445 27.1797 309.211 27.1797C309.734 27.1875 310.266 27.2578 310.805 27.3906C311.266 27.5 311.762 27.6836 312.293 27.9414C312.824 28.1914 313.32 28.5547 313.781 29.0312ZM309.34 38.5586C310.324 38.5586 311.223 38.2578 312.035 37.6562C312.848 37.0625 313.402 36.2852 313.699 35.3242L313.723 32.8281C313.582 32.3281 313.363 31.8711 313.066 31.457C312.77 31.0352 312.422 30.6758 312.023 30.3789C311.188 29.7539 310.27 29.4414 309.27 29.4414C308.691 29.4414 308.16 29.5625 307.676 29.8047C307.191 30.0391 306.773 30.3633 306.422 30.7773C306.07 31.1914 305.797 31.6797 305.602 32.2422C305.406 32.8047 305.309 33.4141 305.309 34.0703C305.309 34.7266 305.406 35.3281 305.602 35.875C305.805 36.4219 306.086 36.8945 306.445 37.293C306.797 37.6914 307.219 38.0039 307.711 38.2305C308.211 38.4492 308.754 38.5586 309.34 38.5586ZM324.684 38.9219C325.551 38.9219 326.348 38.6641 327.074 38.1484C327.801 37.625 328.273 36.8984 328.492 35.9688L330.754 36.4258C330.535 37.1367 330.227 37.7812 329.828 38.3594C329.43 38.9375 328.965 39.4336 328.434 39.8477C327.902 40.2617 327.316 40.582 326.676 40.8086C326.043 41.0352 325.379 41.1484 324.684 41.1484C323.652 41.1484 322.738 40.9922 321.941 40.6797C321.145 40.3672 320.473 39.9258 319.926 39.3555C318.809 38.1914 318.25 36.6055 318.25 34.5977C318.25 33.6211 318.414 32.7109 318.742 31.8672C319.078 31.0156 319.535 30.2773 320.113 29.6523C320.691 29.0273 321.371 28.5352 322.152 28.1758C322.934 27.8164 323.777 27.6367 324.684 27.6367C325.496 27.6367 326.262 27.7969 326.98 28.1172C327.699 28.4297 328.336 28.8633 328.891 29.418C329.445 29.9805 329.902 30.6406 330.262 31.3984C330.621 32.1562 330.848 32.9766 330.941 33.8594L320.793 35.3711C320.848 35.9258 320.984 36.4258 321.203 36.8711C321.43 37.3086 321.711 37.6797 322.047 37.9844C322.742 38.6094 323.621 38.9219 324.684 38.9219ZM320.863 33.2031L327.918 32.3477L327.848 32.125C327.551 31.3516 327.141 30.7461 326.617 30.3086C326.102 29.8711 325.457 29.6523 324.684 29.6523C324.355 29.6523 323.996 29.7109 323.605 29.8281C323.215 29.9375 322.836 30.1289 322.469 30.4023C322.102 30.6758 321.77 31.043 321.473 31.5039C321.184 31.957 320.98 32.5234 320.863 33.2031ZM353.402 37.2344C353.324 37.7812 353.172 38.2656 352.945 38.6875C352.711 39.1172 352.422 39.4883 352.078 39.8008C351.734 40.1133 351.352 40.3789 350.93 40.5977C350.477 40.8164 350.031 40.9883 349.594 41.1133C349.125 41.2461 348.652 41.3398 348.176 41.3945C347.699 41.457 347.242 41.4883 346.805 41.4883C346.203 41.4883 345.609 41.4219 345.023 41.2891C344.438 41.1641 343.863 40.9883 343.301 40.7617C342.73 40.5273 342.168 40.25 341.613 39.9297C341.066 39.6094 340.523 39.2578 339.984 38.875L341.695 36.8594C342.305 37.3984 342.906 37.8242 343.5 38.1367C344.102 38.4414 344.641 38.6719 345.117 38.8281C345.68 39.0234 346.211 39.1484 346.711 39.2031C347.273 39.2344 347.797 39.1914 348.281 39.0742C348.773 38.9492 349.199 38.7773 349.559 38.5586C350.309 38.0977 350.727 37.5078 350.812 36.7891C350.836 36.5 350.785 36.2344 350.66 35.9922C350.418 35.5234 349.949 35.1289 349.254 34.8086C349.09 34.7305 348.918 34.6602 348.738 34.5977C348.566 34.5273 348.391 34.4609 348.211 34.3984C347.836 34.2812 347.449 34.1797 347.051 34.0938C346.66 34 346.281 33.9219 345.914 33.8594C345.469 33.7734 345 33.668 344.508 33.543C344.016 33.4102 343.531 33.2422 343.055 33.0391C342.578 32.8281 342.129 32.5664 341.707 32.2539C341.277 31.9336 340.914 31.5547 340.617 31.1172C340.305 30.6797 340.066 30.168 339.902 29.582C339.746 28.9961 339.695 28.3242 339.75 27.5664C339.797 26.9258 339.93 26.3594 340.148 25.8672C340.562 24.875 341.23 24.082 342.152 23.4883C342.59 23.207 343.059 22.9727 343.559 22.7852C344.059 22.5977 344.574 22.4648 345.105 22.3867C345.645 22.3008 346.18 22.2617 346.711 22.2695C347.43 22.3008 348.168 22.4141 348.926 22.6094C349.598 22.7812 350.293 23.0352 351.012 23.3711C351.738 23.707 352.398 24.1602 352.992 24.7305L351.68 26.8047C351.219 26.2812 350.688 25.8633 350.086 25.5508C349.484 25.2305 348.918 24.9961 348.387 24.8477C347.793 24.6836 347.203 24.5898 346.617 24.5664C345.906 24.5664 345.273 24.6719 344.719 24.8828C344.164 25.0938 343.699 25.3711 343.324 25.7148C342.941 26.0508 342.648 26.4297 342.445 26.8516C342.25 27.2734 342.152 27.6875 342.152 28.0938C342.152 28.4922 342.27 28.8789 342.504 29.2539C342.746 29.6289 343.078 29.9688 343.5 30.2734C344.391 30.9141 345.5 31.3242 346.828 31.5039C347.117 31.5352 347.402 31.5781 347.684 31.6328C347.965 31.6797 348.25 31.7383 348.539 31.8086C349.102 31.9492 349.641 32.1289 350.156 32.3477C350.68 32.5664 351.156 32.8281 351.586 33.1328C352.023 33.4531 352.387 33.8086 352.676 34.1992C352.973 34.6055 353.188 35.0625 353.32 35.5703C353.461 36.0703 353.488 36.625 353.402 37.2344ZM358.152 28.4102L358.246 23.2773L360.578 23.125L360.496 28.3633L365.043 28.2109L364.867 30.4023L360.473 30.5195L360.379 40.7383L357.906 40.7969L358.105 30.5898L354.051 30.6836L354.098 28.5273L358.152 28.4102ZM371.996 38.9219C372.863 38.9219 373.66 38.6641 374.387 38.1484C375.113 37.625 375.586 36.8984 375.805 35.9688L378.066 36.4258C377.848 37.1367 377.539 37.7812 377.141 38.3594C376.742 38.9375 376.277 39.4336 375.746 39.8477C375.215 40.2617 374.629 40.582 373.988 40.8086C373.355 41.0352 372.691 41.1484 371.996 41.1484C370.965 41.1484 370.051 40.9922 369.254 40.6797C368.457 40.3672 367.785 39.9258 367.238 39.3555C366.121 38.1914 365.562 36.6055 365.562 34.5977C365.562 33.6211 365.727 32.7109 366.055 31.8672C366.391 31.0156 366.848 30.2773 367.426 29.6523C368.004 29.0273 368.684 28.5352 369.465 28.1758C370.246 27.8164 371.09 27.6367 371.996 27.6367C372.809 27.6367 373.574 27.7969 374.293 28.1172C375.012 28.4297 375.648 28.8633 376.203 29.418C376.758 29.9805 377.215 30.6406 377.574 31.3984C377.934 32.1562 378.16 32.9766 378.254 33.8594L368.105 35.3711C368.16 35.9258 368.297 36.4258 368.516 36.8711C368.742 37.3086 369.023 37.6797 369.359 37.9844C370.055 38.6094 370.934 38.9219 371.996 38.9219ZM368.176 33.2031L375.23 32.3477L375.16 32.125C374.863 31.3516 374.453 30.7461 373.93 30.3086C373.414 29.8711 372.77 29.6523 371.996 29.6523C371.668 29.6523 371.309 29.7109 370.918 29.8281C370.527 29.9375 370.148 30.1289 369.781 30.4023C369.414 30.6758 369.082 31.043 368.785 31.5039C368.496 31.957 368.293 32.5234 368.176 33.2031ZM384.996 38.2773L388.723 27.7891L391.137 28.1172L386.531 40.457L383.227 40.4102L379.113 28.5742L381.492 28.2109L384.996 38.2773ZM398.465 38.9219C399.332 38.9219 400.129 38.6641 400.855 38.1484C401.582 37.625 402.055 36.8984 402.273 35.9688L404.535 36.4258C404.316 37.1367 404.008 37.7812 403.609 38.3594C403.211 38.9375 402.746 39.4336 402.215 39.8477C401.684 40.2617 401.098 40.582 400.457 40.8086C399.824 41.0352 399.16 41.1484 398.465 41.1484C397.434 41.1484 396.52 40.9922 395.723 40.6797C394.926 40.3672 394.254 39.9258 393.707 39.3555C392.59 38.1914 392.031 36.6055 392.031 34.5977C392.031 33.6211 392.195 32.7109 392.523 31.8672C392.859 31.0156 393.316 30.2773 393.895 29.6523C394.473 29.0273 395.152 28.5352 395.934 28.1758C396.715 27.8164 397.559 27.6367 398.465 27.6367C399.277 27.6367 400.043 27.7969 400.762 28.1172C401.48 28.4297 402.117 28.8633 402.672 29.418C403.227 29.9805 403.684 30.6406 404.043 31.3984C404.402 32.1562 404.629 32.9766 404.723 33.8594L394.574 35.3711C394.629 35.9258 394.766 36.4258 394.984 36.8711C395.211 37.3086 395.492 37.6797 395.828 37.9844C396.523 38.6094 397.402 38.9219 398.465 38.9219ZM394.645 33.2031L401.699 32.3477L401.629 32.125C401.332 31.3516 400.922 30.7461 400.398 30.3086C399.883 29.8711 399.238 29.6523 398.465 29.6523C398.137 29.6523 397.777 29.7109 397.387 29.8281C396.996 29.9375 396.617 30.1289 396.25 30.4023C395.883 30.6758 395.551 31.043 395.254 31.5039C394.965 31.957 394.762 32.5234 394.645 33.2031Z" fill="url(#paint0_linear_10_60)"/>
<path fill-rule="evenodd" clip-rule="evenodd" d="M21.6344 82.3959C21.6344 82.3959 21.6343 82.3961 21.7652 82.4694C21.8366 82.6014 21.8367 82.6013 21.8367 82.6013L21.844 82.5974L21.8665 82.5853L21.955 82.538C22.0329 82.4965 22.1478 82.4357 22.2956 82.3585C22.5911 82.2042 23.0179 81.9842 23.543 81.7223C24.5932 81.1983 26.0355 80.5064 27.6044 79.8346C29.1738 79.1626 30.8669 78.5119 32.4194 78.069C33.9776 77.6246 35.3731 77.3959 36.3568 77.5496L36.4032 77.2532C35.3506 77.0887 33.901 77.3344 32.3371 77.7805C30.7675 78.2283 29.0615 78.8843 27.4863 79.5589C25.9105 80.2336 24.4627 80.9281 23.409 81.4538C22.8821 81.7167 22.4536 81.9375 22.1567 82.0926C22.1499 82.0962 22.1431 82.0997 22.1365 82.1032C22.1815 82.0196 22.2322 81.925 22.288 81.8202C22.5323 81.3612 22.8735 80.7057 23.2619 79.9193C24.0385 78.3473 25.0046 76.2496 25.7602 74.1522C26.5138 72.06 27.0654 69.9484 26.9968 68.3558C26.9625 67.5584 26.7721 66.8707 26.3531 66.383C25.9294 65.8898 25.2921 65.624 24.4169 65.6325L24.4198 65.9325C25.2294 65.9247 25.7729 66.168 26.1255 66.5785C26.4828 66.9944 26.6642 67.6047 26.6971 68.3687C26.7629 69.8987 26.2299 71.9629 25.4779 74.0506C24.7277 76.1331 23.767 78.2195 22.993 79.7865C22.6061 80.5697 22.2663 81.2224 22.0232 81.6793C21.9016 81.9077 21.8043 82.0871 21.7374 82.2093C21.704 82.2704 21.6782 82.3172 21.6607 82.3487L21.6409 82.3843L21.6344 82.3959ZM21.7652 82.4694L21.8367 82.6013L21.381 82.8479L21.6344 82.3959L21.7652 82.4694Z" fill="white"/>
<path fill-rule="evenodd" clip-rule="evenodd" d="M60.0278 46.112C47.1443 53.0558 35.6464 62.8128 28.6955 74.064L28.9507 74.2217C35.867 63.0265 47.3198 53.3021 60.1701 46.3761C73.0205 39.4501 87.2546 35.33 99.7244 35.33V35.03C87.1942 35.03 72.9113 39.1682 60.0278 46.112Z" fill="white"/>
<defs>
<linearGradient id="paint0_linear_10_60" x1="263" y1="22" x2="263" y2="42" gradientUnits="userSpaceOnUse">
<stop stop-color="#58A5FF"/>
<stop offset="0.865" stop-color="#7276C5"/>
</linearGradient>
</defs>
</svg>
