<svg width="45" height="45" viewBox="0 0 45 45" fill="none" xmlns="http://www.w3.org/2000/svg">
<g clip-path="url(#clip0_10_45)">
<path d="M17.5 22.5C17.5 25.2613 19.7386 27.4999 22.5001 27.4999C25.2614 27.4999 27.5 25.2613 27.5 22.5C27.5 19.7385 25.2614 17.4999 22.5001 17.4999C19.7386 17.4999 17.5 19.7385 17.5 22.5Z" fill="url(#paint0_linear_10_45)"/>
<path fill-rule="evenodd" clip-rule="evenodd" d="M28.5612 10.2902C26.9795 10.218 26.5051 10.2027 22.5 10.2027C18.4948 10.2027 18.0204 10.218 16.4386 10.2902C14.9762 10.3569 14.182 10.6012 13.6534 10.8066C12.9533 11.0787 12.4536 11.4038 11.9286 11.9287C11.4037 12.4536 11.0787 12.9533 10.8066 13.6534C10.6012 14.182 10.3568 14.9762 10.2901 16.4386C10.2179 18.0204 10.2027 18.4948 10.2027 22.5C10.2027 26.5051 10.2179 26.9795 10.2901 28.5612C10.3568 30.0236 10.6012 30.8179 10.8066 31.3464C11.0787 32.0466 11.4037 32.5463 11.9286 33.0711C12.4536 33.5961 12.9533 33.9211 13.6534 34.1932C14.182 34.3986 14.9762 34.643 16.4386 34.7097C18.0202 34.7818 18.4944 34.7971 22.5 34.7971C26.5054 34.7971 26.9797 34.7818 28.5612 34.7097C30.0236 34.643 30.8179 34.3986 31.3464 34.1932C32.0466 33.9211 32.5463 33.5961 33.0711 33.0711C33.5961 32.5463 33.9211 32.0466 34.1932 31.3464C34.3986 30.8179 34.643 30.0236 34.7097 28.5612C34.7818 26.9795 34.7971 26.5051 34.7971 22.5C34.7971 18.4948 34.7818 18.0204 34.7097 16.4386C34.643 14.9762 34.3986 14.182 34.1932 13.6534C33.9211 12.9533 33.5961 12.4536 33.0711 11.9287C32.5463 11.4038 32.0466 11.0787 31.3464 10.8066C30.8179 10.6012 30.0236 10.3569 28.5612 10.2902ZM14.7973 22.5C14.7973 18.2458 18.2459 14.7973 22.5001 14.7973C26.7541 14.7973 30.2027 18.2458 30.2027 22.5C30.2027 26.754 26.7541 30.2026 22.5001 30.2026C18.2459 30.2026 14.7973 26.754 14.7973 22.5ZM32.3069 14.4929C32.3069 15.4871 31.501 16.2929 30.5069 16.2929C29.5128 16.2929 28.7069 15.4871 28.7069 14.4929C28.7069 13.4988 29.5128 12.693 30.5069 12.693C31.501 12.693 32.3069 13.4988 32.3069 14.4929Z" fill="url(#paint1_linear_10_45)"/>
<path fill-rule="evenodd" clip-rule="evenodd" d="M45 22.5C45 34.9264 34.9264 45 22.5 45C10.0736 45 0 34.9264 0 22.5C0 10.0736 10.0736 0 22.5 0C34.9264 0 45 10.0736 45 22.5ZM16.3155 7.59029C17.9154 7.51728 18.4262 7.5 22.5 7.5C26.5736 7.5 27.0845 7.51728 28.6844 7.59029C30.2809 7.66313 31.3713 7.91666 32.3254 8.2875C33.3118 8.67082 34.1483 9.18375 34.9823 10.0177C35.8161 10.8515 36.3291 11.688 36.7124 12.6744C37.0832 13.6285 37.3368 14.7189 37.4096 16.3155C37.4825 17.9154 37.4998 18.4262 37.4998 22.5C37.4998 26.5736 37.4825 27.0845 37.4096 28.6844C37.3368 30.2809 37.0832 31.3713 36.7124 32.3254C36.3291 33.3118 35.8161 34.1483 34.9823 34.9823C34.1483 35.8161 33.3118 36.3291 32.3254 36.7124C31.3713 37.0832 30.2809 37.3368 28.6844 37.4096C27.0845 37.4825 26.5736 37.4998 22.5 37.4998C18.4262 37.4998 17.9154 37.4825 16.3155 37.4096C14.7189 37.3368 13.6285 37.0832 12.6743 36.7124C11.688 36.3291 10.8514 35.8161 10.0176 34.9823C9.18369 34.1483 8.67076 33.3118 8.28744 32.3254C7.9166 31.3713 7.66307 30.2809 7.59023 28.6844C7.51723 27.0845 7.5 26.5736 7.5 22.5C7.5 18.4262 7.51723 17.9154 7.59023 16.3155C7.66307 14.7189 7.9166 13.6285 8.28744 12.6744C8.67076 11.688 9.18369 10.8515 10.0176 10.0177C10.8514 9.18375 11.688 8.67082 12.6743 8.2875C13.6285 7.91666 14.7189 7.66313 16.3155 7.59029Z" fill="url(#paint2_linear_10_45)"/>
</g>
<defs>
<linearGradient id="paint0_linear_10_45" x1="26.4385" y1="-2.38434" x2="13.2884" y2="41.0602" gradientUnits="userSpaceOnUse">
<stop stop-color="#515BD4"/>
<stop offset="0.26" stop-color="#9510B8"/>
<stop offset="0.66" stop-color="#E51804"/>
<stop offset="1" stop-color="#FFBF00"/>
</linearGradient>
<linearGradient id="paint1_linear_10_45" x1="26.4385" y1="-2.38434" x2="13.2884" y2="41.0602" gradientUnits="userSpaceOnUse">
<stop stop-color="#515BD4"/>
<stop offset="0.26" stop-color="#9510B8"/>
<stop offset="0.66" stop-color="#E51804"/>
<stop offset="1" stop-color="#FFBF00"/>
</linearGradient>
<linearGradient id="paint2_linear_10_45" x1="26.4385" y1="-2.38434" x2="13.2884" y2="41.0602" gradientUnits="userSpaceOnUse">
<stop stop-color="#515BD4"/>
<stop offset="0.26" stop-color="#9510B8"/>
<stop offset="0.66" stop-color="#E51804"/>
<stop offset="1" stop-color="#FFBF00"/>
</linearGradient>
<clipPath id="clip0_10_45">
<rect width="45" height="45" fill="white"/>
</clipPath>
</defs>
</svg>
