<svg width="45" height="45" viewBox="0 0 45 45" fill="none" xmlns="http://www.w3.org/2000/svg">
<g clip-path="url(#clip0_10_47)">
<path fill-rule="evenodd" clip-rule="evenodd" d="M45 22.5C45 34.9264 34.9264 45 22.5 45C10.0736 45 0 34.9264 0 22.5C0 10.0736 10.0736 0 22.5 0C34.9264 0 45 10.0736 45 22.5ZM9.80859 35.625H15.2508V18.0992H9.80859V35.625ZM9.375 12.5268C9.375 14.2671 10.7865 15.7085 12.5268 15.7085C14.2664 15.7085 15.6785 14.2671 15.6785 12.5268C15.6785 11.6909 15.3465 10.8892 14.7554 10.2981C14.1643 9.70707 13.3627 9.375 12.5268 9.375C11.6909 9.375 10.8892 9.70707 10.2981 10.2981C9.70706 10.8892 9.375 11.6909 9.375 12.5268ZM30.1887 35.625H35.625V25.9978C35.625 21.2868 34.6125 17.6598 29.1047 17.6598C26.4568 17.6598 24.682 19.1129 23.9555 20.4899H23.8793V18.0992H18.6598V35.625H24.0961V26.9471C24.0961 24.6619 24.5297 22.4528 27.3592 22.4528C30.1477 22.4528 30.1887 25.0603 30.1887 27.0936V35.625Z" fill="#0A66C2"/>
</g>
<defs>
<clipPath id="clip0_10_47">
<rect width="45" height="45" fill="white"/>
</clipPath>
</defs>
</svg>
