<svg width="80" height="80" viewBox="0 0 80 80" fill="none" xmlns="http://www.w3.org/2000/svg">
<g filter="url(#filter0_i_2_23)">
<rect width="80" height="80" rx="10" fill="#066EE7"/>
</g>
<rect x="2" y="2" width="76" height="76" rx="8" stroke="#066EE7" stroke-width="4"/>
<path d="M35.8494 31.3125C35.6506 30.6212 35.3712 30.0104 35.0114 29.4801C34.6515 28.9403 34.2112 28.4858 33.6903 28.1165C33.179 27.7377 32.5919 27.4489 31.929 27.25C31.2756 27.0511 30.5511 26.9517 29.7557 26.9517C28.2689 26.9517 26.9621 27.321 25.8352 28.0597C24.7178 28.7983 23.8466 29.8731 23.2216 31.2841C22.5966 32.6856 22.2841 34.3996 22.2841 36.4261C22.2841 38.4527 22.5919 40.1761 23.2074 41.5966C23.8229 43.017 24.6941 44.1013 25.821 44.8494C26.9479 45.5881 28.2784 45.9574 29.8125 45.9574C31.2045 45.9574 32.393 45.7112 33.3778 45.2188C34.3722 44.7169 35.1297 44.0114 35.6506 43.1023C36.1809 42.1932 36.446 41.1184 36.446 39.8778L37.696 40.0625H30.196V35.4318H42.3693V39.0966C42.3693 41.6534 41.8295 43.8504 40.75 45.6875C39.6705 47.5152 38.1837 48.9261 36.2898 49.9205C34.3958 50.9053 32.2273 51.3977 29.7841 51.3977C27.0568 51.3977 24.661 50.7964 22.5966 49.5938C20.5322 48.3816 18.9223 46.6629 17.767 44.4375C16.6212 42.2027 16.0483 39.5511 16.0483 36.483C16.0483 34.125 16.3892 32.0227 17.071 30.1761C17.7623 28.3201 18.7282 26.7481 19.9688 25.4602C21.2093 24.1723 22.6534 23.1922 24.3011 22.5199C25.9489 21.8475 27.7339 21.5114 29.6562 21.5114C31.304 21.5114 32.8381 21.7528 34.2585 22.2358C35.679 22.7093 36.9384 23.3816 38.0369 24.2528C39.1449 25.1241 40.0492 26.161 40.75 27.3636C41.4508 28.5568 41.9006 29.8731 42.0994 31.3125H35.8494Z" fill="white"/>
<path d="M62.4581 33.9688L60.1428 34.6222C59.9155 33.9687 59.5935 33.3769 59.1768 32.8466C58.7602 32.3163 58.2157 31.8949 57.5433 31.5824C56.8804 31.2699 56.0566 31.1136 55.0717 31.1136C53.5945 31.1136 52.3823 31.464 51.4354 32.1648C50.4884 32.8655 50.0149 33.7699 50.0149 34.8778C50.0149 35.8153 50.3369 36.5777 50.9808 37.1648C51.6342 37.7424 52.638 38.2017 53.9922 38.5426L57.2876 39.3523C59.1153 39.7973 60.4837 40.5028 61.3928 41.4688C62.3113 42.4347 62.7706 43.6468 62.7706 45.1051C62.7706 46.3362 62.4297 47.4299 61.7479 48.3864C61.0661 49.3428 60.1143 50.0956 58.8928 50.6449C57.6806 51.1847 56.2744 51.4545 54.674 51.4545C52.5433 51.4545 50.7867 50.9763 49.4041 50.0199C48.0215 49.054 47.1361 47.6619 46.7479 45.8438L49.1768 45.2472C49.4893 46.5445 50.1001 47.5246 51.0092 48.1875C51.9278 48.8504 53.1352 49.1818 54.6314 49.1818C56.3075 49.1818 57.6475 48.8078 58.6513 48.0597C59.6551 47.3021 60.157 46.3551 60.157 45.2188C60.157 44.3381 59.8634 43.5994 59.2763 43.0028C58.6892 42.3968 57.799 41.9517 56.6058 41.6676L53.0405 40.8153C51.1465 40.3608 49.745 39.6411 48.8359 38.6562C47.9268 37.6714 47.4723 36.4498 47.4723 34.9915C47.4723 33.7888 47.799 32.733 48.4524 31.8239C49.1058 30.9053 50.0054 30.1856 51.1513 29.6648C52.2971 29.1439 53.6039 28.8835 55.0717 28.8835C57.0698 28.8835 58.6655 29.3381 59.8587 30.2472C61.0613 31.1468 61.9278 32.3873 62.4581 33.9688Z" fill="#D9D9D9" fill-opacity="0.8"/>
<defs>
<filter id="filter0_i_2_23" x="0" y="0" width="80" height="84" filterUnits="userSpaceOnUse" color-interpolation-filters="sRGB">
<feFlood flood-opacity="0" result="BackgroundImageFix"/>
<feBlend mode="normal" in="SourceGraphic" in2="BackgroundImageFix" result="shape"/>
<feColorMatrix in="SourceAlpha" type="matrix" values="0 0 0 0 0 0 0 0 0 0 0 0 0 0 0 0 0 0 127 0" result="hardAlpha"/>
<feMorphology radius="10" operator="erode" in="SourceAlpha" result="effect1_innerShadow_2_23"/>
<feOffset dy="4"/>
<feGaussianBlur stdDeviation="12.5"/>
<feComposite in2="hardAlpha" operator="arithmetic" k2="-1" k3="1"/>
<feColorMatrix type="matrix" values="0 0 0 0 0 0 0 0 0 0 0 0 0 0 0 0 0 0 0.3 0"/>
<feBlend mode="normal" in2="shape" result="effect1_innerShadow_2_23"/>
</filter>
</defs>
</svg>
