<svg width="167" height="35" viewBox="0 0 167 35" fill="none" xmlns="http://www.w3.org/2000/svg">
<path d="M0.383545 8.38752V16.7751H8.77118H17.1588V8.38752V-0.000116348H8.77118H0.383545V8.38752Z" fill="#D9D9D9" fill-opacity="0.8"/>
<path d="M18.6089 8.388V16.7756H26.9965H35.3842V8.388V0.000371933H26.9965H18.6089V8.388Z" fill="#D9D9D9" fill-opacity="0.8"/>
<path d="M0.383545 26.6124V35H8.77118H17.1588V26.6124V18.2247H8.77118H0.383545V26.6124Z" fill="#D9D9D9" fill-opacity="0.8"/>
<path d="M18.6089 26.6119V34.9995H26.9965H35.3842V26.6119V18.2242H26.9965H18.6089V26.6119Z" fill="#D9D9D9" fill-opacity="0.8"/>
<path d="M154.629 5.55181C154.591 5.56142 154.394 5.59507 154.197 5.62391C153.086 5.80656 152.077 6.3401 151.298 7.16204C150.654 7.84459 150.226 8.67614 150.005 9.68554C149.924 10.046 149.904 10.3633 149.885 11.5938L149.861 13.0742H148.616H147.371V14.5162V15.9582H148.621H149.871V22.1108V28.2633H151.673H153.476V22.1108V15.9582H156.168H158.859V20.0631C158.859 24.3843 158.874 24.8073 159.076 25.61C159.47 27.1818 160.465 28.1383 162.051 28.4844C162.532 28.5902 163.608 28.6238 164.171 28.5565C164.733 28.4844 165.512 28.3018 165.834 28.1624L166.069 28.0614V26.605V25.1486L165.714 25.3312C164.546 25.9369 163.18 25.6917 162.724 24.7929C162.445 24.2401 162.45 24.3122 162.431 19.9574L162.411 15.9582H164.238H166.069V14.5162V13.0742H164.243H162.416V10.8103C162.416 9.01741 162.402 8.55117 162.359 8.57039C162.325 8.58001 161.522 8.82515 160.58 9.11355L158.859 9.63747V11.3535V13.0742H156.163H153.466L153.49 11.714C153.514 10.2383 153.538 10.046 153.817 9.52211C154.062 9.04145 154.456 8.70979 154.947 8.55597C155.557 8.36851 156.509 8.45023 157.191 8.74343L157.417 8.83957V7.31105V5.77772L157.095 5.70081C156.552 5.57103 156.129 5.52777 155.398 5.53258C155.014 5.53739 154.668 5.547 154.629 5.55181Z" fill="#D9D9D9" fill-opacity="0.8"/>
<path d="M74.1898 6.63336C73.69 6.71507 73.315 6.91695 72.9305 7.3159C72.1903 8.08016 72.2335 9.38277 73.0218 10.123C74.2139 11.2381 76.3096 10.6662 76.6653 9.12321C76.9296 7.96961 76.1077 6.8064 74.906 6.63336C74.5359 6.58048 74.5311 6.58048 74.1898 6.63336Z" fill="#D9D9D9" fill-opacity="0.8"/>
<path d="M46.3352 17.6645V28.2632H48.0416H49.7479V20.0919C49.7479 12.8626 49.7576 11.9205 49.82 11.9205C49.8585 11.9205 49.8921 11.9253 49.8921 11.9301C49.8921 11.9397 51.3726 15.612 53.1799 20.0919L56.4629 28.2392H57.751H59.0344L62.2693 20.0919C64.5765 14.2758 65.5234 11.9397 65.5811 11.9301C65.6532 11.9157 65.658 12.531 65.658 20.087V28.2632H67.4605H69.263V17.6645V7.06579H66.7491H64.24L61.0436 14.9055C59.2892 19.2122 57.8376 22.7499 57.8231 22.7596C57.8087 22.7692 56.4004 19.2459 54.694 14.9343L51.5937 7.08982L48.9645 7.0754L46.3352 7.06579V17.6645Z" fill="#D9D9D9" fill-opacity="0.8"/>
<path d="M86.0911 12.7472C83.1927 12.9635 80.8903 14.4392 79.6839 16.8425C79.035 18.1307 78.7418 19.6208 78.7946 21.3367C78.8331 22.6682 79.083 23.6968 79.631 24.7639C80.8903 27.2297 83.2696 28.5996 86.2978 28.5996C87.8215 28.5996 89.0809 28.3449 90.2008 27.8065L90.6527 27.5902V25.9607V24.3313L90.2681 24.586C89.5375 25.0667 88.6339 25.4368 87.8167 25.5906C86.865 25.7733 85.6201 25.6051 84.7885 25.1869C84.2214 24.9033 83.5725 24.3121 83.2216 23.7689C82.1737 22.1346 82.1929 19.2987 83.2648 17.65C84.0195 16.4868 85.1683 15.8091 86.6103 15.6697C87.8408 15.5543 89.0665 15.8812 90.196 16.6262C90.3835 16.7464 90.5613 16.8665 90.595 16.8858C90.6383 16.9146 90.6527 16.5733 90.6527 15.2179V13.5067L90.4268 13.3913C89.8259 13.0933 88.6916 12.8289 87.6004 12.7376C86.9563 12.6847 86.865 12.6847 86.0911 12.7472Z" fill="#D9D9D9" fill-opacity="0.8"/>
<path d="M109.625 12.7424C105.121 13.0644 102.429 16.083 102.429 20.8128C102.429 22.7403 102.9 24.4034 103.808 25.6819C104.188 26.2155 104.909 26.9269 105.433 27.2826C106.668 28.1237 108.014 28.5323 109.74 28.5852C112.287 28.6669 114.311 27.9651 115.791 26.4846C117.012 25.2589 117.743 23.6535 117.95 21.7164C118.017 21.1156 118.017 19.8851 117.95 19.2843C117.647 16.5012 116.306 14.468 114.095 13.4346C113.263 13.0452 112.316 12.8193 111.187 12.7376C110.466 12.6847 110.389 12.6847 109.625 12.7424ZM111.148 15.7225C112.36 15.9292 113.359 16.7463 113.864 17.9288C114.369 19.1064 114.479 21.0291 114.133 22.5576C113.773 24.1486 112.874 25.1724 111.528 25.5281C110.994 25.6675 110.038 25.7012 109.456 25.6002C107.76 25.3022 106.683 24.1871 106.25 22.2788C106.145 21.827 106.101 20.1591 106.173 19.6015C106.337 18.3854 106.721 17.501 107.394 16.7896C108.288 15.8475 109.634 15.4678 111.148 15.7225Z" fill="#D9D9D9" fill-opacity="0.8"/>
<path d="M124.804 12.7377C123.189 12.8723 121.786 13.4876 120.863 14.4729C120.392 14.9728 120.06 15.5785 119.873 16.2706C119.738 16.7657 119.724 17.9049 119.844 18.4384C120.209 20.0583 121.103 20.9091 123.53 21.9425C125.131 22.625 125.838 23.0672 126.073 23.5287C126.184 23.7354 126.198 23.8267 126.198 24.2497C126.198 24.6534 126.179 24.764 126.092 24.9274C125.785 25.5042 125.097 25.7734 123.939 25.7734C122.723 25.7782 121.31 25.336 120.195 24.6102C120.007 24.49 119.824 24.3747 119.796 24.3506C119.748 24.3218 119.733 24.6727 119.733 26.0426V27.7682L120.132 27.9172C122.237 28.7007 124.525 28.816 126.39 28.2296C128.938 27.4317 130.245 25.2639 129.678 22.7837C129.342 21.3224 128.294 20.3611 125.972 19.3757C124.444 18.722 123.867 18.4 123.627 18.0539C123.324 17.6117 123.252 16.8859 123.473 16.4581C123.612 16.1841 124.011 15.838 124.324 15.7227C125.511 15.2804 127.482 15.6409 128.885 16.559L129.01 16.6407L129 14.9969L128.986 13.353L128.746 13.2616C127.741 12.8771 125.967 12.6416 124.804 12.7377Z" fill="#D9D9D9" fill-opacity="0.8"/>
<path d="M138.84 12.7232C134.605 12.9299 131.889 15.4774 131.457 19.6544C131.375 20.4475 131.423 21.9856 131.557 22.6874C131.75 23.7401 132.149 24.7302 132.706 25.5714C133.062 26.1098 133.918 26.9701 134.446 27.3162C135.773 28.191 137.244 28.5996 139.08 28.5996C140.623 28.5996 141.925 28.3064 143.098 27.7008C144.382 27.0374 145.506 25.8694 146.151 24.5332C147.251 22.2308 147.27 18.8901 146.189 16.5445C145.944 16.0013 145.444 15.2803 145.007 14.8237C144.036 13.8095 142.805 13.1606 141.329 12.8818C140.81 12.7857 139.681 12.6799 139.32 12.6992C139.215 12.704 138.998 12.7136 138.84 12.7232ZM140.219 15.7418C141.402 15.9821 142.368 16.7896 142.853 17.9625C143.146 18.669 143.243 19.2266 143.271 20.3802C143.291 21.1925 143.281 21.529 143.218 21.9568C142.93 23.9275 142.099 25.0379 140.57 25.5041C140.166 25.6291 140.08 25.6387 139.296 25.6387C138.585 25.6387 138.397 25.6195 138.071 25.533C136.504 25.1052 135.523 23.9275 135.182 22.0625C135.071 21.4473 135.066 20.0101 135.177 19.3612C135.552 17.179 136.792 15.886 138.715 15.6697C139.147 15.6216 139.772 15.6553 140.219 15.7418Z" fill="#D9D9D9" fill-opacity="0.8"/>
<path d="M99.7854 12.9299C98.6414 13.2327 97.781 13.9922 97.1754 15.2323L96.9254 15.7418L96.911 14.4056L96.9014 13.0741H95.1229H93.3445V20.6687V28.2632H95.1181H96.8966L96.9158 23.8987C96.9303 19.5872 96.9351 19.5343 97.0408 19.0632C97.3869 17.5251 98.1752 16.5061 99.3047 16.1456C99.7518 16.0014 100.478 16.0014 101.059 16.1504C101.525 16.2657 101.968 16.4436 102.102 16.5686C102.184 16.6407 102.189 16.5686 102.189 14.8382V13.0309L101.939 12.9491C101.761 12.8915 101.458 12.8626 100.915 12.853C100.261 12.8386 100.093 12.8482 99.7854 12.9299Z" fill="#D9D9D9" fill-opacity="0.8"/>
<path d="M72.7239 20.6687V28.2632H74.5023H76.2808V20.6687V13.0741H74.5023H72.7239V20.6687Z" fill="#D9D9D9" fill-opacity="0.8"/>
</svg>
