<svg width="45" height="45" viewBox="0 0 45 45" fill="none" xmlns="http://www.w3.org/2000/svg">
<g clip-path="url(#clip0_10_43)">
<path fill-rule="evenodd" clip-rule="evenodd" d="M22.982 35.4437H22.9874C30.3359 35.4437 36.3167 29.4647 36.3198 22.1156C36.3211 18.5543 34.9356 15.2056 32.4184 12.6864C29.9012 10.1672 26.5538 8.77896 22.9927 8.77755C15.6387 8.77755 9.6577 14.7562 9.6548 22.1048C9.65384 24.6232 10.3586 27.0758 11.6932 29.198L12.0103 29.7021L10.6633 34.6204L15.7094 33.2971L16.1962 33.586C18.2432 34.8004 20.5896 35.4428 22.982 35.4437ZM27.5617 24.1581C27.9292 24.2918 29.8997 25.2612 30.3005 25.4617C30.3786 25.5008 30.4516 25.5361 30.5194 25.5688C30.7991 25.7039 30.9881 25.7952 31.0687 25.9298C31.1688 26.0968 31.1688 26.8991 30.835 27.835C30.5009 28.7709 28.8996 29.6252 28.1296 29.7403C27.439 29.8434 26.5652 29.8864 25.6051 29.5815C25.023 29.3968 24.2765 29.1503 23.3202 28.7375C19.5638 27.116 17.0249 23.4767 16.544 22.7874C16.5102 22.7389 16.4865 22.705 16.4734 22.6875L16.4699 22.6829C16.2571 22.3988 14.8368 20.5038 14.8368 18.5426C14.8368 16.6969 15.7438 15.7294 16.1612 15.2842C16.1898 15.2537 16.216 15.2257 16.2396 15.2C16.607 14.7989 17.0411 14.6987 17.3084 14.6987C17.5756 14.6987 17.843 14.7011 18.0766 14.7127C18.1054 14.7142 18.1353 14.714 18.1663 14.7138C18.3998 14.7124 18.6911 14.7107 18.9783 15.4005C19.0887 15.6656 19.2501 16.0584 19.4203 16.4728C19.7654 17.3126 20.147 18.2412 20.2141 18.3755C20.3143 18.576 20.3811 18.8101 20.2475 19.0775C20.2275 19.1174 20.209 19.1551 20.1914 19.1912C20.0909 19.3963 20.0171 19.5469 19.8467 19.7459C19.7799 19.8239 19.7108 19.908 19.6418 19.9921C19.5037 20.1602 19.3657 20.3283 19.2455 20.4478C19.0449 20.6476 18.8359 20.8644 19.0697 21.2656C19.3035 21.6667 20.108 22.9789 21.2994 24.0413C22.5805 25.1836 23.6938 25.6663 24.258 25.9109C24.368 25.9586 24.4571 25.9972 24.5226 26.03C24.9233 26.2306 25.1571 26.1971 25.3909 25.9298C25.6247 25.6623 26.3928 24.7598 26.6601 24.3587C26.9272 23.9576 27.1943 24.0245 27.5617 24.1581Z" fill="#25D366"/>
<path fill-rule="evenodd" clip-rule="evenodd" d="M22.5 45C34.9264 45 45 34.9264 45 22.5C45 10.0736 34.9264 0 22.5 0C10.0736 0 0 10.0736 0 22.5C0 34.9264 10.0736 45 22.5 45ZM22.9873 6.06929C27.2783 6.07105 31.3058 7.74106 34.3342 10.7721C37.3629 13.803 39.0297 17.8319 39.028 22.1166C39.0244 30.9581 31.828 38.1521 22.9875 38.1521H22.9809C20.2962 38.1509 17.6583 37.4778 15.3154 36.2003L6.81198 38.4301L9.08765 30.1205C7.68394 27.6889 6.9454 24.93 6.94654 22.1038C6.95006 13.2623 14.1459 6.06929 22.9873 6.06929Z" fill="#25D366"/>
</g>
<defs>
<clipPath id="clip0_10_43">
<rect width="45" height="45" fill="white"/>
</clipPath>
</defs>
</svg>
